<svg width="24" height="25" viewBox="0 0 24 25" fill="none" xmlns="http://www.w3.org/2000/svg">
<g clip-path="url(#clip0_743_15077)">
<path d="M23.9461 1.86294C24.0007 1.72664 24.0141 1.57733 23.9846 1.43352C23.9551 1.2897 23.884 1.15771 23.7802 1.0539C23.6764 0.950089 23.5444 0.879029 23.4006 0.849528C23.2568 0.820026 23.1074 0.833382 22.9711 0.887938L1.15065 9.61644H1.14915L0.471148 9.88644C0.342733 9.93766 0.230976 10.0234 0.148222 10.1341C0.0654668 10.2449 0.0149351 10.3764 0.00220827 10.514C-0.0105185 10.6517 0.0150548 10.7902 0.0761036 10.9142C0.137152 11.0383 0.2313 11.143 0.348148 11.2169L0.963148 11.6069L0.964648 11.6099L8.45715 16.3769L13.2241 23.8694L13.2271 23.8724L13.6171 24.4874C13.6913 24.6038 13.7961 24.6975 13.92 24.7582C14.044 24.8188 14.1823 24.8441 14.3197 24.8313C14.4571 24.8184 14.5883 24.7679 14.6988 24.6852C14.8093 24.6026 14.8949 24.4911 14.9461 24.3629L23.9461 1.86294ZM21.1966 4.69794L9.95565 15.9389L9.63315 15.4319C9.57406 15.3389 9.49519 15.26 9.40215 15.2009L8.89515 14.8784L20.1361 3.63744L21.9031 2.93094L21.1966 4.69794Z" fill="white"/>
</g>
<defs>
<clipPath id="clip0_743_15077">
<rect width="24" height="24" fill="white" transform="translate(0 0.833984)"/>
</clipPath>
</defs>
</svg>
