<svg width="155" height="40" viewBox="0 0 155 40" fill="none" xmlns="http://www.w3.org/2000/svg">
<path d="M145.265 29.9226C144.218 29.9226 143.181 29.7251 142.154 29.3301C141.147 28.9154 140.239 28.3229 139.429 27.5527C138.619 26.7824 137.967 25.8444 137.474 24.7384C136.98 23.6127 136.733 22.3389 136.733 20.9169C136.733 19.4753 136.97 18.2014 137.444 17.0955C137.938 15.9698 138.58 15.0218 139.37 14.2516C140.179 13.4814 141.098 12.8988 142.125 12.5038C143.171 12.0891 144.238 11.8817 145.324 11.8817C146.45 11.8817 147.496 12.0989 148.464 12.5334C149.432 12.9482 150.232 13.5308 150.864 14.2812V7.64551H154.892V29.5671H150.893V27.3157C150.261 28.1254 149.451 28.7672 148.464 29.2412C147.477 29.6954 146.41 29.9226 145.265 29.9226ZM145.916 26.2492C146.667 26.2492 147.358 26.111 147.99 25.8345C148.622 25.558 149.165 25.1729 149.619 24.6792C150.074 24.1854 150.429 23.6127 150.686 22.961C150.962 22.3093 151.101 21.6082 151.101 20.8577C151.101 20.127 150.962 19.4358 150.686 18.784C150.429 18.1323 150.074 17.5695 149.619 17.0955C149.165 16.6018 148.622 16.2166 147.99 15.9402C147.358 15.6637 146.667 15.5254 145.916 15.5254C145.186 15.5254 144.494 15.6637 143.843 15.9402C143.211 16.2166 142.658 16.5919 142.184 17.0659C141.71 17.5398 141.335 18.1027 141.058 18.7544C140.801 19.4061 140.673 20.1072 140.673 20.8577C140.673 21.6082 140.801 22.3191 141.058 22.9906C141.335 23.6423 141.71 24.2151 142.184 24.7088C142.658 25.1828 143.211 25.558 143.843 25.8345C144.494 26.111 145.186 26.2492 145.916 26.2492Z" fill="#F99F1B"/>
<path d="M130.368 12.2371H134.397V29.567H130.368V12.2371ZM130.516 9.80797C130.082 9.35374 129.865 8.7514 129.865 8.00093C129.865 7.25046 130.092 6.64811 130.546 6.19388C131 5.7199 131.612 5.48291 132.383 5.48291C133.172 5.48291 133.785 5.7199 134.219 6.19388C134.673 6.64811 134.901 7.25046 134.901 8.00093C134.901 8.7514 134.673 9.35374 134.219 9.80797C133.785 10.2622 133.172 10.4893 132.383 10.4893C131.573 10.4893 130.951 10.2622 130.516 9.80797Z" fill="#F99F1B"/>
<path d="M119.645 29.9226C118.46 29.9226 117.374 29.6954 116.387 29.2412C115.399 28.787 114.589 28.1451 113.957 27.3157V29.5671H109.988V7.64551H113.987V14.4293C114.599 13.6591 115.389 13.0469 116.357 12.5927C117.344 12.1187 118.421 11.8817 119.586 11.8817C120.672 11.8817 121.729 12.0891 122.756 12.5038C123.783 12.8988 124.691 13.4814 125.481 14.2516C126.271 15.0218 126.903 15.9698 127.377 17.0955C127.871 18.2014 128.118 19.4753 128.118 20.9169C128.118 22.3389 127.871 23.6127 127.377 24.7384C126.883 25.8444 126.232 26.7824 125.422 27.5527C124.632 28.3229 123.733 28.9154 122.726 29.3301C121.719 29.7251 120.692 29.9226 119.645 29.9226ZM116.92 25.8345C117.552 26.111 118.233 26.2492 118.964 26.2492C119.695 26.2492 120.376 26.111 121.008 25.8345C121.64 25.558 122.193 25.1828 122.667 24.7088C123.141 24.2151 123.506 23.6423 123.763 22.9906C124.039 22.3191 124.178 21.6082 124.178 20.8577C124.178 20.1072 124.039 19.4061 123.763 18.7544C123.506 18.1027 123.141 17.5398 122.667 17.0659C122.193 16.5919 121.64 16.2166 121.008 15.9402C120.376 15.6637 119.695 15.5254 118.964 15.5254C118.233 15.5254 117.552 15.6637 116.92 15.9402C116.288 16.2166 115.735 16.6018 115.261 17.0955C114.807 17.5695 114.451 18.1323 114.194 18.784C113.938 19.4358 113.809 20.127 113.809 20.8577C113.809 21.6082 113.938 22.3093 114.194 22.961C114.451 23.6127 114.807 24.1854 115.261 24.6792C115.735 25.1729 116.288 25.558 116.92 25.8345Z" fill="#F99F1B"/>
<path d="M97.4898 29.9226C96.4431 29.9226 95.4062 29.7251 94.3793 29.3301C93.3721 28.9154 92.4636 28.3229 91.6539 27.5527C90.8442 26.7825 90.1925 25.8444 89.6987 24.7384C89.205 23.6127 88.9581 22.3389 88.9581 20.917C88.9581 19.4753 89.1951 18.2014 89.6691 17.0955C90.1628 15.9698 90.8047 15.0218 91.5946 14.2516C92.4044 13.4814 93.3227 12.8988 94.3497 12.5038C95.3964 12.0891 96.4628 11.8817 97.549 11.8817C98.6945 11.8817 99.751 12.099 100.719 12.5334C101.686 12.9679 102.486 13.5604 103.118 14.3109V12.2372H107.117V29.5671H103.118V27.3157C102.486 28.1254 101.677 28.7672 100.689 29.2412C99.7017 29.6955 98.6352 29.9226 97.4898 29.9226ZM98.1415 26.2492C98.892 26.2492 99.5832 26.111 100.215 25.8345C100.847 25.558 101.39 25.1729 101.844 24.6792C102.299 24.1854 102.654 23.6127 102.911 22.961C103.187 22.3093 103.326 21.6082 103.326 20.8577C103.326 20.127 103.187 19.4358 102.911 18.784C102.654 18.1323 102.299 17.5695 101.844 17.0955C101.39 16.6018 100.847 16.2167 100.215 15.9402C99.5832 15.6637 98.892 15.5254 98.1415 15.5254C97.4108 15.5254 96.7196 15.6637 96.0678 15.9402C95.4359 16.2167 94.8829 16.5919 94.4089 17.0659C93.9349 17.5398 93.5597 18.1027 93.2832 18.7544C93.0265 19.4061 92.8981 20.1072 92.8981 20.8577C92.8981 21.6082 93.0265 22.3191 93.2832 22.9906C93.5597 23.6423 93.9349 24.2151 94.4089 24.7088C94.8829 25.1828 95.4359 25.558 96.0678 25.8345C96.7196 26.111 97.4108 26.2492 98.1415 26.2492Z" fill="#023F88"/>
<path d="M82.623 27.2564C81.991 28.0859 81.1813 28.7376 80.1939 29.2116C79.2064 29.6856 78.1301 29.9226 76.9649 29.9226C75.9182 29.9226 74.8813 29.7251 73.8544 29.3301C72.8472 28.9154 71.9387 28.3229 71.129 27.5527C70.3193 26.7825 69.6676 25.8444 69.1738 24.7384C68.6801 23.6127 68.4332 22.3389 68.4332 20.917C68.4332 19.4753 68.6702 18.2014 69.1442 17.0955C69.6379 15.9698 70.2798 15.0218 71.0697 14.2516C71.8795 13.4814 72.7978 12.8988 73.8247 12.5038C74.8715 12.0891 75.9379 11.8817 77.0241 11.8817C78.1696 11.8817 79.2261 12.1187 80.1939 12.5927C81.1616 13.0469 81.9614 13.669 82.5934 14.459V12.2372H86.5926V29.1227C86.5926 30.3472 86.3951 31.4926 86.0001 32.5591C85.6249 33.6255 85.062 34.5537 84.3116 35.3437C83.5611 36.1534 82.623 36.7854 81.4973 37.2396C80.3913 37.7136 79.1077 37.9506 77.6462 37.9506C76.5205 37.9506 75.4936 37.8222 74.5653 37.5655C73.6569 37.3285 72.8373 36.9829 72.1066 36.5287C71.3759 36.0942 70.734 35.5708 70.181 34.9586C69.6281 34.3661 69.1541 33.7045 68.7591 32.9738L72.3139 30.8113C72.9459 31.9765 73.6569 32.8454 74.4468 33.4182C75.2368 33.9909 76.323 34.2773 77.7055 34.2773C78.4559 34.2773 79.1373 34.139 79.7495 33.8625C80.3617 33.586 80.8752 33.2207 81.2899 32.7664C81.7244 32.3122 82.0503 31.779 82.2675 31.1668C82.5045 30.5545 82.623 29.9226 82.623 29.2708V27.2564ZM77.6166 26.2492C78.3671 26.2492 79.0583 26.111 79.6903 25.8345C80.3222 25.558 80.8653 25.1729 81.3196 24.6792C81.7738 24.1854 82.1293 23.6127 82.386 22.961C82.6625 22.3093 82.8007 21.6082 82.8007 20.8577C82.8007 20.127 82.6625 19.4358 82.386 18.784C82.1293 18.1323 81.7738 17.5695 81.3196 17.0955C80.8653 16.6018 80.3222 16.2167 79.6903 15.9402C79.0583 15.6637 78.3671 15.5254 77.6166 15.5254C76.8859 15.5254 76.1946 15.6637 75.5429 15.9402C74.911 16.2167 74.358 16.5919 73.884 17.0659C73.41 17.5398 73.0348 18.1027 72.7583 18.7544C72.5016 19.4061 72.3732 20.1072 72.3732 20.8577C72.3732 21.6082 72.5016 22.3191 72.7583 22.9906C73.0348 23.6423 73.41 24.2151 73.884 24.7088C74.358 25.1828 74.911 25.558 75.5429 25.8345C76.1946 26.111 76.8859 26.2492 77.6166 26.2492Z" fill="#023F88"/>
<path d="M57.8432 29.9226C56.4805 29.9226 55.2363 29.6955 54.1106 29.2412C52.9849 28.7672 52.0172 28.1254 51.2075 27.3157C50.4175 26.506 49.7954 25.558 49.3412 24.4718C48.9067 23.3659 48.6895 22.1908 48.6895 20.9466C48.6895 19.6826 48.9166 18.4977 49.3708 17.3917C49.8448 16.2858 50.4866 15.3279 51.2963 14.5182C52.1061 13.7085 53.054 13.0667 54.1402 12.5927C55.2462 12.1187 56.4311 11.8817 57.6951 11.8817C58.9788 11.8817 60.1637 12.1088 61.2499 12.5631C62.3559 12.9975 63.3038 13.6196 64.0938 14.4294C64.8838 15.2193 65.496 16.1574 65.9305 17.2436C66.3847 18.3298 66.6118 19.5148 66.6118 20.7985V22.3093H52.5109C52.7874 23.5337 53.3898 24.5212 54.318 25.2716C55.2462 26.0221 56.4213 26.3973 57.8432 26.3973C58.9689 26.3973 59.9465 26.1209 60.7759 25.5679C61.6054 25.0149 62.2275 24.2743 62.6422 23.3461L65.9305 25.242C65.18 26.6442 64.1234 27.7798 62.7607 28.6488C61.4178 29.498 59.7786 29.9226 57.8432 29.9226ZM57.6951 15.4069C56.4904 15.4069 55.4437 15.7328 54.555 16.3845C53.686 17.0362 53.0738 17.8953 52.7183 18.9618H62.5534C62.2571 17.7966 61.6844 16.9177 60.8352 16.3253C59.986 15.7131 58.9393 15.4069 57.6951 15.4069Z" fill="#023F88"/>
<path d="M40.0064 20.0023C40.0064 21.5644 39.8268 23.0859 39.4893 24.5448H21.2131V15.9503H30.4824L19.5839 9.65985V0.00624829C19.7244 0.00312414 19.8635 0 20.0041 0C29.6639 0 37.7242 6.84656 39.5956 15.9503C39.8658 17.2593 40.0064 18.6152 40.0064 20.0023Z" fill="#3B4CA0"/>
<path d="M19.5837 29.862V39.9999C10.2847 39.8093 2.54462 33.272 0.52017 24.5447C0.179638 23.0842 0 21.5643 0 20.0022C0 18.6151 0.142149 17.2592 0.410825 15.9502H17.817V24.5447H10.3753L19.5837 29.862Z" fill="#F99F1B"/>
</svg>
