<svg width="343" height="49" viewBox="0 0 343 49" fill="none" xmlns="http://www.w3.org/2000/svg">
<g filter="url(#filter0_b_743_10773)">
<rect y="0.833984" width="343" height="48" rx="24" fill="#E1F3FD" fill-opacity="0.32"/>
<rect x="1" y="1.83398" width="341" height="46" rx="23" stroke="url(#paint0_linear_743_10773)" stroke-width="2"/>
<g filter="url(#filter1_b_743_10773)">
<path d="M95.0617 30.044C94.3384 30.044 93.6851 29.9203 93.1017 29.673C92.5231 29.421 92.0447 29.064 91.6667 28.602C91.2934 28.1353 91.0507 27.5823 90.9387 26.943L92.4647 26.712C92.6187 27.328 92.9407 27.8087 93.4307 28.154C93.9207 28.4947 94.4924 28.665 95.1457 28.665C95.5517 28.665 95.9251 28.602 96.2657 28.476C96.6064 28.3453 96.8794 28.161 97.0847 27.923C97.2947 27.6803 97.3997 27.391 97.3997 27.055C97.3997 26.873 97.3671 26.712 97.3017 26.572C97.2411 26.432 97.1547 26.3107 97.0427 26.208C96.9354 26.1007 96.8024 26.0097 96.6437 25.935C96.4897 25.8557 96.3194 25.788 96.1327 25.732L93.5497 24.969C93.2977 24.8943 93.0411 24.7987 92.7797 24.682C92.5184 24.5607 92.2781 24.4043 92.0587 24.213C91.8441 24.017 91.6691 23.7767 91.5337 23.492C91.3984 23.2027 91.3307 22.8527 91.3307 22.442C91.3307 21.8213 91.4894 21.2963 91.8067 20.867C92.1287 20.433 92.5627 20.1063 93.1087 19.887C93.6547 19.663 94.2661 19.551 94.9427 19.551C95.6241 19.5603 96.2331 19.6817 96.7697 19.915C97.3111 20.1483 97.7591 20.4843 98.1137 20.923C98.4731 21.357 98.7204 21.8843 98.8557 22.505L97.2877 22.771C97.2177 22.393 97.0684 22.0687 96.8397 21.798C96.6111 21.5227 96.3311 21.3127 95.9997 21.168C95.6684 21.0187 95.3091 20.9417 94.9217 20.937C94.5484 20.9277 94.2054 20.9837 93.8927 21.105C93.5847 21.2263 93.3374 21.3967 93.1507 21.616C92.9687 21.8353 92.8777 22.0873 92.8777 22.372C92.8777 22.652 92.9594 22.8783 93.1227 23.051C93.2861 23.2237 93.4867 23.3613 93.7247 23.464C93.9674 23.562 94.2077 23.6437 94.4457 23.709L96.3077 24.234C96.5411 24.2993 96.8047 24.388 97.0987 24.5C97.3974 24.6073 97.6844 24.759 97.9597 24.955C98.2397 25.151 98.4707 25.4123 98.6527 25.739C98.8347 26.061 98.9257 26.467 98.9257 26.957C98.9257 27.4657 98.8231 27.9137 98.6177 28.301C98.4124 28.6837 98.1301 29.0057 97.7707 29.267C97.4161 29.5237 97.0054 29.7173 96.5387 29.848C96.0721 29.9787 95.5797 30.044 95.0617 30.044ZM104.744 29.834C104.268 29.9273 103.801 29.967 103.344 29.953C102.886 29.939 102.478 29.8503 102.119 29.687C101.759 29.5237 101.489 29.267 101.307 28.917C101.143 28.6043 101.055 28.287 101.041 27.965C101.031 27.6383 101.027 27.2697 101.027 26.859V20.174H102.497V26.789C102.497 27.0923 102.499 27.356 102.504 27.58C102.513 27.804 102.562 27.993 102.651 28.147C102.819 28.4363 103.085 28.602 103.449 28.644C103.817 28.6813 104.249 28.665 104.744 28.595V29.834ZM99.5775 23.45V22.274H104.744V23.45H99.5775ZM106.337 29.834V22.274H107.639V24.108L107.457 23.87C107.551 23.6273 107.672 23.4057 107.821 23.205C107.971 22.9997 108.143 22.8317 108.339 22.701C108.531 22.561 108.743 22.4537 108.976 22.379C109.214 22.2997 109.457 22.253 109.704 22.239C109.952 22.2203 110.19 22.232 110.418 22.274V23.646C110.171 23.5807 109.896 23.562 109.592 23.59C109.294 23.618 109.018 23.7137 108.766 23.877C108.528 24.031 108.339 24.2177 108.199 24.437C108.064 24.6563 107.966 24.9013 107.905 25.172C107.845 25.438 107.814 25.7203 107.814 26.019V29.834H106.337ZM113.668 30.044C113.108 30.044 112.639 29.9413 112.261 29.736C111.883 29.526 111.596 29.2507 111.4 28.91C111.208 28.5647 111.113 28.1867 111.113 27.776C111.113 27.3933 111.18 27.0573 111.316 26.768C111.451 26.4787 111.652 26.2337 111.918 26.033C112.184 25.8277 112.51 25.662 112.898 25.536C113.234 25.438 113.614 25.3517 114.039 25.277C114.463 25.2023 114.909 25.1323 115.376 25.067C115.847 25.0017 116.314 24.9363 116.776 24.871L116.244 25.165C116.253 24.5723 116.127 24.1337 115.866 23.849C115.609 23.5597 115.166 23.415 114.536 23.415C114.139 23.415 113.775 23.5083 113.444 23.695C113.112 23.877 112.881 24.1803 112.751 24.605L111.386 24.185C111.572 23.5363 111.927 23.0207 112.45 22.638C112.977 22.2553 113.677 22.064 114.55 22.064C115.226 22.064 115.814 22.1807 116.314 22.414C116.818 22.6427 117.186 23.0067 117.42 23.506C117.541 23.7533 117.616 24.0147 117.644 24.29C117.672 24.5653 117.686 24.8617 117.686 25.179V29.834H116.391V28.105L116.643 28.329C116.33 28.9077 115.931 29.3393 115.446 29.624C114.965 29.904 114.372 30.044 113.668 30.044ZM113.927 28.847C114.342 28.847 114.699 28.7747 114.998 28.63C115.296 28.4807 115.537 28.2917 115.719 28.063C115.901 27.8343 116.02 27.5963 116.076 27.349C116.155 27.125 116.199 26.873 116.209 26.593C116.223 26.313 116.23 26.089 116.23 25.921L116.706 26.096C116.244 26.166 115.824 26.229 115.446 26.285C115.068 26.341 114.725 26.397 114.417 26.453C114.113 26.5043 113.843 26.5673 113.605 26.642C113.404 26.712 113.224 26.796 113.066 26.894C112.912 26.992 112.788 27.111 112.695 27.251C112.606 27.391 112.562 27.5613 112.562 27.762C112.562 27.958 112.611 28.14 112.709 28.308C112.807 28.4713 112.956 28.602 113.157 28.7C113.357 28.798 113.614 28.847 113.927 28.847ZM123.829 29.834C123.353 29.9273 122.887 29.967 122.429 29.953C121.972 29.939 121.564 29.8503 121.204 29.687C120.845 29.5237 120.574 29.267 120.392 28.917C120.229 28.6043 120.14 28.287 120.126 27.965C120.117 27.6383 120.112 27.2697 120.112 26.859V20.174H121.582V26.789C121.582 27.0923 121.585 27.356 121.589 27.58C121.599 27.804 121.648 27.993 121.736 28.147C121.904 28.4363 122.17 28.602 122.534 28.644C122.903 28.6813 123.335 28.665 123.829 28.595V29.834ZM118.663 23.45V22.274H123.829V23.45H118.663ZM128.435 30.044C127.683 30.044 127.023 29.8807 126.454 29.554C125.889 29.2227 125.448 28.763 125.131 28.175C124.818 27.5823 124.662 26.8963 124.662 26.117C124.662 25.291 124.816 24.5747 125.124 23.968C125.436 23.3613 125.87 22.8923 126.426 22.561C126.981 22.2297 127.627 22.064 128.365 22.064C129.135 22.064 129.79 22.2437 130.332 22.603C130.873 22.9577 131.277 23.464 131.543 24.122C131.813 24.78 131.921 25.5617 131.865 26.467H130.402V25.935C130.392 25.0577 130.224 24.409 129.898 23.989C129.576 23.569 129.083 23.359 128.421 23.359C127.688 23.359 127.137 23.59 126.769 24.052C126.4 24.514 126.216 25.1813 126.216 26.054C126.216 26.8847 126.4 27.5287 126.769 27.986C127.137 28.4387 127.669 28.665 128.365 28.665C128.822 28.665 129.216 28.5623 129.548 28.357C129.884 28.147 130.145 27.8483 130.332 27.461L131.767 27.916C131.473 28.5927 131.027 29.1177 130.43 29.491C129.832 29.8597 129.167 30.044 128.435 30.044ZM125.74 26.467V25.326H131.137V26.467H125.74ZM136.55 33.404C136.144 33.404 135.75 33.341 135.367 33.215C134.989 33.089 134.644 32.9023 134.331 32.655C134.018 32.4123 133.759 32.1113 133.554 31.752L134.905 31.066C135.068 31.388 135.302 31.6237 135.605 31.773C135.908 31.9223 136.228 31.997 136.564 31.997C136.979 31.997 137.334 31.9223 137.628 31.773C137.922 31.6283 138.144 31.409 138.293 31.115C138.447 30.821 138.522 30.457 138.517 30.023V27.909H138.692V22.274H139.987V30.037C139.987 30.2377 139.98 30.429 139.966 30.611C139.952 30.793 139.926 30.975 139.889 31.157C139.782 31.6657 139.576 32.0857 139.273 32.417C138.974 32.7483 138.592 32.9957 138.125 33.159C137.663 33.3223 137.138 33.404 136.55 33.404ZM136.438 30.044C135.733 30.044 135.124 29.869 134.611 29.519C134.102 29.169 133.708 28.693 133.428 28.091C133.153 27.4843 133.015 26.803 133.015 26.047C133.015 25.2863 133.155 24.6073 133.435 24.01C133.715 23.408 134.112 22.9343 134.625 22.589C135.143 22.239 135.757 22.064 136.466 22.064C137.18 22.064 137.78 22.239 138.265 22.589C138.755 22.9343 139.124 23.408 139.371 24.01C139.623 24.612 139.749 25.291 139.749 26.047C139.749 26.803 139.623 27.482 139.371 28.084C139.119 28.686 138.748 29.1643 138.258 29.519C137.768 29.869 137.161 30.044 136.438 30.044ZM136.641 28.721C137.122 28.721 137.514 28.6067 137.817 28.378C138.12 28.1493 138.342 27.8343 138.482 27.433C138.622 27.0317 138.692 26.5697 138.692 26.047C138.692 25.5243 138.62 25.0623 138.475 24.661C138.335 24.2597 138.116 23.947 137.817 23.723C137.523 23.499 137.147 23.387 136.69 23.387C136.205 23.387 135.806 23.506 135.493 23.744C135.18 23.982 134.947 24.3017 134.793 24.703C134.644 25.1043 134.569 25.5523 134.569 26.047C134.569 26.5463 134.644 26.999 134.793 27.405C134.947 27.8063 135.176 28.126 135.479 28.364C135.787 28.602 136.174 28.721 136.641 28.721ZM142.093 21.035V19.614H143.556V21.035H142.093ZM142.093 29.834V22.274H143.556V29.834H142.093ZM148.892 30.044C148.117 30.044 147.459 29.8713 146.918 29.526C146.376 29.1807 145.961 28.707 145.672 28.105C145.387 27.503 145.242 26.8193 145.238 26.054C145.242 25.2747 145.392 24.5863 145.686 23.989C145.98 23.387 146.4 22.9157 146.946 22.575C147.492 22.2343 148.147 22.064 148.913 22.064C149.739 22.064 150.443 22.2693 151.027 22.68C151.615 23.0907 152.002 23.653 152.189 24.367L150.733 24.787C150.588 24.3623 150.35 24.0333 150.019 23.8C149.692 23.562 149.316 23.443 148.892 23.443C148.411 23.443 148.017 23.5573 147.709 23.786C147.401 24.01 147.172 24.318 147.023 24.71C146.873 25.102 146.796 25.55 146.792 26.054C146.796 26.8333 146.974 27.4633 147.324 27.944C147.678 28.4247 148.201 28.665 148.892 28.665C149.363 28.665 149.743 28.5577 150.033 28.343C150.327 28.1237 150.551 27.811 150.705 27.405L152.189 27.755C151.941 28.4923 151.533 29.0593 150.964 29.456C150.394 29.848 149.704 30.044 148.892 30.044ZM156.418 29.834V19.754H160.492C160.59 19.754 160.711 19.7587 160.856 19.768C161 19.7727 161.138 19.7867 161.269 19.81C161.829 19.8987 162.295 20.09 162.668 20.384C163.047 20.678 163.329 21.049 163.516 21.497C163.702 21.945 163.796 22.4397 163.796 22.981C163.796 23.527 163.702 24.024 163.516 24.472C163.329 24.92 163.047 25.291 162.668 25.585C162.295 25.879 161.829 26.0703 161.269 26.159C161.138 26.1777 160.998 26.1917 160.849 26.201C160.704 26.2103 160.585 26.215 160.492 26.215H157.881V29.834H156.418ZM157.881 24.829H160.436C160.529 24.829 160.632 24.8243 160.744 24.815C160.86 24.8057 160.97 24.7893 161.073 24.766C161.371 24.696 161.612 24.5677 161.794 24.381C161.976 24.1897 162.106 23.9703 162.186 23.723C162.265 23.4757 162.305 23.2283 162.305 22.981C162.305 22.7337 162.265 22.4887 162.186 22.246C162.106 21.9987 161.976 21.7817 161.794 21.595C161.612 21.4037 161.371 21.273 161.073 21.203C160.97 21.175 160.86 21.1563 160.744 21.147C160.632 21.1377 160.529 21.133 160.436 21.133H157.881V24.829ZM167.097 30.044C166.537 30.044 166.068 29.9413 165.69 29.736C165.312 29.526 165.025 29.2507 164.829 28.91C164.638 28.5647 164.542 28.1867 164.542 27.776C164.542 27.3933 164.61 27.0573 164.745 26.768C164.881 26.4787 165.081 26.2337 165.347 26.033C165.613 25.8277 165.94 25.662 166.327 25.536C166.663 25.438 167.044 25.3517 167.468 25.277C167.893 25.2023 168.339 25.1323 168.805 25.067C169.277 25.0017 169.743 24.9363 170.205 24.871L169.673 25.165C169.683 24.5723 169.557 24.1337 169.295 23.849C169.039 23.5597 168.595 23.415 167.965 23.415C167.569 23.415 167.205 23.5083 166.873 23.695C166.542 23.877 166.311 24.1803 166.18 24.605L164.815 24.185C165.002 23.5363 165.357 23.0207 165.879 22.638C166.407 22.2553 167.107 22.064 167.979 22.064C168.656 22.064 169.244 22.1807 169.743 22.414C170.247 22.6427 170.616 23.0067 170.849 23.506C170.971 23.7533 171.045 24.0147 171.073 24.29C171.101 24.5653 171.115 24.8617 171.115 25.179V29.834H169.82V28.105L170.072 28.329C169.76 28.9077 169.361 29.3393 168.875 29.624C168.395 29.904 167.802 30.044 167.097 30.044ZM167.356 28.847C167.772 28.847 168.129 28.7747 168.427 28.63C168.726 28.4807 168.966 28.2917 169.148 28.063C169.33 27.8343 169.449 27.5963 169.505 27.349C169.585 27.125 169.629 26.873 169.638 26.593C169.652 26.313 169.659 26.089 169.659 25.921L170.135 26.096C169.673 26.166 169.253 26.229 168.875 26.285C168.497 26.341 168.154 26.397 167.846 26.453C167.543 26.5043 167.272 26.5673 167.034 26.642C166.834 26.712 166.654 26.796 166.495 26.894C166.341 26.992 166.218 27.111 166.124 27.251C166.036 27.391 165.991 27.5613 165.991 27.762C165.991 27.958 166.04 28.14 166.138 28.308C166.236 28.4713 166.386 28.602 166.586 28.7C166.787 28.798 167.044 28.847 167.356 28.847ZM172.933 29.834V22.274H174.235V24.108L174.053 23.87C174.146 23.6273 174.268 23.4057 174.417 23.205C174.566 22.9997 174.739 22.8317 174.935 22.701C175.126 22.561 175.339 22.4537 175.572 22.379C175.81 22.2997 176.053 22.253 176.3 22.239C176.547 22.2203 176.785 22.232 177.014 22.274V23.646C176.767 23.5807 176.491 23.562 176.188 23.59C175.889 23.618 175.614 23.7137 175.362 23.877C175.124 24.031 174.935 24.2177 174.795 24.437C174.66 24.6563 174.562 24.9013 174.501 25.172C174.44 25.438 174.41 25.7203 174.41 26.019V29.834H172.933ZM182.673 29.834C182.197 29.9273 181.731 29.967 181.273 29.953C180.816 29.939 180.408 29.8503 180.048 29.687C179.689 29.5237 179.418 29.267 179.236 28.917C179.073 28.6043 178.984 28.287 178.97 27.965C178.961 27.6383 178.956 27.2697 178.956 26.859V20.174H180.426V26.789C180.426 27.0923 180.429 27.356 180.433 27.58C180.443 27.804 180.492 27.993 180.58 28.147C180.748 28.4363 181.014 28.602 181.378 28.644C181.747 28.6813 182.179 28.665 182.673 28.595V29.834ZM177.507 23.45V22.274H182.673V23.45H177.507ZM189.573 29.834V26.117C189.573 25.823 189.547 25.522 189.496 25.214C189.449 24.9013 189.356 24.612 189.216 24.346C189.081 24.08 188.887 23.8653 188.635 23.702C188.388 23.5387 188.063 23.457 187.662 23.457C187.401 23.457 187.153 23.5013 186.92 23.59C186.687 23.674 186.481 23.8117 186.304 24.003C186.131 24.1943 185.994 24.4463 185.891 24.759C185.793 25.0717 185.744 25.452 185.744 25.9L184.834 25.557C184.834 24.871 184.962 24.2667 185.219 23.744C185.476 23.2167 185.844 22.806 186.325 22.512C186.806 22.218 187.387 22.071 188.068 22.071C188.591 22.071 189.029 22.155 189.384 22.323C189.739 22.491 190.026 22.7127 190.245 22.988C190.469 23.2587 190.639 23.555 190.756 23.877C190.873 24.199 190.952 24.514 190.994 24.822C191.036 25.13 191.057 25.4007 191.057 25.634V29.834H189.573ZM184.26 29.834V22.274H185.569V24.458H185.744V29.834H184.26ZM196.138 30.044C195.386 30.044 194.726 29.8807 194.157 29.554C193.592 29.2227 193.151 28.763 192.834 28.175C192.521 27.5823 192.365 26.8963 192.365 26.117C192.365 25.291 192.519 24.5747 192.827 23.968C193.139 23.3613 193.573 22.8923 194.129 22.561C194.684 22.2297 195.33 22.064 196.068 22.064C196.838 22.064 197.493 22.2437 198.035 22.603C198.576 22.9577 198.98 23.464 199.246 24.122C199.516 24.78 199.624 25.5617 199.568 26.467H198.105V25.935C198.095 25.0577 197.927 24.409 197.601 23.989C197.279 23.569 196.786 23.359 196.124 23.359C195.391 23.359 194.84 23.59 194.472 24.052C194.103 24.514 193.919 25.1813 193.919 26.054C193.919 26.8847 194.103 27.5287 194.472 27.986C194.84 28.4387 195.372 28.665 196.068 28.665C196.525 28.665 196.919 28.5623 197.251 28.357C197.587 28.147 197.848 27.8483 198.035 27.461L199.47 27.916C199.176 28.5927 198.73 29.1177 198.133 29.491C197.535 29.8597 196.87 30.044 196.138 30.044ZM193.443 26.467V25.326H198.84V26.467H193.443ZM201.138 29.834V22.274H202.44V24.108L202.258 23.87C202.352 23.6273 202.473 23.4057 202.622 23.205C202.772 22.9997 202.944 22.8317 203.14 22.701C203.332 22.561 203.544 22.4537 203.777 22.379C204.015 22.2997 204.258 22.253 204.505 22.239C204.753 22.2203 204.991 22.232 205.219 22.274V23.646C204.972 23.5807 204.697 23.562 204.393 23.59C204.095 23.618 203.819 23.7137 203.567 23.877C203.329 24.031 203.14 24.2177 203 24.437C202.865 24.6563 202.767 24.9013 202.706 25.172C202.646 25.438 202.615 25.7203 202.615 26.019V29.834H201.138Z" fill="#684D5D"/>
</g>
<circle cx="216" cy="24.834" r="2" fill="#AC0F65" fill-opacity="0.32"/>
<g filter="url(#filter2_b_743_10773)">
<path d="M230.963 32.026C230.334 32.026 229.731 31.9087 229.155 31.674C228.59 31.4393 228.099 31.1087 227.683 30.682C227.278 30.2447 227 29.7273 226.851 29.13L228.739 28.458C228.92 29.002 229.214 29.4073 229.619 29.674C230.024 29.93 230.472 30.058 230.963 30.058C231.368 30.058 231.726 29.9727 232.035 29.802C232.355 29.6207 232.6 29.3753 232.771 29.066C232.942 28.746 233.027 28.378 233.027 27.962C233.027 27.546 232.936 27.1833 232.755 26.874C232.584 26.5647 232.344 26.3247 232.035 26.154C231.726 25.9727 231.368 25.882 230.963 25.882C230.547 25.882 230.168 25.9727 229.827 26.154C229.496 26.3353 229.256 26.5967 229.107 26.938L227.331 26.538L228.275 19.914H234.771V21.754H229.139L229.955 20.81L229.283 25.802L228.659 25.29C228.958 24.8527 229.32 24.5327 229.747 24.33C230.184 24.1273 230.712 24.026 231.331 24.026C232.12 24.026 232.803 24.1967 233.379 24.538C233.966 24.8793 234.419 25.3433 234.739 25.93C235.059 26.5167 235.219 27.194 235.219 27.962C235.219 28.73 235.032 29.4233 234.659 30.042C234.286 30.6607 233.779 31.146 233.139 31.498C232.499 31.85 231.774 32.026 230.963 32.026ZM238.503 31.834L248.167 19.914H250.407L240.743 31.834H238.503ZM240.359 25.962C239.772 25.962 239.239 25.8233 238.759 25.546C238.289 25.258 237.916 24.8793 237.639 24.41C237.361 23.9407 237.223 23.418 237.223 22.842C237.223 22.266 237.361 21.7433 237.639 21.274C237.916 20.794 238.289 20.4153 238.759 20.138C239.239 19.8607 239.772 19.722 240.359 19.722C240.956 19.722 241.489 19.8607 241.959 20.138C242.428 20.4153 242.801 20.794 243.079 21.274C243.356 21.7433 243.495 22.266 243.495 22.842C243.495 23.418 243.356 23.9407 243.079 24.41C242.801 24.8793 242.428 25.258 241.959 25.546C241.489 25.8233 240.956 25.962 240.359 25.962ZM240.359 24.346C240.679 24.346 240.945 24.2767 241.159 24.138C241.372 23.9887 241.532 23.802 241.639 23.578C241.756 23.3433 241.815 23.098 241.815 22.842C241.815 22.5753 241.756 22.33 241.639 22.106C241.532 21.882 241.372 21.6953 241.159 21.546C240.945 21.3967 240.679 21.322 240.359 21.322C240.06 21.322 239.799 21.3967 239.575 21.546C239.361 21.6953 239.196 21.8873 239.079 22.122C238.961 22.346 238.903 22.586 238.903 22.842C238.903 23.0873 238.961 23.3273 239.079 23.562C239.196 23.7967 239.361 23.9887 239.575 24.138C239.799 24.2767 240.06 24.346 240.359 24.346ZM248.487 32.026C247.9 32.026 247.367 31.8873 246.887 31.61C246.417 31.322 246.044 30.9433 245.767 30.474C245.489 30.0047 245.351 29.482 245.351 28.906C245.351 28.33 245.489 27.8073 245.767 27.338C246.044 26.858 246.417 26.4793 246.887 26.202C247.367 25.9247 247.9 25.786 248.487 25.786C249.084 25.786 249.617 25.9247 250.087 26.202C250.556 26.4793 250.929 26.858 251.207 27.338C251.484 27.8073 251.623 28.33 251.623 28.906C251.623 29.482 251.484 30.0047 251.207 30.474C250.929 30.9433 250.556 31.322 250.087 31.61C249.617 31.8873 249.084 32.026 248.487 32.026ZM248.487 30.41C248.796 30.41 249.057 30.3407 249.271 30.202C249.495 30.0527 249.66 29.866 249.767 29.642C249.884 29.4073 249.943 29.162 249.943 28.906C249.943 28.6393 249.884 28.394 249.767 28.17C249.66 27.946 249.495 27.7593 249.271 27.61C249.057 27.4607 248.796 27.386 248.487 27.386C248.188 27.386 247.927 27.4607 247.703 27.61C247.489 27.7593 247.324 27.9513 247.207 28.186C247.089 28.41 247.031 28.65 247.031 28.906C247.031 29.1513 247.089 29.3913 247.207 29.626C247.324 29.8607 247.489 30.0527 247.703 30.202C247.927 30.3407 248.188 30.41 248.487 30.41Z" fill="#EC008C"/>
</g>
</g>
<defs>
<filter id="filter0_b_743_10773" x="-2" y="-1.16602" width="347" height="52" filterUnits="userSpaceOnUse" color-interpolation-filters="sRGB">
<feFlood flood-opacity="0" result="BackgroundImageFix"/>
<feGaussianBlur in="BackgroundImageFix" stdDeviation="1"/>
<feComposite in2="SourceAlpha" operator="in" result="effect1_backgroundBlur_743_10773"/>
<feBlend mode="normal" in="SourceGraphic" in2="effect1_backgroundBlur_743_10773" result="shape"/>
</filter>
<filter id="filter1_b_743_10773" x="74.939" y="3.55099" width="146.28" height="45.853" filterUnits="userSpaceOnUse" color-interpolation-filters="sRGB">
<feFlood flood-opacity="0" result="BackgroundImageFix"/>
<feGaussianBlur in="BackgroundImageFix" stdDeviation="8"/>
<feComposite in2="SourceAlpha" operator="in" result="effect1_backgroundBlur_743_10773"/>
<feBlend mode="normal" in="SourceGraphic" in2="effect1_backgroundBlur_743_10773" result="shape"/>
</filter>
<filter id="filter2_b_743_10773" x="210.851" y="3.72198" width="56.7715" height="44.304" filterUnits="userSpaceOnUse" color-interpolation-filters="sRGB">
<feFlood flood-opacity="0" result="BackgroundImageFix"/>
<feGaussianBlur in="BackgroundImageFix" stdDeviation="8"/>
<feComposite in2="SourceAlpha" operator="in" result="effect1_backgroundBlur_743_10773"/>
<feBlend mode="normal" in="SourceGraphic" in2="effect1_backgroundBlur_743_10773" result="shape"/>
</filter>
<linearGradient id="paint0_linear_743_10773" x1="171.5" y1="0.833984" x2="171.5" y2="48.834" gradientUnits="userSpaceOnUse">
<stop stop-color="white"/>
<stop offset="1" stop-color="#DBDBDB"/>
</linearGradient>
</defs>
</svg>
