<svg width="168" height="49" viewBox="0 0 168 49" fill="none" xmlns="http://www.w3.org/2000/svg">
<g filter="url(#filter0_b_743_10783)">
<rect x="0.5" y="0.833984" width="167.5" height="48" rx="24" fill="#E1F3FD" fill-opacity="0.32"/>
<rect x="1.5" y="1.83398" width="165.5" height="46" rx="23" stroke="url(#paint0_linear_743_10783)" stroke-width="2"/>
<g filter="url(#filter1_b_743_10783)">
<path d="M46.4548 29.834L49.7308 19.754H51.8378L55.1138 29.834H53.5948L50.5778 20.636H50.9558L47.9738 29.834H46.4548ZM48.1558 27.559V26.187H53.4198V27.559H48.1558ZM59.6806 30.044C59.116 30.044 58.5886 29.9623 58.0986 29.799C57.6086 29.631 57.198 29.3697 56.8666 29.015C56.61 28.7303 56.4186 28.4177 56.2926 28.077C56.1713 27.7317 56.1036 27.3653 56.0896 26.978C56.0896 26.6 56.1433 26.2337 56.2506 25.879C56.3626 25.5197 56.5376 25.2 56.7756 24.92C56.883 24.7893 57.002 24.6773 57.1326 24.584C57.2633 24.486 57.394 24.3997 57.5246 24.325C57.226 23.9983 56.9996 23.688 56.8456 23.394C56.6916 23.0953 56.6146 22.743 56.6146 22.337C56.6146 21.7677 56.764 21.2567 57.0626 20.804C57.3613 20.3467 57.7696 20.0177 58.2876 19.817C58.5256 19.719 58.7683 19.6537 59.0156 19.621C59.263 19.5837 59.5033 19.565 59.7366 19.565C60.1566 19.565 60.5626 19.6257 60.9546 19.747C61.3466 19.8683 61.6826 20.0667 61.9626 20.342C62.14 20.5053 62.2893 20.6897 62.4106 20.895C62.5366 21.1003 62.6323 21.3103 62.6976 21.525L61.2556 21.861C61.1763 21.637 61.0456 21.448 60.8636 21.294C60.7096 21.1587 60.53 21.0677 60.3246 21.021C60.124 20.9697 59.9233 20.944 59.7226 20.944C59.3913 20.944 59.0926 21.007 58.8266 21.133C58.584 21.2497 58.402 21.4107 58.2806 21.616C58.1593 21.8167 58.0986 22.0593 58.0986 22.344C58.0986 22.596 58.143 22.799 58.2316 22.953C58.3203 23.107 58.4393 23.268 58.5886 23.436C58.6773 23.534 58.7823 23.639 58.9036 23.751C59.0296 23.863 59.158 23.9797 59.2886 24.101L62.0326 26.656C62.042 26.5533 62.049 26.4437 62.0536 26.327C62.0583 26.2103 62.0606 26.0983 62.0606 25.991L62.0536 24.682H63.3626V26.411C63.3626 26.705 63.3533 26.971 63.3346 27.209C63.3206 27.4423 63.2926 27.6337 63.2506 27.783L64.5106 28.952L63.5656 29.967L62.5506 29.001C62.336 29.2157 62.0956 29.3977 61.8296 29.547C61.5636 29.6917 61.2953 29.799 61.0246 29.869C60.796 29.939 60.5696 29.9857 60.3456 30.009C60.1263 30.0323 59.9046 30.044 59.6806 30.044ZM59.7226 28.644C59.9093 28.644 60.082 28.6347 60.2406 28.616C60.3993 28.5927 60.551 28.5507 60.6956 28.49C60.8916 28.4107 61.0503 28.329 61.1716 28.245C61.2976 28.161 61.4026 28.0793 61.4866 28L58.6166 25.368C58.472 25.4193 58.3366 25.487 58.2106 25.571C58.0893 25.6503 57.9843 25.7437 57.8956 25.851C57.7883 25.9863 57.7066 26.145 57.6506 26.327C57.5993 26.5043 57.576 26.6957 57.5806 26.901C57.5806 27.125 57.6156 27.3303 57.6856 27.517C57.7603 27.699 57.856 27.8623 57.9726 28.007C58.1593 28.231 58.4183 28.3943 58.7496 28.497C59.0856 28.595 59.41 28.644 59.7226 28.644ZM65.6392 29.834V19.754H68.7962C68.8895 19.754 69.0622 19.7563 69.3142 19.761C69.5708 19.7657 69.8158 19.7843 70.0492 19.817C70.8378 19.915 71.5005 20.1973 72.0372 20.664C72.5785 21.1307 72.9868 21.7233 73.2622 22.442C73.5375 23.156 73.6752 23.94 73.6752 24.794C73.6752 25.6527 73.5375 26.4413 73.2622 27.16C72.9868 27.874 72.5785 28.4643 72.0372 28.931C71.5005 29.393 70.8378 29.673 70.0492 29.771C69.8158 29.8037 69.5708 29.8223 69.3142 29.827C69.0622 29.8317 68.8895 29.834 68.7962 29.834H65.6392ZM67.1372 28.441H68.7962C68.9548 28.441 69.1438 28.4363 69.3632 28.427C69.5825 28.4177 69.7762 28.399 69.9442 28.371C70.4575 28.273 70.8728 28.0513 71.1902 27.706C71.5122 27.356 71.7478 26.9267 71.8972 26.418C72.0465 25.9093 72.1212 25.368 72.1212 24.794C72.1212 24.2013 72.0442 23.653 71.8902 23.149C71.7362 22.6403 71.4982 22.2157 71.1762 21.875C70.8588 21.5297 70.4482 21.3103 69.9442 21.217C69.7762 21.1843 69.5802 21.1657 69.3562 21.161C69.1368 21.1517 68.9502 21.147 68.7962 21.147H67.1372V28.441Z" fill="#684D5D"/>
</g>
<circle cx="84.75" cy="24.834" r="2" fill="#AC0F65" fill-opacity="0.32"/>
<g filter="url(#filter2_b_743_10783)">
<path d="M101.196 31.834V29.21H95.7244V27.386L101.068 19.914H103.34V27.386H105.084V29.21H103.34V31.834H101.196ZM97.3244 28.17L96.9404 27.386H101.196V21.626L101.756 21.802L97.3244 28.17ZM108.065 31.834L117.729 19.914H119.969L110.305 31.834H108.065ZM109.921 25.962C109.335 25.962 108.801 25.8233 108.321 25.546C107.852 25.258 107.479 24.8793 107.201 24.41C106.924 23.9407 106.785 23.418 106.785 22.842C106.785 22.266 106.924 21.7433 107.201 21.274C107.479 20.794 107.852 20.4153 108.321 20.138C108.801 19.8607 109.335 19.722 109.921 19.722C110.519 19.722 111.052 19.8607 111.521 20.138C111.991 20.4153 112.364 20.794 112.641 21.274C112.919 21.7433 113.057 22.266 113.057 22.842C113.057 23.418 112.919 23.9407 112.641 24.41C112.364 24.8793 111.991 25.258 111.521 25.546C111.052 25.8233 110.519 25.962 109.921 25.962ZM109.921 24.346C110.241 24.346 110.508 24.2767 110.721 24.138C110.935 23.9887 111.095 23.802 111.201 23.578C111.319 23.3433 111.377 23.098 111.377 22.842C111.377 22.5753 111.319 22.33 111.201 22.106C111.095 21.882 110.935 21.6953 110.721 21.546C110.508 21.3967 110.241 21.322 109.921 21.322C109.623 21.322 109.361 21.3967 109.137 21.546C108.924 21.6953 108.759 21.8873 108.641 22.122C108.524 22.346 108.465 22.586 108.465 22.842C108.465 23.0873 108.524 23.3273 108.641 23.562C108.759 23.7967 108.924 23.9887 109.137 24.138C109.361 24.2767 109.623 24.346 109.921 24.346ZM118.049 32.026C117.463 32.026 116.929 31.8873 116.449 31.61C115.98 31.322 115.607 30.9433 115.329 30.474C115.052 30.0047 114.913 29.482 114.913 28.906C114.913 28.33 115.052 27.8073 115.329 27.338C115.607 26.858 115.98 26.4793 116.449 26.202C116.929 25.9247 117.463 25.786 118.049 25.786C118.647 25.786 119.18 25.9247 119.649 26.202C120.119 26.4793 120.492 26.858 120.769 27.338C121.047 27.8073 121.185 28.33 121.185 28.906C121.185 29.482 121.047 30.0047 120.769 30.474C120.492 30.9433 120.119 31.322 119.649 31.61C119.18 31.8873 118.647 32.026 118.049 32.026ZM118.049 30.41C118.359 30.41 118.62 30.3407 118.833 30.202C119.057 30.0527 119.223 29.866 119.329 29.642C119.447 29.4073 119.505 29.162 119.505 28.906C119.505 28.6393 119.447 28.394 119.329 28.17C119.223 27.946 119.057 27.7593 118.833 27.61C118.62 27.4607 118.359 27.386 118.049 27.386C117.751 27.386 117.489 27.4607 117.265 27.61C117.052 27.7593 116.887 27.9513 116.769 28.186C116.652 28.41 116.593 28.65 116.593 28.906C116.593 29.1513 116.652 29.3913 116.769 29.626C116.887 29.8607 117.052 30.0527 117.265 30.202C117.489 30.3407 117.751 30.41 118.049 30.41Z" fill="#EC008C"/>
</g>
</g>
<defs>
<filter id="filter0_b_743_10783" x="-1.5" y="-1.16602" width="171.5" height="52" filterUnits="userSpaceOnUse" color-interpolation-filters="sRGB">
<feFlood flood-opacity="0" result="BackgroundImageFix"/>
<feGaussianBlur in="BackgroundImageFix" stdDeviation="1"/>
<feComposite in2="SourceAlpha" operator="in" result="effect1_backgroundBlur_743_10783"/>
<feBlend mode="normal" in="SourceGraphic" in2="effect1_backgroundBlur_743_10783" result="shape"/>
</filter>
<filter id="filter1_b_743_10783" x="30.4546" y="3.56499" width="59.2207" height="42.479" filterUnits="userSpaceOnUse" color-interpolation-filters="sRGB">
<feFlood flood-opacity="0" result="BackgroundImageFix"/>
<feGaussianBlur in="BackgroundImageFix" stdDeviation="8"/>
<feComposite in2="SourceAlpha" operator="in" result="effect1_backgroundBlur_743_10783"/>
<feBlend mode="normal" in="SourceGraphic" in2="effect1_backgroundBlur_743_10783" result="shape"/>
</filter>
<filter id="filter2_b_743_10783" x="79.7246" y="3.72198" width="57.4604" height="44.304" filterUnits="userSpaceOnUse" color-interpolation-filters="sRGB">
<feFlood flood-opacity="0" result="BackgroundImageFix"/>
<feGaussianBlur in="BackgroundImageFix" stdDeviation="8"/>
<feComposite in2="SourceAlpha" operator="in" result="effect1_backgroundBlur_743_10783"/>
<feBlend mode="normal" in="SourceGraphic" in2="effect1_backgroundBlur_743_10783" result="shape"/>
</filter>
<linearGradient id="paint0_linear_743_10783" x1="84.25" y1="0.833984" x2="84.25" y2="48.834" gradientUnits="userSpaceOnUse">
<stop stop-color="white"/>
<stop offset="1" stop-color="#DBDBDB"/>
</linearGradient>
</defs>
</svg>
