<svg width="168" height="49" viewBox="0 0 168 49" fill="none" xmlns="http://www.w3.org/2000/svg">
<g filter="url(#filter0_b_743_10788)">
<rect y="0.833984" width="167.5" height="48" rx="24" fill="#E1F3FD" fill-opacity="0.32"/>
<rect x="1" y="1.83398" width="165.5" height="46" rx="23" stroke="url(#paint0_linear_743_10788)" stroke-width="2"/>
<g filter="url(#filter1_b_743_10788)">
<path d="M45.8123 29.834V21.133H42.4593V19.754H50.6283V21.133H47.2753V29.834H45.8123ZM53.9805 30.044C53.2291 30.044 52.5688 29.8807 51.9995 29.554C51.4348 29.2227 50.9938 28.763 50.6765 28.175C50.3638 27.5823 50.2075 26.8963 50.2075 26.117C50.2075 25.291 50.3615 24.5747 50.6695 23.968C50.9821 23.3613 51.4161 22.8923 51.9715 22.561C52.5268 22.2297 53.1731 22.064 53.9105 22.064C54.6805 22.064 55.3361 22.2437 55.8775 22.603C56.4188 22.9577 56.8225 23.464 57.0885 24.122C57.3591 24.78 57.4665 25.5617 57.4105 26.467H55.9475V25.935C55.9381 25.0577 55.7701 24.409 55.4435 23.989C55.1215 23.569 54.6291 23.359 53.9665 23.359C53.2338 23.359 52.6831 23.59 52.3145 24.052C51.9458 24.514 51.7615 25.1813 51.7615 26.054C51.7615 26.8847 51.9458 27.5287 52.3145 27.986C52.6831 28.4387 53.2151 28.665 53.9105 28.665C54.3678 28.665 54.7621 28.5623 55.0935 28.357C55.4295 28.147 55.6908 27.8483 55.8775 27.461L57.3125 27.916C57.0185 28.5927 56.5728 29.1177 55.9755 29.491C55.3781 29.8597 54.7131 30.044 53.9805 30.044ZM51.2855 26.467V25.326H56.6825V26.467H51.2855ZM60.9793 30.044C60.4193 30.044 59.9503 29.9413 59.5723 29.736C59.1943 29.526 58.9073 29.2507 58.7113 28.91C58.5199 28.5647 58.4243 28.1867 58.4243 27.776C58.4243 27.3933 58.4919 27.0573 58.6273 26.768C58.7626 26.4787 58.9633 26.2337 59.2293 26.033C59.4953 25.8277 59.8219 25.662 60.2093 25.536C60.5453 25.438 60.9256 25.3517 61.3503 25.277C61.7749 25.2023 62.2206 25.1323 62.6873 25.067C63.1586 25.0017 63.6253 24.9363 64.0873 24.871L63.5553 25.165C63.5646 24.5723 63.4386 24.1337 63.1773 23.849C62.9206 23.5597 62.4773 23.415 61.8473 23.415C61.4506 23.415 61.0866 23.5083 60.7553 23.695C60.4239 23.877 60.1929 24.1803 60.0623 24.605L58.6973 24.185C58.8839 23.5363 59.2386 23.0207 59.7613 22.638C60.2886 22.2553 60.9886 22.064 61.8613 22.064C62.5379 22.064 63.1259 22.1807 63.6253 22.414C64.1293 22.6427 64.4979 23.0067 64.7313 23.506C64.8526 23.7533 64.9273 24.0147 64.9553 24.29C64.9833 24.5653 64.9973 24.8617 64.9973 25.179V29.834H63.7023V28.105L63.9543 28.329C63.6416 28.9077 63.2426 29.3393 62.7573 29.624C62.2766 29.904 61.6839 30.044 60.9793 30.044ZM61.2383 28.847C61.6536 28.847 62.0106 28.7747 62.3093 28.63C62.6079 28.4807 62.8483 28.2917 63.0303 28.063C63.2123 27.8343 63.3313 27.5963 63.3873 27.349C63.4666 27.125 63.5109 26.873 63.5203 26.593C63.5343 26.313 63.5413 26.089 63.5413 25.921L64.0173 26.096C63.5553 26.166 63.1353 26.229 62.7573 26.285C62.3793 26.341 62.0363 26.397 61.7283 26.453C61.4249 26.5043 61.1543 26.5673 60.9163 26.642C60.7156 26.712 60.5359 26.796 60.3773 26.894C60.2233 26.992 60.0996 27.111 60.0063 27.251C59.9176 27.391 59.8733 27.5613 59.8733 27.762C59.8733 27.958 59.9223 28.14 60.0203 28.308C60.1183 28.4713 60.2676 28.602 60.4683 28.7C60.6689 28.798 60.9256 28.847 61.2383 28.847ZM75.873 29.834L75.88 25.123C75.88 24.577 75.74 24.1523 75.46 23.849C75.18 23.541 74.8113 23.387 74.354 23.387C74.074 23.387 73.8173 23.4523 73.584 23.583C73.3553 23.709 73.1686 23.9003 73.024 24.157C72.884 24.409 72.814 24.7263 72.814 25.109L72.107 24.752C72.0976 24.22 72.2096 23.7533 72.443 23.352C72.681 22.9507 73.003 22.6403 73.409 22.421C73.815 22.197 74.27 22.085 74.774 22.085C75.5906 22.085 76.223 22.33 76.671 22.82C77.119 23.31 77.343 23.961 77.343 24.773L77.336 29.834H75.873ZM66.808 29.834V22.274H68.11V24.458H68.278V29.834H66.808ZM71.344 29.834L71.351 25.151C71.351 24.6003 71.211 24.1687 70.931 23.856C70.6556 23.5433 70.2846 23.387 69.818 23.387C69.356 23.387 68.9826 23.5457 68.698 23.863C68.418 24.1803 68.278 24.5957 68.278 25.109L67.578 24.661C67.578 24.1663 67.697 23.7253 67.935 23.338C68.173 22.9507 68.495 22.645 68.901 22.421C69.307 22.197 69.7666 22.085 70.28 22.085C70.8166 22.085 71.274 22.1993 71.652 22.428C72.03 22.652 72.317 22.967 72.513 23.373C72.7136 23.779 72.814 24.2503 72.814 24.787L72.807 29.834H71.344Z" fill="#684D5D"/>
</g>
<circle cx="88.25" cy="24.834" r="2" fill="#AC0F65" fill-opacity="0.32"/>
<g filter="url(#filter2_b_743_10788)">
<path d="M103.384 32.026C102.52 32.026 101.768 31.866 101.128 31.546C100.499 31.2153 100.008 30.7727 99.6561 30.218C99.3148 29.6633 99.1441 29.0553 99.1441 28.394C99.1441 27.6153 99.3521 26.9593 99.7681 26.426C100.184 25.882 100.787 25.482 101.576 25.226L101.448 25.754C100.883 25.5727 100.435 25.2207 100.104 24.698C99.7841 24.1753 99.6241 23.5993 99.6241 22.97C99.6241 22.3407 99.7841 21.7807 100.104 21.29C100.424 20.7993 100.867 20.4153 101.432 20.138C101.997 19.8607 102.648 19.722 103.384 19.722C104.109 19.722 104.749 19.8607 105.304 20.138C105.869 20.4153 106.312 20.7993 106.632 21.29C106.963 21.7807 107.128 22.3407 107.128 22.97C107.128 23.61 106.963 24.1913 106.632 24.714C106.312 25.226 105.869 25.578 105.304 25.77L105.192 25.21C105.981 25.4873 106.584 25.898 107 26.442C107.416 26.9753 107.624 27.6313 107.624 28.41C107.624 29.0713 107.448 29.6793 107.096 30.234C106.755 30.778 106.264 31.2153 105.624 31.546C104.995 31.866 104.248 32.026 103.384 32.026ZM103.384 30.186C103.8 30.186 104.163 30.1113 104.472 29.962C104.781 29.802 105.021 29.5833 105.192 29.306C105.363 29.018 105.448 28.6927 105.448 28.33C105.448 27.9567 105.363 27.6367 105.192 27.37C105.021 27.0927 104.781 26.8793 104.472 26.73C104.163 26.57 103.8 26.49 103.384 26.49C102.968 26.49 102.605 26.57 102.296 26.73C101.997 26.8793 101.763 27.0927 101.592 27.37C101.421 27.6367 101.336 27.9567 101.336 28.33C101.336 28.6927 101.421 29.018 101.592 29.306C101.763 29.5833 101.997 29.802 102.296 29.962C102.605 30.1113 102.968 30.186 103.384 30.186ZM103.384 24.65C103.693 24.65 103.965 24.5807 104.2 24.442C104.435 24.3033 104.616 24.122 104.744 23.898C104.883 23.6633 104.952 23.3967 104.952 23.098C104.952 22.7993 104.883 22.538 104.744 22.314C104.616 22.0793 104.435 21.898 104.2 21.77C103.965 21.6313 103.693 21.562 103.384 21.562C103.075 21.562 102.797 21.6313 102.552 21.77C102.317 21.898 102.131 22.0793 101.992 22.314C101.864 22.538 101.8 22.7993 101.8 23.098C101.8 23.3967 101.864 23.6633 101.992 23.898C102.131 24.122 102.317 24.3033 102.552 24.442C102.797 24.5807 103.075 24.65 103.384 24.65ZM110.886 31.834L120.55 19.914H122.79L113.126 31.834H110.886ZM112.742 25.962C112.155 25.962 111.622 25.8233 111.142 25.546C110.672 25.258 110.299 24.8793 110.022 24.41C109.744 23.9407 109.606 23.418 109.606 22.842C109.606 22.266 109.744 21.7433 110.022 21.274C110.299 20.794 110.672 20.4153 111.142 20.138C111.622 19.8607 112.155 19.722 112.742 19.722C113.339 19.722 113.872 19.8607 114.342 20.138C114.811 20.4153 115.184 20.794 115.462 21.274C115.739 21.7433 115.878 22.266 115.878 22.842C115.878 23.418 115.739 23.9407 115.462 24.41C115.184 24.8793 114.811 25.258 114.342 25.546C113.872 25.8233 113.339 25.962 112.742 25.962ZM112.742 24.346C113.062 24.346 113.328 24.2767 113.542 24.138C113.755 23.9887 113.915 23.802 114.022 23.578C114.139 23.3433 114.198 23.098 114.198 22.842C114.198 22.5753 114.139 22.33 114.022 22.106C113.915 21.882 113.755 21.6953 113.542 21.546C113.328 21.3967 113.062 21.322 112.742 21.322C112.443 21.322 112.182 21.3967 111.958 21.546C111.744 21.6953 111.579 21.8873 111.462 22.122C111.344 22.346 111.286 22.586 111.286 22.842C111.286 23.0873 111.344 23.3273 111.462 23.562C111.579 23.7967 111.744 23.9887 111.958 24.138C112.182 24.2767 112.443 24.346 112.742 24.346ZM120.87 32.026C120.283 32.026 119.75 31.8873 119.27 31.61C118.8 31.322 118.427 30.9433 118.15 30.474C117.872 30.0047 117.734 29.482 117.734 28.906C117.734 28.33 117.872 27.8073 118.15 27.338C118.427 26.858 118.8 26.4793 119.27 26.202C119.75 25.9247 120.283 25.786 120.87 25.786C121.467 25.786 122 25.9247 122.47 26.202C122.939 26.4793 123.312 26.858 123.59 27.338C123.867 27.8073 124.006 28.33 124.006 28.906C124.006 29.482 123.867 30.0047 123.59 30.474C123.312 30.9433 122.939 31.322 122.47 31.61C122 31.8873 121.467 32.026 120.87 32.026ZM120.87 30.41C121.179 30.41 121.44 30.3407 121.654 30.202C121.878 30.0527 122.043 29.866 122.15 29.642C122.267 29.4073 122.326 29.162 122.326 28.906C122.326 28.6393 122.267 28.394 122.15 28.17C122.043 27.946 121.878 27.7593 121.654 27.61C121.44 27.4607 121.179 27.386 120.87 27.386C120.571 27.386 120.31 27.4607 120.086 27.61C119.872 27.7593 119.707 27.9513 119.59 28.186C119.472 28.41 119.414 28.65 119.414 28.906C119.414 29.1513 119.472 29.3913 119.59 29.626C119.707 29.8607 119.872 30.0527 120.086 30.202C120.31 30.3407 120.571 30.41 120.87 30.41Z" fill="#EC008C"/>
</g>
</g>
<defs>
<filter id="filter0_b_743_10788" x="-2" y="-1.16602" width="171.5" height="52" filterUnits="userSpaceOnUse" color-interpolation-filters="sRGB">
<feFlood flood-opacity="0" result="BackgroundImageFix"/>
<feGaussianBlur in="BackgroundImageFix" stdDeviation="1"/>
<feComposite in2="SourceAlpha" operator="in" result="effect1_backgroundBlur_743_10788"/>
<feBlend mode="normal" in="SourceGraphic" in2="effect1_backgroundBlur_743_10788" result="shape"/>
</filter>
<filter id="filter1_b_743_10788" x="26.4595" y="3.754" width="66.8833" height="42.29" filterUnits="userSpaceOnUse" color-interpolation-filters="sRGB">
<feFlood flood-opacity="0" result="BackgroundImageFix"/>
<feGaussianBlur in="BackgroundImageFix" stdDeviation="8"/>
<feComposite in2="SourceAlpha" operator="in" result="effect1_backgroundBlur_743_10788"/>
<feBlend mode="normal" in="SourceGraphic" in2="effect1_backgroundBlur_743_10788" result="shape"/>
</filter>
<filter id="filter2_b_743_10788" x="83.144" y="3.72198" width="56.8613" height="44.304" filterUnits="userSpaceOnUse" color-interpolation-filters="sRGB">
<feFlood flood-opacity="0" result="BackgroundImageFix"/>
<feGaussianBlur in="BackgroundImageFix" stdDeviation="8"/>
<feComposite in2="SourceAlpha" operator="in" result="effect1_backgroundBlur_743_10788"/>
<feBlend mode="normal" in="SourceGraphic" in2="effect1_backgroundBlur_743_10788" result="shape"/>
</filter>
<linearGradient id="paint0_linear_743_10788" x1="83.75" y1="0.833984" x2="83.75" y2="48.834" gradientUnits="userSpaceOnUse">
<stop stop-color="white"/>
<stop offset="1" stop-color="#DBDBDB"/>
</linearGradient>
</defs>
</svg>
