<svg width="168" height="49" viewBox="0 0 168 49" fill="none" xmlns="http://www.w3.org/2000/svg">
<g filter="url(#filter0_b_743_10763)">
<rect y="0.833984" width="167.5" height="48" rx="24" fill="#E1F3FD" fill-opacity="0.32"/>
<rect x="1" y="1.83398" width="165.5" height="46" rx="23" stroke="url(#paint0_linear_743_10763)" stroke-width="2"/>
<g filter="url(#filter1_b_743_10763)">
<path d="M14.8101 29.834V19.754H18.8841C18.9821 19.754 19.1034 19.7587 19.2481 19.768C19.3927 19.7727 19.5304 19.7867 19.6611 19.81C20.2211 19.8987 20.6877 20.09 21.0611 20.384C21.4391 20.678 21.7214 21.049 21.9081 21.497C22.0947 21.945 22.1881 22.4397 22.1881 22.981C22.1881 23.7837 21.9827 24.4767 21.5721 25.06C21.1614 25.6387 20.5454 26.0003 19.7241 26.145L19.1291 26.215H16.2731V29.834H14.8101ZM20.7041 29.834L18.7161 25.732L20.1931 25.354L22.3771 29.834H20.7041ZM16.2731 24.829H18.8281C18.9214 24.829 19.0241 24.8243 19.1361 24.815C19.2527 24.8057 19.3624 24.7893 19.4651 24.766C19.7637 24.696 20.0041 24.5677 20.1861 24.381C20.3681 24.1897 20.4987 23.9703 20.5781 23.723C20.6574 23.4757 20.6971 23.2283 20.6971 22.981C20.6971 22.7337 20.6574 22.4887 20.5781 22.246C20.4987 21.9987 20.3681 21.7817 20.1861 21.595C20.0041 21.4037 19.7637 21.273 19.4651 21.203C19.3624 21.175 19.2527 21.1563 19.1361 21.147C19.0241 21.1377 18.9214 21.133 18.8281 21.133H16.2731V24.829ZM27.2685 30.044C26.5172 30.044 25.8569 29.8807 25.2875 29.554C24.7229 29.2227 24.2819 28.763 23.9645 28.175C23.6519 27.5823 23.4955 26.8963 23.4955 26.117C23.4955 25.291 23.6495 24.5747 23.9575 23.968C24.2702 23.3613 24.7042 22.8923 25.2595 22.561C25.8149 22.2297 26.4612 22.064 27.1985 22.064C27.9685 22.064 28.6242 22.2437 29.1655 22.603C29.7069 22.9577 30.1105 23.464 30.3765 24.122C30.6472 24.78 30.7545 25.5617 30.6985 26.467H29.2355V25.935C29.2262 25.0577 29.0582 24.409 28.7315 23.989C28.4095 23.569 27.9172 23.359 27.2545 23.359C26.5219 23.359 25.9712 23.59 25.6025 24.052C25.2339 24.514 25.0495 25.1813 25.0495 26.054C25.0495 26.8847 25.2339 27.5287 25.6025 27.986C25.9712 28.4387 26.5032 28.665 27.1985 28.665C27.6559 28.665 28.0502 28.5623 28.3815 28.357C28.7175 28.147 28.9789 27.8483 29.1655 27.461L30.6005 27.916C30.3065 28.5927 29.8609 29.1177 29.2635 29.491C28.6662 29.8597 28.0012 30.044 27.2685 30.044ZM24.5735 26.467V25.326H29.9705V26.467H24.5735ZM33.6056 29.834L31.2956 22.267L32.7446 22.274L34.3266 27.461L35.9226 22.274H37.1826L38.7786 27.461L40.3606 22.274H41.8026L39.4926 29.834H38.3166L36.5526 24.36L34.7816 29.834H33.6056ZM44.7673 30.044C44.2073 30.044 43.7383 29.9413 43.3603 29.736C42.9823 29.526 42.6953 29.2507 42.4993 28.91C42.308 28.5647 42.2123 28.1867 42.2123 27.776C42.2123 27.3933 42.28 27.0573 42.4153 26.768C42.5507 26.4787 42.7513 26.2337 43.0173 26.033C43.2833 25.8277 43.61 25.662 43.9973 25.536C44.3333 25.438 44.7137 25.3517 45.1383 25.277C45.563 25.2023 46.0087 25.1323 46.4753 25.067C46.9467 25.0017 47.4133 24.9363 47.8753 24.871L47.3433 25.165C47.3527 24.5723 47.2267 24.1337 46.9653 23.849C46.7087 23.5597 46.2653 23.415 45.6353 23.415C45.2387 23.415 44.8747 23.5083 44.5433 23.695C44.212 23.877 43.981 24.1803 43.8503 24.605L42.4853 24.185C42.672 23.5363 43.0267 23.0207 43.5493 22.638C44.0767 22.2553 44.7767 22.064 45.6493 22.064C46.326 22.064 46.914 22.1807 47.4133 22.414C47.9173 22.6427 48.286 23.0067 48.5193 23.506C48.6407 23.7533 48.7153 24.0147 48.7433 24.29C48.7713 24.5653 48.7853 24.8617 48.7853 25.179V29.834H47.4903V28.105L47.7423 28.329C47.4297 28.9077 47.0307 29.3393 46.5453 29.624C46.0647 29.904 45.472 30.044 44.7673 30.044ZM45.0263 28.847C45.4417 28.847 45.7987 28.7747 46.0973 28.63C46.396 28.4807 46.6363 28.2917 46.8183 28.063C47.0003 27.8343 47.1193 27.5963 47.1753 27.349C47.2547 27.125 47.299 26.873 47.3083 26.593C47.3223 26.313 47.3293 26.089 47.3293 25.921L47.8053 26.096C47.3433 26.166 46.9233 26.229 46.5453 26.285C46.1673 26.341 45.8243 26.397 45.5163 26.453C45.213 26.5043 44.9423 26.5673 44.7043 26.642C44.5037 26.712 44.324 26.796 44.1653 26.894C44.0113 26.992 43.8877 27.111 43.7943 27.251C43.7057 27.391 43.6613 27.5613 43.6613 27.762C43.6613 27.958 43.7103 28.14 43.8083 28.308C43.9063 28.4713 44.0557 28.602 44.2563 28.7C44.457 28.798 44.7137 28.847 45.0263 28.847ZM50.603 29.834V22.274H51.905V24.108L51.723 23.87C51.8164 23.6273 51.9377 23.4057 52.087 23.205C52.2364 22.9997 52.409 22.8317 52.605 22.701C52.7964 22.561 53.0087 22.4537 53.242 22.379C53.48 22.2997 53.7227 22.253 53.97 22.239C54.2174 22.2203 54.4554 22.232 54.684 22.274V23.646C54.4367 23.5807 54.1614 23.562 53.858 23.59C53.5594 23.618 53.284 23.7137 53.032 23.877C52.794 24.031 52.605 24.2177 52.465 24.437C52.3297 24.6563 52.2317 24.9013 52.171 25.172C52.1104 25.438 52.08 25.7203 52.08 26.019V29.834H50.603ZM58.8834 30.044C58.1787 30.044 57.5697 29.869 57.0564 29.519C56.5477 29.169 56.1534 28.693 55.8734 28.091C55.5981 27.4843 55.4604 26.803 55.4604 26.047C55.4604 25.2863 55.6004 24.6073 55.8804 24.01C56.1604 23.408 56.5571 22.9343 57.0704 22.589C57.5884 22.239 58.2021 22.064 58.9114 22.064C59.6254 22.064 60.2251 22.239 60.7104 22.589C61.2004 22.9343 61.5691 23.408 61.8164 24.01C62.0684 24.612 62.1944 25.291 62.1944 26.047C62.1944 26.803 62.0684 27.482 61.8164 28.084C61.5644 28.686 61.1934 29.1643 60.7034 29.519C60.2134 29.869 59.6067 30.044 58.8834 30.044ZM59.0864 28.721C59.5671 28.721 59.9591 28.6067 60.2624 28.378C60.5657 28.1493 60.7874 27.8343 60.9274 27.433C61.0674 27.0317 61.1374 26.5697 61.1374 26.047C61.1374 25.5243 61.0651 25.0623 60.9204 24.661C60.7804 24.2597 60.5611 23.947 60.2624 23.723C59.9684 23.499 59.5927 23.387 59.1354 23.387C58.6501 23.387 58.2511 23.506 57.9384 23.744C57.6257 23.982 57.3924 24.3017 57.2384 24.703C57.0891 25.1043 57.0144 25.5523 57.0144 26.047C57.0144 26.5463 57.0891 26.999 57.2384 27.405C57.3924 27.8063 57.6211 28.126 57.9244 28.364C58.2324 28.602 58.6197 28.721 59.0864 28.721ZM61.1374 29.834V24.395H60.9694V19.754H62.4394V29.834H61.1374ZM67.2007 29.834V19.754H71.2747C71.3727 19.754 71.494 19.7587 71.6387 19.768C71.7834 19.7727 71.921 19.7867 72.0517 19.81C72.6117 19.8987 73.0784 20.09 73.4517 20.384C73.8297 20.678 74.112 21.049 74.2987 21.497C74.4854 21.945 74.5787 22.4397 74.5787 22.981C74.5787 23.527 74.4854 24.024 74.2987 24.472C74.112 24.92 73.8297 25.291 73.4517 25.585C73.0784 25.879 72.6117 26.0703 72.0517 26.159C71.921 26.1777 71.781 26.1917 71.6317 26.201C71.487 26.2103 71.368 26.215 71.2747 26.215H68.6637V29.834H67.2007ZM68.6637 24.829H71.2187C71.312 24.829 71.4147 24.8243 71.5267 24.815C71.6434 24.8057 71.753 24.7893 71.8557 24.766C72.1544 24.696 72.3947 24.5677 72.5767 24.381C72.7587 24.1897 72.8894 23.9703 72.9687 23.723C73.048 23.4757 73.0877 23.2283 73.0877 22.981C73.0877 22.7337 73.048 22.4887 72.9687 22.246C72.8894 21.9987 72.7587 21.7817 72.5767 21.595C72.3947 21.4037 72.1544 21.273 71.8557 21.203C71.753 21.175 71.6434 21.1563 71.5267 21.147C71.4147 21.1377 71.312 21.133 71.2187 21.133H68.6637V24.829ZM79.1653 30.044C78.4093 30.044 77.7537 29.8737 77.1983 29.533C76.643 29.1923 76.2137 28.7233 75.9103 28.126C75.6117 27.524 75.4623 26.831 75.4623 26.047C75.4623 25.2583 75.6163 24.5653 75.9243 23.968C76.2323 23.366 76.664 22.8993 77.2193 22.568C77.7747 22.232 78.4233 22.064 79.1653 22.064C79.9213 22.064 80.577 22.2343 81.1323 22.575C81.6877 22.9157 82.117 23.3847 82.4203 23.982C82.7237 24.5793 82.8753 25.2677 82.8753 26.047C82.8753 26.8357 82.7213 27.531 82.4133 28.133C82.11 28.7303 81.6807 29.1993 81.1253 29.54C80.57 29.876 79.9167 30.044 79.1653 30.044ZM79.1653 28.665C79.8887 28.665 80.4277 28.4223 80.7823 27.937C81.1417 27.447 81.3213 26.817 81.3213 26.047C81.3213 25.2583 81.1393 24.6283 80.7753 24.157C80.416 23.681 79.8793 23.443 79.1653 23.443C78.6753 23.443 78.2717 23.555 77.9543 23.779C77.637 23.9983 77.4013 24.304 77.2473 24.696C77.0933 25.0833 77.0163 25.5337 77.0163 26.047C77.0163 26.8403 77.1983 27.475 77.5623 27.951C77.9263 28.427 78.4607 28.665 79.1653 28.665ZM87.6966 30.044C86.9406 30.044 86.2849 29.8737 85.7296 29.533C85.1743 29.1923 84.7449 28.7233 84.4416 28.126C84.1429 27.524 83.9936 26.831 83.9936 26.047C83.9936 25.2583 84.1476 24.5653 84.4556 23.968C84.7636 23.366 85.1953 22.8993 85.7506 22.568C86.3059 22.232 86.9546 22.064 87.6966 22.064C88.4526 22.064 89.1083 22.2343 89.6636 22.575C90.2189 22.9157 90.6483 23.3847 90.9516 23.982C91.2549 24.5793 91.4066 25.2677 91.4066 26.047C91.4066 26.8357 91.2526 27.531 90.9446 28.133C90.6413 28.7303 90.2119 29.1993 89.6566 29.54C89.1013 29.876 88.4479 30.044 87.6966 30.044ZM87.6966 28.665C88.4199 28.665 88.9589 28.4223 89.3136 27.937C89.6729 27.447 89.8526 26.817 89.8526 26.047C89.8526 25.2583 89.6706 24.6283 89.3066 24.157C88.9473 23.681 88.4106 23.443 87.6966 23.443C87.2066 23.443 86.8029 23.555 86.4856 23.779C86.1683 23.9983 85.9326 24.304 85.7786 24.696C85.6246 25.0833 85.5476 25.5337 85.5476 26.047C85.5476 26.8403 85.7296 27.475 86.0936 27.951C86.4576 28.427 86.9919 28.665 87.6966 28.665ZM93.0848 29.834V19.544H94.5478V29.834H93.0848Z" fill="#684D5D"/>
</g>
<circle cx="105.75" cy="24.834" r="2" fill="#AC0F65" fill-opacity="0.32"/>
<g filter="url(#filter2_b_743_10763)">
<path d="M120.549 32.026C119.92 32.026 119.317 31.9087 118.741 31.674C118.176 31.4393 117.685 31.1087 117.269 30.682C116.864 30.2447 116.586 29.7273 116.437 29.13L118.325 28.458C118.506 29.002 118.8 29.4073 119.205 29.674C119.61 29.93 120.058 30.058 120.549 30.058C120.954 30.058 121.312 29.9727 121.621 29.802C121.941 29.6207 122.186 29.3753 122.357 29.066C122.528 28.746 122.613 28.378 122.613 27.962C122.613 27.546 122.522 27.1833 122.341 26.874C122.17 26.5647 121.93 26.3247 121.621 26.154C121.312 25.9727 120.954 25.882 120.549 25.882C120.133 25.882 119.754 25.9727 119.413 26.154C119.082 26.3353 118.842 26.5967 118.693 26.938L116.917 26.538L117.861 19.914H124.357V21.754H118.725L119.541 20.81L118.869 25.802L118.245 25.29C118.544 24.8527 118.906 24.5327 119.333 24.33C119.77 24.1273 120.298 24.026 120.917 24.026C121.706 24.026 122.389 24.1967 122.965 24.538C123.552 24.8793 124.005 25.3433 124.325 25.93C124.645 26.5167 124.805 27.194 124.805 27.962C124.805 28.73 124.618 29.4233 124.245 30.042C123.872 30.6607 123.365 31.146 122.725 31.498C122.085 31.85 121.36 32.026 120.549 32.026ZM131.305 32.026C130.355 32.026 129.523 31.77 128.809 31.258C128.094 30.746 127.534 30.026 127.129 29.098C126.734 28.17 126.537 27.0927 126.537 25.866C126.537 24.6287 126.734 23.5513 127.129 22.634C127.523 21.7167 128.078 21.002 128.793 20.49C129.507 19.978 130.339 19.722 131.289 19.722C132.259 19.722 133.097 19.978 133.801 20.49C134.515 21.002 135.075 21.722 135.481 22.65C135.886 23.5673 136.089 24.6393 136.089 25.866C136.089 27.0927 135.886 28.17 135.481 29.098C135.086 30.0153 134.531 30.7353 133.817 31.258C133.102 31.77 132.265 32.026 131.305 32.026ZM131.321 30.042C131.865 30.042 132.329 29.8767 132.713 29.546C133.097 29.2047 133.39 28.7247 133.593 28.106C133.806 27.4767 133.913 26.73 133.913 25.866C133.913 25.002 133.806 24.2607 133.593 23.642C133.39 23.0127 133.091 22.5327 132.697 22.202C132.313 21.8713 131.843 21.706 131.289 21.706C130.755 21.706 130.297 21.8713 129.913 22.202C129.529 22.5327 129.23 23.0127 129.017 23.642C128.814 24.2607 128.713 25.002 128.713 25.866C128.713 26.7193 128.814 27.4607 129.017 28.09C129.23 28.7087 129.529 29.1887 129.913 29.53C130.307 29.8713 130.777 30.042 131.321 30.042ZM139.417 31.834L149.081 19.914H151.321L141.657 31.834H139.417ZM141.273 25.962C140.686 25.962 140.153 25.8233 139.673 25.546C139.203 25.258 138.83 24.8793 138.553 24.41C138.275 23.9407 138.137 23.418 138.137 22.842C138.137 22.266 138.275 21.7433 138.553 21.274C138.83 20.794 139.203 20.4153 139.673 20.138C140.153 19.8607 140.686 19.722 141.273 19.722C141.87 19.722 142.403 19.8607 142.873 20.138C143.342 20.4153 143.715 20.794 143.993 21.274C144.27 21.7433 144.409 22.266 144.409 22.842C144.409 23.418 144.27 23.9407 143.993 24.41C143.715 24.8793 143.342 25.258 142.873 25.546C142.403 25.8233 141.87 25.962 141.273 25.962ZM141.273 24.346C141.593 24.346 141.859 24.2767 142.073 24.138C142.286 23.9887 142.446 23.802 142.553 23.578C142.67 23.3433 142.729 23.098 142.729 22.842C142.729 22.5753 142.67 22.33 142.553 22.106C142.446 21.882 142.286 21.6953 142.073 21.546C141.859 21.3967 141.593 21.322 141.273 21.322C140.974 21.322 140.713 21.3967 140.489 21.546C140.275 21.6953 140.11 21.8873 139.993 22.122C139.875 22.346 139.817 22.586 139.817 22.842C139.817 23.0873 139.875 23.3273 139.993 23.562C140.11 23.7967 140.275 23.9887 140.489 24.138C140.713 24.2767 140.974 24.346 141.273 24.346ZM149.401 32.026C148.814 32.026 148.281 31.8873 147.801 31.61C147.331 31.322 146.958 30.9433 146.681 30.474C146.403 30.0047 146.265 29.482 146.265 28.906C146.265 28.33 146.403 27.8073 146.681 27.338C146.958 26.858 147.331 26.4793 147.801 26.202C148.281 25.9247 148.814 25.786 149.401 25.786C149.998 25.786 150.531 25.9247 151.001 26.202C151.47 26.4793 151.843 26.858 152.121 27.338C152.398 27.8073 152.537 28.33 152.537 28.906C152.537 29.482 152.398 30.0047 152.121 30.474C151.843 30.9433 151.47 31.322 151.001 31.61C150.531 31.8873 149.998 32.026 149.401 32.026ZM149.401 30.41C149.71 30.41 149.971 30.3407 150.185 30.202C150.409 30.0527 150.574 29.866 150.681 29.642C150.798 29.4073 150.857 29.162 150.857 28.906C150.857 28.6393 150.798 28.394 150.681 28.17C150.574 27.946 150.409 27.7593 150.185 27.61C149.971 27.4607 149.71 27.386 149.401 27.386C149.102 27.386 148.841 27.4607 148.617 27.61C148.403 27.7593 148.238 27.9513 148.121 28.186C148.003 28.41 147.945 28.65 147.945 28.906C147.945 29.1513 148.003 29.3913 148.121 29.626C148.238 29.8607 148.403 30.0527 148.617 30.202C148.841 30.3407 149.102 30.41 149.401 30.41Z" fill="#EC008C"/>
</g>
</g>
<defs>
<filter id="filter0_b_743_10763" x="-2" y="-1.16602" width="171.5" height="52" filterUnits="userSpaceOnUse" color-interpolation-filters="sRGB">
<feFlood flood-opacity="0" result="BackgroundImageFix"/>
<feGaussianBlur in="BackgroundImageFix" stdDeviation="1"/>
<feComposite in2="SourceAlpha" operator="in" result="effect1_backgroundBlur_743_10763"/>
<feBlend mode="normal" in="SourceGraphic" in2="effect1_backgroundBlur_743_10763" result="shape"/>
</filter>
<filter id="filter1_b_743_10763" x="-1.18994" y="3.54399" width="111.738" height="42.5" filterUnits="userSpaceOnUse" color-interpolation-filters="sRGB">
<feFlood flood-opacity="0" result="BackgroundImageFix"/>
<feGaussianBlur in="BackgroundImageFix" stdDeviation="8"/>
<feComposite in2="SourceAlpha" operator="in" result="effect1_backgroundBlur_743_10763"/>
<feBlend mode="normal" in="SourceGraphic" in2="effect1_backgroundBlur_743_10763" result="shape"/>
</filter>
<filter id="filter2_b_743_10763" x="100.437" y="3.72198" width="68.0996" height="44.304" filterUnits="userSpaceOnUse" color-interpolation-filters="sRGB">
<feFlood flood-opacity="0" result="BackgroundImageFix"/>
<feGaussianBlur in="BackgroundImageFix" stdDeviation="8"/>
<feComposite in2="SourceAlpha" operator="in" result="effect1_backgroundBlur_743_10763"/>
<feBlend mode="normal" in="SourceGraphic" in2="effect1_backgroundBlur_743_10763" result="shape"/>
</filter>
<linearGradient id="paint0_linear_743_10763" x1="83.75" y1="0.833984" x2="83.75" y2="48.834" gradientUnits="userSpaceOnUse">
<stop stop-color="white"/>
<stop offset="1" stop-color="#DBDBDB"/>
</linearGradient>
</defs>
</svg>
