<svg width="168" height="49" viewBox="0 0 168 49" fill="none" xmlns="http://www.w3.org/2000/svg">
<g filter="url(#filter0_b_743_10778)">
<rect x="0.5" y="0.833984" width="167.5" height="48" rx="24" fill="#E1F3FD" fill-opacity="0.32"/>
<rect x="1.5" y="1.83398" width="165.5" height="46" rx="23" stroke="url(#paint0_linear_743_10778)" stroke-width="2"/>
<g filter="url(#filter1_b_743_10778)">
<path d="M23.107 29.834V19.754H27.181C27.279 19.754 27.4003 19.7587 27.545 19.768C27.6896 19.7727 27.8273 19.7867 27.958 19.81C28.518 19.8987 28.9846 20.09 29.358 20.384C29.736 20.678 30.0183 21.049 30.205 21.497C30.3916 21.945 30.485 22.4397 30.485 22.981C30.485 23.527 30.3916 24.024 30.205 24.472C30.0183 24.92 29.736 25.291 29.358 25.585C28.9846 25.879 28.518 26.0703 27.958 26.159C27.8273 26.1777 27.6873 26.1917 27.538 26.201C27.3933 26.2103 27.2743 26.215 27.181 26.215H24.57V29.834H23.107ZM24.57 24.829H27.125C27.2183 24.829 27.321 24.8243 27.433 24.815C27.5496 24.8057 27.6593 24.7893 27.762 24.766C28.0606 24.696 28.301 24.5677 28.483 24.381C28.665 24.1897 28.7956 23.9703 28.875 23.723C28.9543 23.4757 28.994 23.2283 28.994 22.981C28.994 22.7337 28.9543 22.4887 28.875 22.246C28.7956 21.9987 28.665 21.7817 28.483 21.595C28.301 21.4037 28.0606 21.273 27.762 21.203C27.6593 21.175 27.5496 21.1563 27.433 21.147C27.321 21.1377 27.2183 21.133 27.125 21.133H24.57V24.829ZM31.8843 29.834V22.274H33.1863V24.108L33.0043 23.87C33.0976 23.6273 33.219 23.4057 33.3683 23.205C33.5176 22.9997 33.6903 22.8317 33.8863 22.701C34.0776 22.561 34.29 22.4537 34.5233 22.379C34.7613 22.2997 35.004 22.253 35.2513 22.239C35.4986 22.2203 35.7366 22.232 35.9653 22.274V23.646C35.718 23.5807 35.4426 23.562 35.1393 23.59C34.8406 23.618 34.5653 23.7137 34.3133 23.877C34.0753 24.031 33.8863 24.2177 33.7463 24.437C33.611 24.6563 33.513 24.9013 33.4523 25.172C33.3916 25.438 33.3613 25.7203 33.3613 26.019V29.834H31.8843ZM37.4384 21.035V19.614H38.9014V21.035H37.4384ZM37.4384 29.834V22.274H38.9014V29.834H37.4384ZM43.0474 29.834L40.3034 22.274H41.7804L43.7894 28L45.7984 22.274H47.2754L44.5314 29.834H43.0474ZM50.2478 30.044C49.6878 30.044 49.2188 29.9413 48.8408 29.736C48.4628 29.526 48.1758 29.2507 47.9798 28.91C47.7885 28.5647 47.6928 28.1867 47.6928 27.776C47.6928 27.3933 47.7605 27.0573 47.8958 26.768C48.0311 26.4787 48.2318 26.2337 48.4978 26.033C48.7638 25.8277 49.0905 25.662 49.4778 25.536C49.8138 25.438 50.1941 25.3517 50.6188 25.277C51.0435 25.2023 51.4891 25.1323 51.9558 25.067C52.4271 25.0017 52.8938 24.9363 53.3558 24.871L52.8238 25.165C52.8331 24.5723 52.7071 24.1337 52.4458 23.849C52.1891 23.5597 51.7458 23.415 51.1158 23.415C50.7191 23.415 50.3551 23.5083 50.0238 23.695C49.6925 23.877 49.4615 24.1803 49.3308 24.605L47.9658 24.185C48.1525 23.5363 48.5071 23.0207 49.0298 22.638C49.5571 22.2553 50.2571 22.064 51.1298 22.064C51.8065 22.064 52.3945 22.1807 52.8938 22.414C53.3978 22.6427 53.7665 23.0067 53.9998 23.506C54.1211 23.7533 54.1958 24.0147 54.2238 24.29C54.2518 24.5653 54.2658 24.8617 54.2658 25.179V29.834H52.9708V28.105L53.2228 28.329C52.9101 28.9077 52.5111 29.3393 52.0258 29.624C51.5451 29.904 50.9525 30.044 50.2478 30.044ZM50.5068 28.847C50.9221 28.847 51.2791 28.7747 51.5778 28.63C51.8765 28.4807 52.1168 28.2917 52.2988 28.063C52.4808 27.8343 52.5998 27.5963 52.6558 27.349C52.7351 27.125 52.7795 26.873 52.7888 26.593C52.8028 26.313 52.8098 26.089 52.8098 25.921L53.2858 26.096C52.8238 26.166 52.4038 26.229 52.0258 26.285C51.6478 26.341 51.3048 26.397 50.9968 26.453C50.6935 26.5043 50.4228 26.5673 50.1848 26.642C49.9841 26.712 49.8045 26.796 49.6458 26.894C49.4918 26.992 49.3681 27.111 49.2748 27.251C49.1861 27.391 49.1418 27.5613 49.1418 27.762C49.1418 27.958 49.1908 28.14 49.2888 28.308C49.3868 28.4713 49.5361 28.602 49.7368 28.7C49.9375 28.798 50.1941 28.847 50.5068 28.847ZM60.4095 29.834C59.9335 29.9273 59.4668 29.967 59.0095 29.953C58.5522 29.939 58.1438 29.8503 57.7845 29.687C57.4252 29.5237 57.1545 29.267 56.9725 28.917C56.8092 28.6043 56.7205 28.287 56.7065 27.965C56.6972 27.6383 56.6925 27.2697 56.6925 26.859V20.174H58.1625V26.789C58.1625 27.0923 58.1648 27.356 58.1695 27.58C58.1788 27.804 58.2278 27.993 58.3165 28.147C58.4845 28.4363 58.7505 28.602 59.1145 28.644C59.4832 28.6813 59.9148 28.665 60.4095 28.595V29.834ZM55.2435 23.45V22.274H60.4095V23.45H55.2435ZM65.0146 30.044C64.2633 30.044 63.603 29.8807 63.0336 29.554C62.469 29.2227 62.028 28.763 61.7106 28.175C61.398 27.5823 61.2416 26.8963 61.2416 26.117C61.2416 25.291 61.3956 24.5747 61.7036 23.968C62.0163 23.3613 62.4503 22.8923 63.0056 22.561C63.561 22.2297 64.2073 22.064 64.9446 22.064C65.7146 22.064 66.3703 22.2437 66.9116 22.603C67.453 22.9577 67.8566 23.464 68.1226 24.122C68.3933 24.78 68.5006 25.5617 68.4446 26.467H66.9816V25.935C66.9723 25.0577 66.8043 24.409 66.4776 23.989C66.1556 23.569 65.6633 23.359 65.0006 23.359C64.268 23.359 63.7173 23.59 63.3486 24.052C62.98 24.514 62.7956 25.1813 62.7956 26.054C62.7956 26.8847 62.98 27.5287 63.3486 27.986C63.7173 28.4387 64.2493 28.665 64.9446 28.665C65.402 28.665 65.7963 28.5623 66.1276 28.357C66.4636 28.147 66.725 27.8483 66.9116 27.461L68.3466 27.916C68.0526 28.5927 67.607 29.1177 67.0096 29.491C66.4123 29.8597 65.7473 30.044 65.0146 30.044ZM62.3196 26.467V25.326H67.7166V26.467H62.3196ZM75.7089 30.037C74.7896 30.037 74.0406 29.834 73.4619 29.428C72.8832 29.022 72.5286 28.4503 72.3979 27.713L73.8959 27.482C73.9892 27.874 74.2039 28.1843 74.5399 28.413C74.8806 28.637 75.3029 28.749 75.8069 28.749C76.2642 28.749 76.6212 28.6557 76.8779 28.469C77.1392 28.2823 77.2699 28.0257 77.2699 27.699C77.2699 27.5077 77.2232 27.3537 77.1299 27.237C77.0412 27.1157 76.8522 27.0013 76.5629 26.894C76.2736 26.7867 75.8326 26.6537 75.2399 26.495C74.5912 26.327 74.0756 26.1473 73.6929 25.956C73.3149 25.76 73.0442 25.5337 72.8809 25.277C72.7222 25.0157 72.6429 24.7007 72.6429 24.332C72.6429 23.8747 72.7642 23.4757 73.0069 23.135C73.2496 22.7943 73.5902 22.5307 74.0289 22.344C74.4722 22.1573 74.9902 22.064 75.5829 22.064C76.1616 22.064 76.6772 22.155 77.1299 22.337C77.5826 22.519 77.9489 22.778 78.2289 23.114C78.5089 23.4453 78.6769 23.835 78.7329 24.283L77.2349 24.556C77.1836 24.192 77.0132 23.905 76.7239 23.695C76.4346 23.485 76.0589 23.3707 75.5969 23.352C75.1536 23.3333 74.7942 23.408 74.5189 23.576C74.2436 23.7393 74.1059 23.9657 74.1059 24.255C74.1059 24.423 74.1572 24.5653 74.2599 24.682C74.3672 24.7987 74.5726 24.9107 74.8759 25.018C75.1792 25.1253 75.6272 25.2537 76.2199 25.403C76.8546 25.5663 77.3586 25.7483 77.7319 25.949C78.1052 26.145 78.3712 26.3807 78.5299 26.656C78.6932 26.9267 78.7749 27.2557 78.7749 27.643C78.7749 28.3897 78.5019 28.9753 77.9559 29.4C77.4146 29.8247 76.6656 30.037 75.7089 30.037ZM82.4588 30.044C81.8988 30.044 81.4298 29.9413 81.0518 29.736C80.6738 29.526 80.3868 29.2507 80.1908 28.91C79.9994 28.5647 79.9038 28.1867 79.9038 27.776C79.9038 27.3933 79.9714 27.0573 80.1068 26.768C80.2421 26.4787 80.4428 26.2337 80.7088 26.033C80.9748 25.8277 81.3014 25.662 81.6888 25.536C82.0248 25.438 82.4051 25.3517 82.8298 25.277C83.2544 25.2023 83.7001 25.1323 84.1668 25.067C84.6381 25.0017 85.1048 24.9363 85.5668 24.871L85.0348 25.165C85.0441 24.5723 84.9181 24.1337 84.6568 23.849C84.4001 23.5597 83.9568 23.415 83.3268 23.415C82.9301 23.415 82.5661 23.5083 82.2348 23.695C81.9034 23.877 81.6724 24.1803 81.5418 24.605L80.1768 24.185C80.3634 23.5363 80.7181 23.0207 81.2408 22.638C81.7681 22.2553 82.4681 22.064 83.3408 22.064C84.0174 22.064 84.6054 22.1807 85.1048 22.414C85.6088 22.6427 85.9774 23.0067 86.2108 23.506C86.3321 23.7533 86.4068 24.0147 86.4348 24.29C86.4628 24.5653 86.4768 24.8617 86.4768 25.179V29.834H85.1818V28.105L85.4338 28.329C85.1211 28.9077 84.7221 29.3393 84.2368 29.624C83.7561 29.904 83.1634 30.044 82.4588 30.044ZM82.7178 28.847C83.1331 28.847 83.4901 28.7747 83.7888 28.63C84.0874 28.4807 84.3278 28.2917 84.5098 28.063C84.6918 27.8343 84.8108 27.5963 84.8668 27.349C84.9461 27.125 84.9904 26.873 84.9998 26.593C85.0138 26.313 85.0208 26.089 85.0208 25.921L85.4968 26.096C85.0348 26.166 84.6148 26.229 84.2368 26.285C83.8588 26.341 83.5158 26.397 83.2078 26.453C82.9044 26.5043 82.6338 26.5673 82.3958 26.642C82.1951 26.712 82.0154 26.796 81.8568 26.894C81.7028 26.992 81.5791 27.111 81.4858 27.251C81.3971 27.391 81.3528 27.5613 81.3528 27.762C81.3528 27.958 81.4018 28.14 81.4998 28.308C81.5978 28.4713 81.7471 28.602 81.9478 28.7C82.1484 28.798 82.4051 28.847 82.7178 28.847ZM88.4345 29.834V19.544H89.8975V29.834H88.4345ZM95.3525 30.044C94.6012 30.044 93.9409 29.8807 93.3715 29.554C92.8069 29.2227 92.3659 28.763 92.0485 28.175C91.7359 27.5823 91.5795 26.8963 91.5795 26.117C91.5795 25.291 91.7335 24.5747 92.0415 23.968C92.3542 23.3613 92.7882 22.8923 93.3435 22.561C93.8989 22.2297 94.5452 22.064 95.2825 22.064C96.0525 22.064 96.7082 22.2437 97.2495 22.603C97.7909 22.9577 98.1945 23.464 98.4605 24.122C98.7312 24.78 98.8385 25.5617 98.7825 26.467H97.3195V25.935C97.3102 25.0577 97.1422 24.409 96.8155 23.989C96.4935 23.569 96.0012 23.359 95.3385 23.359C94.6059 23.359 94.0552 23.59 93.6865 24.052C93.3179 24.514 93.1335 25.1813 93.1335 26.054C93.1335 26.8847 93.3179 27.5287 93.6865 27.986C94.0552 28.4387 94.5872 28.665 95.2825 28.665C95.7399 28.665 96.1342 28.5623 96.4655 28.357C96.8015 28.147 97.0629 27.8483 97.2495 27.461L98.6845 27.916C98.3905 28.5927 97.9449 29.1177 97.3475 29.491C96.7502 29.8597 96.0852 30.044 95.3525 30.044ZM92.6575 26.467V25.326H98.0545V26.467H92.6575Z" fill="#684D5D"/>
</g>
<circle cx="109.75" cy="24.834" r="2" fill="#AC0F65" fill-opacity="0.32"/>
<g filter="url(#filter2_b_743_10778)">
<path d="M124.68 32.026C124.03 32.026 123.411 31.9087 122.824 31.674C122.248 31.4287 121.752 31.0873 121.336 30.65C120.931 30.202 120.654 29.674 120.504 29.066L122.408 28.394C122.6 28.938 122.894 29.354 123.288 29.642C123.683 29.9193 124.147 30.058 124.68 30.058C125.107 30.058 125.475 29.978 125.784 29.818C126.104 29.658 126.355 29.4287 126.536 29.13C126.718 28.8207 126.808 28.458 126.808 28.042C126.808 27.626 126.718 27.274 126.536 26.986C126.366 26.6873 126.12 26.458 125.8 26.298C125.48 26.138 125.102 26.058 124.664 26.058C124.462 26.058 124.248 26.0793 124.024 26.122C123.811 26.1647 123.619 26.2287 123.448 26.314L122.952 25.274L126.04 21.754H121.176V19.914H128.488V21.626L125.384 25.258L125.416 24.442C126.131 24.4527 126.755 24.6073 127.288 24.906C127.822 25.2047 128.238 25.6153 128.536 26.138C128.835 26.6607 128.984 27.274 128.984 27.978C128.984 28.746 128.798 29.4393 128.424 30.058C128.051 30.666 127.539 31.146 126.888 31.498C126.238 31.85 125.502 32.026 124.68 32.026ZM132.221 31.834L141.885 19.914H144.125L134.461 31.834H132.221ZM134.077 25.962C133.491 25.962 132.957 25.8233 132.477 25.546C132.008 25.258 131.635 24.8793 131.357 24.41C131.08 23.9407 130.941 23.418 130.941 22.842C130.941 22.266 131.08 21.7433 131.357 21.274C131.635 20.794 132.008 20.4153 132.477 20.138C132.957 19.8607 133.491 19.722 134.077 19.722C134.675 19.722 135.208 19.8607 135.677 20.138C136.147 20.4153 136.52 20.794 136.797 21.274C137.075 21.7433 137.213 22.266 137.213 22.842C137.213 23.418 137.075 23.9407 136.797 24.41C136.52 24.8793 136.147 25.258 135.677 25.546C135.208 25.8233 134.675 25.962 134.077 25.962ZM134.077 24.346C134.397 24.346 134.664 24.2767 134.877 24.138C135.091 23.9887 135.251 23.802 135.357 23.578C135.475 23.3433 135.533 23.098 135.533 22.842C135.533 22.5753 135.475 22.33 135.357 22.106C135.251 21.882 135.091 21.6953 134.877 21.546C134.664 21.3967 134.397 21.322 134.077 21.322C133.779 21.322 133.517 21.3967 133.293 21.546C133.08 21.6953 132.915 21.8873 132.797 22.122C132.68 22.346 132.621 22.586 132.621 22.842C132.621 23.0873 132.68 23.3273 132.797 23.562C132.915 23.7967 133.08 23.9887 133.293 24.138C133.517 24.2767 133.779 24.346 134.077 24.346ZM142.205 32.026C141.619 32.026 141.085 31.8873 140.605 31.61C140.136 31.322 139.763 30.9433 139.485 30.474C139.208 30.0047 139.069 29.482 139.069 28.906C139.069 28.33 139.208 27.8073 139.485 27.338C139.763 26.858 140.136 26.4793 140.605 26.202C141.085 25.9247 141.619 25.786 142.205 25.786C142.803 25.786 143.336 25.9247 143.805 26.202C144.275 26.4793 144.648 26.858 144.925 27.338C145.203 27.8073 145.341 28.33 145.341 28.906C145.341 29.482 145.203 30.0047 144.925 30.474C144.648 30.9433 144.275 31.322 143.805 31.61C143.336 31.8873 142.803 32.026 142.205 32.026ZM142.205 30.41C142.515 30.41 142.776 30.3407 142.989 30.202C143.213 30.0527 143.379 29.866 143.485 29.642C143.603 29.4073 143.661 29.162 143.661 28.906C143.661 28.6393 143.603 28.394 143.485 28.17C143.379 27.946 143.213 27.7593 142.989 27.61C142.776 27.4607 142.515 27.386 142.205 27.386C141.907 27.386 141.645 27.4607 141.421 27.61C141.208 27.7593 141.043 27.9513 140.925 28.186C140.808 28.41 140.749 28.65 140.749 28.906C140.749 29.1513 140.808 29.3913 140.925 29.626C141.043 29.8607 141.208 30.0527 141.421 30.202C141.645 30.3407 141.907 30.41 142.205 30.41Z" fill="#EC008C"/>
</g>
</g>
<defs>
<filter id="filter0_b_743_10778" x="-1.5" y="-1.16602" width="171.5" height="52" filterUnits="userSpaceOnUse" color-interpolation-filters="sRGB">
<feFlood flood-opacity="0" result="BackgroundImageFix"/>
<feGaussianBlur in="BackgroundImageFix" stdDeviation="1"/>
<feComposite in2="SourceAlpha" operator="in" result="effect1_backgroundBlur_743_10778"/>
<feBlend mode="normal" in="SourceGraphic" in2="effect1_backgroundBlur_743_10778" result="shape"/>
</filter>
<filter id="filter1_b_743_10778" x="7.10693" y="3.54398" width="107.76" height="42.5" filterUnits="userSpaceOnUse" color-interpolation-filters="sRGB">
<feFlood flood-opacity="0" result="BackgroundImageFix"/>
<feGaussianBlur in="BackgroundImageFix" stdDeviation="8"/>
<feComposite in2="SourceAlpha" operator="in" result="effect1_backgroundBlur_743_10778"/>
<feBlend mode="normal" in="SourceGraphic" in2="effect1_backgroundBlur_743_10778" result="shape"/>
</filter>
<filter id="filter2_b_743_10778" x="104.504" y="3.72198" width="56.8369" height="44.304" filterUnits="userSpaceOnUse" color-interpolation-filters="sRGB">
<feFlood flood-opacity="0" result="BackgroundImageFix"/>
<feGaussianBlur in="BackgroundImageFix" stdDeviation="8"/>
<feComposite in2="SourceAlpha" operator="in" result="effect1_backgroundBlur_743_10778"/>
<feBlend mode="normal" in="SourceGraphic" in2="effect1_backgroundBlur_743_10778" result="shape"/>
</filter>
<linearGradient id="paint0_linear_743_10778" x1="84.25" y1="0.833984" x2="84.25" y2="48.834" gradientUnits="userSpaceOnUse">
<stop stop-color="white"/>
<stop offset="1" stop-color="#DBDBDB"/>
</linearGradient>
</defs>
</svg>
