<svg width="343" height="49" viewBox="0 0 343 49" fill="none" xmlns="http://www.w3.org/2000/svg">
<g filter="url(#filter0_b_743_10798)">
<rect y="0.833984" width="343" height="48" rx="24" fill="#E1F3FD" fill-opacity="0.32"/>
<rect x="1" y="1.83398" width="341" height="46" rx="23" stroke="url(#paint0_linear_743_10798)" stroke-width="2"/>
<g filter="url(#filter1_b_743_10798)">
<path d="M67.4009 29.834V19.754H68.7239L72.3779 27.335L76.0109 19.754H77.3479V29.827H75.9619V22.932L72.7069 29.834H72.0419L68.7799 22.932V29.834H67.4009ZM81.4441 30.044C80.8841 30.044 80.4151 29.9413 80.0371 29.736C79.6591 29.526 79.3721 29.2507 79.1761 28.91C78.9848 28.5647 78.8891 28.1867 78.8891 27.776C78.8891 27.3933 78.9568 27.0573 79.0921 26.768C79.2274 26.4787 79.4281 26.2337 79.6941 26.033C79.9601 25.8277 80.2868 25.662 80.6741 25.536C81.0101 25.438 81.3904 25.3517 81.8151 25.277C82.2398 25.2023 82.6854 25.1323 83.1521 25.067C83.6234 25.0017 84.0901 24.9363 84.5521 24.871L84.0201 25.165C84.0294 24.5723 83.9034 24.1337 83.6421 23.849C83.3854 23.5597 82.9421 23.415 82.3121 23.415C81.9154 23.415 81.5514 23.5083 81.2201 23.695C80.8888 23.877 80.6578 24.1803 80.5271 24.605L79.1621 24.185C79.3488 23.5363 79.7034 23.0207 80.2261 22.638C80.7534 22.2553 81.4534 22.064 82.3261 22.064C83.0028 22.064 83.5908 22.1807 84.0901 22.414C84.5941 22.6427 84.9628 23.0067 85.1961 23.506C85.3174 23.7533 85.3921 24.0147 85.4201 24.29C85.4481 24.5653 85.4621 24.8617 85.4621 25.179V29.834H84.1671V28.105L84.4191 28.329C84.1064 28.9077 83.7074 29.3393 83.2221 29.624C82.7414 29.904 82.1488 30.044 81.4441 30.044ZM81.7031 28.847C82.1184 28.847 82.4754 28.7747 82.7741 28.63C83.0728 28.4807 83.3131 28.2917 83.4951 28.063C83.6771 27.8343 83.7961 27.5963 83.8521 27.349C83.9314 27.125 83.9758 26.873 83.9851 26.593C83.9991 26.313 84.0061 26.089 84.0061 25.921L84.4821 26.096C84.0201 26.166 83.6001 26.229 83.2221 26.285C82.8441 26.341 82.5011 26.397 82.1931 26.453C81.8898 26.5043 81.6191 26.5673 81.3811 26.642C81.1804 26.712 81.0008 26.796 80.8421 26.894C80.6881 26.992 80.5644 27.111 80.4711 27.251C80.3824 27.391 80.3381 27.5613 80.3381 27.762C80.3381 27.958 80.3871 28.14 80.4851 28.308C80.5831 28.4713 80.7324 28.602 80.9331 28.7C81.1338 28.798 81.3904 28.847 81.7031 28.847ZM87.2798 29.834V22.274H88.5818V24.108L88.3998 23.87C88.4931 23.6273 88.6145 23.4057 88.7638 23.205C88.9131 22.9997 89.0858 22.8317 89.2818 22.701C89.4731 22.561 89.6855 22.4537 89.9188 22.379C90.1568 22.2997 90.3995 22.253 90.6468 22.239C90.8941 22.2203 91.1321 22.232 91.3608 22.274V23.646C91.1135 23.5807 90.8381 23.562 90.5348 23.59C90.2361 23.618 89.9608 23.7137 89.7088 23.877C89.4708 24.031 89.2818 24.2177 89.1418 24.437C89.0065 24.6563 88.9085 24.9013 88.8478 25.172C88.7871 25.438 88.7568 25.7203 88.7568 26.019V29.834H87.2798ZM92.6869 29.834L92.6939 19.754H94.1779V25.914L97.1459 22.274H99.0079L95.8719 26.054L99.3299 29.834H97.3419L94.1779 26.194V29.834H92.6869ZM103.252 30.044C102.501 30.044 101.84 29.8807 101.271 29.554C100.706 29.2227 100.265 28.763 99.9479 28.175C99.6353 27.5823 99.4789 26.8963 99.4789 26.117C99.4789 25.291 99.6329 24.5747 99.9409 23.968C100.254 23.3613 100.688 22.8923 101.243 22.561C101.798 22.2297 102.445 22.064 103.182 22.064C103.952 22.064 104.608 22.2437 105.149 22.603C105.69 22.9577 106.094 23.464 106.36 24.122C106.631 24.78 106.738 25.5617 106.682 26.467H105.219V25.935C105.21 25.0577 105.042 24.409 104.715 23.989C104.393 23.569 103.901 23.359 103.238 23.359C102.505 23.359 101.955 23.59 101.586 24.052C101.217 24.514 101.033 25.1813 101.033 26.054C101.033 26.8847 101.217 27.5287 101.586 27.986C101.955 28.4387 102.487 28.665 103.182 28.665C103.639 28.665 104.034 28.5623 104.365 28.357C104.701 28.147 104.962 27.8483 105.149 27.461L106.584 27.916C106.29 28.5927 105.844 29.1177 105.247 29.491C104.65 29.8597 103.985 30.044 103.252 30.044ZM100.557 26.467V25.326H105.954V26.467H100.557ZM112.578 29.834C112.102 29.9273 111.636 29.967 111.178 29.953C110.721 29.939 110.313 29.8503 109.953 29.687C109.594 29.5237 109.323 29.267 109.141 28.917C108.978 28.6043 108.889 28.287 108.875 27.965C108.866 27.6383 108.861 27.2697 108.861 26.859V20.174H110.331V26.789C110.331 27.0923 110.334 27.356 110.338 27.58C110.348 27.804 110.397 27.993 110.485 28.147C110.653 28.4363 110.919 28.602 111.283 28.644C111.652 28.6813 112.084 28.665 112.578 28.595V29.834ZM107.412 23.45V22.274H112.578V23.45H107.412ZM114.312 21.035V19.614H115.775V21.035H114.312ZM114.312 29.834V22.274H115.775V29.834H114.312ZM123.183 29.834V26.117C123.183 25.823 123.158 25.522 123.106 25.214C123.06 24.9013 122.966 24.612 122.826 24.346C122.691 24.08 122.497 23.8653 122.245 23.702C121.998 23.5387 121.674 23.457 121.272 23.457C121.011 23.457 120.764 23.5013 120.53 23.59C120.297 23.674 120.092 23.8117 119.914 24.003C119.742 24.1943 119.604 24.4463 119.501 24.759C119.403 25.0717 119.354 25.452 119.354 25.9L118.444 25.557C118.444 24.871 118.573 24.2667 118.829 23.744C119.086 23.2167 119.455 22.806 119.935 22.512C120.416 22.218 120.997 22.071 121.678 22.071C122.201 22.071 122.64 22.155 122.994 22.323C123.349 22.491 123.636 22.7127 123.855 22.988C124.079 23.2587 124.25 23.555 124.366 23.877C124.483 24.199 124.562 24.514 124.604 24.822C124.646 25.13 124.667 25.4007 124.667 25.634V29.834H123.183ZM117.87 29.834V22.274H119.179V24.458H119.354V29.834H117.87ZM129.606 33.404C129.2 33.404 128.805 33.341 128.423 33.215C128.045 33.089 127.699 32.9023 127.387 32.655C127.074 32.4123 126.815 32.1113 126.61 31.752L127.961 31.066C128.124 31.388 128.357 31.6237 128.661 31.773C128.964 31.9223 129.284 31.997 129.62 31.997C130.035 31.997 130.39 31.9223 130.684 31.773C130.978 31.6283 131.199 31.409 131.349 31.115C131.503 30.821 131.577 30.457 131.573 30.023V27.909H131.748V22.274H133.043V30.037C133.043 30.2377 133.036 30.429 133.022 30.611C133.008 30.793 132.982 30.975 132.945 31.157C132.837 31.6657 132.632 32.0857 132.329 32.417C132.03 32.7483 131.647 32.9957 131.181 33.159C130.719 33.3223 130.194 33.404 129.606 33.404ZM129.494 30.044C128.789 30.044 128.18 29.869 127.667 29.519C127.158 29.169 126.764 28.693 126.484 28.091C126.208 27.4843 126.071 26.803 126.071 26.047C126.071 25.2863 126.211 24.6073 126.491 24.01C126.771 23.408 127.167 22.9343 127.681 22.589C128.199 22.239 128.812 22.064 129.522 22.064C130.236 22.064 130.835 22.239 131.321 22.589C131.811 22.9343 132.179 23.408 132.427 24.01C132.679 24.612 132.805 25.291 132.805 26.047C132.805 26.803 132.679 27.482 132.427 28.084C132.175 28.686 131.804 29.1643 131.314 29.519C130.824 29.869 130.217 30.044 129.494 30.044ZM129.697 28.721C130.177 28.721 130.569 28.6067 130.873 28.378C131.176 28.1493 131.398 27.8343 131.538 27.433C131.678 27.0317 131.748 26.5697 131.748 26.047C131.748 25.5243 131.675 25.0623 131.531 24.661C131.391 24.2597 131.171 23.947 130.873 23.723C130.579 23.499 130.203 23.387 129.746 23.387C129.26 23.387 128.861 23.506 128.549 23.744C128.236 23.982 128.003 24.3017 127.849 24.703C127.699 25.1043 127.625 25.5523 127.625 26.047C127.625 26.5463 127.699 26.999 127.849 27.405C128.003 27.8063 128.231 28.126 128.535 28.364C128.843 28.602 129.23 28.721 129.697 28.721ZM141.122 30.044C140.557 30.044 140.03 29.9623 139.54 29.799C139.05 29.631 138.639 29.3697 138.308 29.015C138.051 28.7303 137.86 28.4177 137.734 28.077C137.613 27.7317 137.545 27.3653 137.531 26.978C137.531 26.6 137.585 26.2337 137.692 25.879C137.804 25.5197 137.979 25.2 138.217 24.92C138.324 24.7893 138.443 24.6773 138.574 24.584C138.705 24.486 138.835 24.3997 138.966 24.325C138.667 23.9983 138.441 23.688 138.287 23.394C138.133 23.0953 138.056 22.743 138.056 22.337C138.056 21.7677 138.205 21.2567 138.504 20.804C138.803 20.3467 139.211 20.0177 139.729 19.817C139.967 19.719 140.21 19.6537 140.457 19.621C140.704 19.5837 140.945 19.565 141.178 19.565C141.598 19.565 142.004 19.6257 142.396 19.747C142.788 19.8683 143.124 20.0667 143.404 20.342C143.581 20.5053 143.731 20.6897 143.852 20.895C143.978 21.1003 144.074 21.3103 144.139 21.525L142.697 21.861C142.618 21.637 142.487 21.448 142.305 21.294C142.151 21.1587 141.971 21.0677 141.766 21.021C141.565 20.9697 141.365 20.944 141.164 20.944C140.833 20.944 140.534 21.007 140.268 21.133C140.025 21.2497 139.843 21.4107 139.722 21.616C139.601 21.8167 139.54 22.0593 139.54 22.344C139.54 22.596 139.584 22.799 139.673 22.953C139.762 23.107 139.881 23.268 140.03 23.436C140.119 23.534 140.224 23.639 140.345 23.751C140.471 23.863 140.599 23.9797 140.73 24.101L143.474 26.656C143.483 26.5533 143.49 26.4437 143.495 26.327C143.5 26.2103 143.502 26.0983 143.502 25.991L143.495 24.682H144.804V26.411C144.804 26.705 144.795 26.971 144.776 27.209C144.762 27.4423 144.734 27.6337 144.692 27.783L145.952 28.952L145.007 29.967L143.992 29.001C143.777 29.2157 143.537 29.3977 143.271 29.547C143.005 29.6917 142.737 29.799 142.466 29.869C142.237 29.939 142.011 29.9857 141.787 30.009C141.568 30.0323 141.346 30.044 141.122 30.044ZM141.164 28.644C141.351 28.644 141.523 28.6347 141.682 28.616C141.841 28.5927 141.992 28.5507 142.137 28.49C142.333 28.4107 142.492 28.329 142.613 28.245C142.739 28.161 142.844 28.0793 142.928 28L140.058 25.368C139.913 25.4193 139.778 25.487 139.652 25.571C139.531 25.6503 139.426 25.7437 139.337 25.851C139.23 25.9863 139.148 26.145 139.092 26.327C139.041 26.5043 139.017 26.6957 139.022 26.901C139.022 27.125 139.057 27.3303 139.127 27.517C139.202 27.699 139.297 27.8623 139.414 28.007C139.601 28.231 139.86 28.3943 140.191 28.497C140.527 28.595 140.851 28.644 141.164 28.644ZM154.09 30.044C153.082 30.044 152.224 29.8247 151.514 29.386C150.805 28.9427 150.261 28.3267 149.883 27.538C149.51 26.7493 149.323 25.8347 149.323 24.794C149.323 23.7533 149.51 22.8387 149.883 22.05C150.261 21.2613 150.805 20.6477 151.514 20.209C152.224 19.7657 153.082 19.544 154.09 19.544C155.094 19.544 155.95 19.7657 156.659 20.209C157.373 20.6477 157.917 21.2613 158.29 22.05C158.664 22.8387 158.85 23.7533 158.85 24.794C158.85 25.8347 158.664 26.7493 158.29 27.538C157.917 28.3267 157.373 28.9427 156.659 29.386C155.95 29.8247 155.094 30.044 154.09 30.044ZM154.09 28.651C154.804 28.6603 155.397 28.504 155.868 28.182C156.344 27.8553 156.701 27.4027 156.939 26.824C157.177 26.2407 157.296 25.564 157.296 24.794C157.296 24.024 157.177 23.352 156.939 22.778C156.701 22.1993 156.344 21.749 155.868 21.427C155.397 21.105 154.804 20.9417 154.09 20.937C153.376 20.9277 152.781 21.084 152.305 21.406C151.834 21.728 151.479 22.1807 151.241 22.764C151.003 23.3473 150.882 24.024 150.877 24.794C150.873 25.564 150.989 26.2383 151.227 26.817C151.465 27.391 151.822 27.839 152.298 28.161C152.779 28.483 153.376 28.6463 154.09 28.651ZM163.796 30.044C163.072 30.044 162.466 29.869 161.976 29.519C161.486 29.1643 161.115 28.686 160.863 28.084C160.611 27.482 160.485 26.803 160.485 26.047C160.485 25.291 160.608 24.612 160.856 24.01C161.108 23.408 161.476 22.9343 161.962 22.589C162.452 22.239 163.054 22.064 163.768 22.064C164.477 22.064 165.088 22.239 165.602 22.589C166.12 22.9343 166.519 23.408 166.799 24.01C167.079 24.6073 167.219 25.2863 167.219 26.047C167.219 26.803 167.079 27.4843 166.799 28.091C166.523 28.693 166.129 29.169 165.616 29.519C165.107 29.869 164.5 30.044 163.796 30.044ZM160.24 33.194V22.274H161.542V27.713H161.71V33.194H160.24ZM163.593 28.721C164.059 28.721 164.444 28.602 164.748 28.364C165.056 28.126 165.284 27.8063 165.434 27.405C165.588 26.999 165.665 26.5463 165.665 26.047C165.665 25.5523 165.588 25.1043 165.434 24.703C165.284 24.3017 165.053 23.982 164.741 23.744C164.428 23.506 164.029 23.387 163.544 23.387C163.086 23.387 162.708 23.499 162.41 23.723C162.116 23.947 161.896 24.2597 161.752 24.661C161.612 25.0623 161.542 25.5243 161.542 26.047C161.542 26.5697 161.612 27.0317 161.752 27.433C161.892 27.8343 162.113 28.1493 162.417 28.378C162.72 28.6067 163.112 28.721 163.593 28.721ZM172.117 30.044C171.366 30.044 170.706 29.8807 170.136 29.554C169.572 29.2227 169.131 28.763 168.813 28.175C168.501 27.5823 168.344 26.8963 168.344 26.117C168.344 25.291 168.498 24.5747 168.806 23.968C169.119 23.3613 169.553 22.8923 170.108 22.561C170.664 22.2297 171.31 22.064 172.047 22.064C172.817 22.064 173.473 22.2437 174.014 22.603C174.556 22.9577 174.959 23.464 175.225 24.122C175.496 24.78 175.603 25.5617 175.547 26.467H174.084V25.935C174.075 25.0577 173.907 24.409 173.58 23.989C173.258 23.569 172.766 23.359 172.103 23.359C171.371 23.359 170.82 23.59 170.451 24.052C170.083 24.514 169.898 25.1813 169.898 26.054C169.898 26.8847 170.083 27.5287 170.451 27.986C170.82 28.4387 171.352 28.665 172.047 28.665C172.505 28.665 172.899 28.5623 173.23 28.357C173.566 28.147 173.828 27.8483 174.014 27.461L175.449 27.916C175.155 28.5927 174.71 29.1177 174.112 29.491C173.515 29.8597 172.85 30.044 172.117 30.044ZM169.422 26.467V25.326H174.819V26.467H169.422ZM177.118 29.834V22.274H178.42V24.108L178.238 23.87C178.331 23.6273 178.452 23.4057 178.602 23.205C178.751 22.9997 178.924 22.8317 179.12 22.701C179.311 22.561 179.523 22.4537 179.757 22.379C179.995 22.2997 180.237 22.253 180.485 22.239C180.732 22.2203 180.97 22.232 181.199 22.274V23.646C180.951 23.5807 180.676 23.562 180.373 23.59C180.074 23.618 179.799 23.7137 179.547 23.877C179.309 24.031 179.12 24.2177 178.98 24.437C178.844 24.6563 178.746 24.9013 178.686 25.172C178.625 25.438 178.595 25.7203 178.595 26.019V29.834H177.118ZM184.448 30.044C183.888 30.044 183.419 29.9413 183.041 29.736C182.663 29.526 182.376 29.2507 182.18 28.91C181.989 28.5647 181.893 28.1867 181.893 27.776C181.893 27.3933 181.961 27.0573 182.096 26.768C182.231 26.4787 182.432 26.2337 182.698 26.033C182.964 25.8277 183.291 25.662 183.678 25.536C184.014 25.438 184.394 25.3517 184.819 25.277C185.244 25.2023 185.689 25.1323 186.156 25.067C186.627 25.0017 187.094 24.9363 187.556 24.871L187.024 25.165C187.033 24.5723 186.907 24.1337 186.646 23.849C186.389 23.5597 185.946 23.415 185.316 23.415C184.919 23.415 184.555 23.5083 184.224 23.695C183.893 23.877 183.662 24.1803 183.531 24.605L182.166 24.185C182.353 23.5363 182.707 23.0207 183.23 22.638C183.757 22.2553 184.457 22.064 185.33 22.064C186.007 22.064 186.595 22.1807 187.094 22.414C187.598 22.6427 187.967 23.0067 188.2 23.506C188.321 23.7533 188.396 24.0147 188.424 24.29C188.452 24.5653 188.466 24.8617 188.466 25.179V29.834H187.171V28.105L187.423 28.329C187.11 28.9077 186.711 29.3393 186.226 29.624C185.745 29.904 185.153 30.044 184.448 30.044ZM184.707 28.847C185.122 28.847 185.479 28.7747 185.778 28.63C186.077 28.4807 186.317 28.2917 186.499 28.063C186.681 27.8343 186.8 27.5963 186.856 27.349C186.935 27.125 186.98 26.873 186.989 26.593C187.003 26.313 187.01 26.089 187.01 25.921L187.486 26.096C187.024 26.166 186.604 26.229 186.226 26.285C185.848 26.341 185.505 26.397 185.197 26.453C184.894 26.5043 184.623 26.5673 184.385 26.642C184.184 26.712 184.005 26.796 183.846 26.894C183.692 26.992 183.568 27.111 183.475 27.251C183.386 27.391 183.342 27.5613 183.342 27.762C183.342 27.958 183.391 28.14 183.489 28.308C183.587 28.4713 183.736 28.602 183.937 28.7C184.138 28.798 184.394 28.847 184.707 28.847ZM194.61 29.834C194.134 29.9273 193.667 29.967 193.21 29.953C192.752 29.939 192.344 29.8503 191.985 29.687C191.625 29.5237 191.355 29.267 191.173 28.917C191.009 28.6043 190.921 28.287 190.907 27.965C190.897 27.6383 190.893 27.2697 190.893 26.859V20.174H192.363V26.789C192.363 27.0923 192.365 27.356 192.37 27.58C192.379 27.804 192.428 27.993 192.517 28.147C192.685 28.4363 192.951 28.602 193.315 28.644C193.683 28.6813 194.115 28.665 194.61 28.595V29.834ZM189.444 23.45V22.274H194.61V23.45H189.444ZM196.344 21.035V19.614H197.807V21.035H196.344ZM196.344 29.834V22.274H197.807V29.834H196.344ZM203.192 30.044C202.436 30.044 201.78 29.8737 201.225 29.533C200.669 29.1923 200.24 28.7233 199.937 28.126C199.638 27.524 199.489 26.831 199.489 26.047C199.489 25.2583 199.643 24.5653 199.951 23.968C200.259 23.366 200.69 22.8993 201.246 22.568C201.801 22.232 202.45 22.064 203.192 22.064C203.948 22.064 204.603 22.2343 205.159 22.575C205.714 22.9157 206.143 23.3847 206.447 23.982C206.75 24.5793 206.902 25.2677 206.902 26.047C206.902 26.8357 206.748 27.531 206.44 28.133C206.136 28.7303 205.707 29.1993 205.152 29.54C204.596 29.876 203.943 30.044 203.192 30.044ZM203.192 28.665C203.915 28.665 204.454 28.4223 204.809 27.937C205.168 27.447 205.348 26.817 205.348 26.047C205.348 25.2583 205.166 24.6283 204.802 24.157C204.442 23.681 203.906 23.443 203.192 23.443C202.702 23.443 202.298 23.555 201.981 23.779C201.663 23.9983 201.428 24.304 201.274 24.696C201.12 25.0833 201.043 25.5337 201.043 26.047C201.043 26.8403 201.225 27.475 201.589 27.951C201.953 28.427 202.487 28.665 203.192 28.665ZM213.746 29.834V26.117C213.746 25.823 213.72 25.522 213.669 25.214C213.622 24.9013 213.529 24.612 213.389 24.346C213.254 24.08 213.06 23.8653 212.808 23.702C212.561 23.5387 212.236 23.457 211.835 23.457C211.574 23.457 211.326 23.5013 211.093 23.59C210.86 23.674 210.654 23.8117 210.477 24.003C210.304 24.1943 210.167 24.4463 210.064 24.759C209.966 25.0717 209.917 25.452 209.917 25.9L209.007 25.557C209.007 24.871 209.135 24.2667 209.392 23.744C209.649 23.2167 210.017 22.806 210.498 22.512C210.979 22.218 211.56 22.071 212.241 22.071C212.764 22.071 213.202 22.155 213.557 22.323C213.912 22.491 214.199 22.7127 214.418 22.988C214.642 23.2587 214.812 23.555 214.929 23.877C215.046 24.199 215.125 24.514 215.167 24.822C215.209 25.13 215.23 25.4007 215.23 25.634V29.834H213.746ZM208.433 29.834V22.274H209.742V24.458H209.917V29.834H208.433ZM219.944 30.037C219.025 30.037 218.276 29.834 217.697 29.428C217.119 29.022 216.764 28.4503 216.633 27.713L218.131 27.482C218.225 27.874 218.439 28.1843 218.775 28.413C219.116 28.637 219.538 28.749 220.042 28.749C220.5 28.749 220.857 28.6557 221.113 28.469C221.375 28.2823 221.505 28.0257 221.505 27.699C221.505 27.5077 221.459 27.3537 221.365 27.237C221.277 27.1157 221.088 27.0013 220.798 26.894C220.509 26.7867 220.068 26.6537 219.475 26.495C218.827 26.327 218.311 26.1473 217.928 25.956C217.55 25.76 217.28 25.5337 217.116 25.277C216.958 25.0157 216.878 24.7007 216.878 24.332C216.878 23.8747 217 23.4757 217.242 23.135C217.485 22.7943 217.826 22.5307 218.264 22.344C218.708 22.1573 219.226 22.064 219.818 22.064C220.397 22.064 220.913 22.155 221.365 22.337C221.818 22.519 222.184 22.778 222.464 23.114C222.744 23.4453 222.912 23.835 222.968 24.283L221.47 24.556C221.419 24.192 221.249 23.905 220.959 23.695C220.67 23.485 220.294 23.3707 219.832 23.352C219.389 23.3333 219.03 23.408 218.754 23.576C218.479 23.7393 218.341 23.9657 218.341 24.255C218.341 24.423 218.393 24.5653 218.495 24.682C218.603 24.7987 218.808 24.9107 219.111 25.018C219.415 25.1253 219.863 25.2537 220.455 25.403C221.09 25.5663 221.594 25.7483 221.967 25.949C222.341 26.145 222.607 26.3807 222.765 26.656C222.929 26.9267 223.01 27.2557 223.01 27.643C223.01 28.3897 222.737 28.9753 222.191 29.4C221.65 29.8247 220.901 30.037 219.944 30.037Z" fill="#684D5D"/>
</g>
<circle cx="234" cy="24.834" r="2" fill="#AC0F65" fill-opacity="0.32"/>
<g filter="url(#filter2_b_743_10798)">
<path d="M246.901 31.834V21.77H244.597V19.914H249.077V31.834H246.901ZM251.322 31.834V30.186L254.554 26.81C255.194 26.138 255.685 25.6047 256.026 25.21C256.378 24.8047 256.623 24.458 256.762 24.17C256.901 23.882 256.97 23.5887 256.97 23.29C256.97 22.7887 256.81 22.394 256.49 22.106C256.181 21.818 255.781 21.674 255.29 21.674C254.778 21.674 254.335 21.8233 253.962 22.122C253.589 22.41 253.317 22.8367 253.146 23.402L251.242 22.81C251.37 22.1807 251.631 21.6367 252.026 21.178C252.421 20.7087 252.901 20.3513 253.466 20.106C254.042 19.85 254.65 19.722 255.29 19.722C256.058 19.722 256.73 19.8607 257.306 20.138C257.893 20.4153 258.346 20.8047 258.666 21.306C258.997 21.8073 259.162 22.394 259.162 23.066C259.162 23.4927 259.082 23.914 258.922 24.33C258.762 24.746 258.522 25.1727 258.202 25.61C257.882 26.0367 257.466 26.5167 256.954 27.05L254.154 29.994H259.322V31.834H251.322ZM262.581 31.834L272.245 19.914H274.485L264.821 31.834H262.581ZM264.437 25.962C263.85 25.962 263.317 25.8233 262.837 25.546C262.367 25.258 261.994 24.8793 261.717 24.41C261.439 23.9407 261.301 23.418 261.301 22.842C261.301 22.266 261.439 21.7433 261.717 21.274C261.994 20.794 262.367 20.4153 262.837 20.138C263.317 19.8607 263.85 19.722 264.437 19.722C265.034 19.722 265.567 19.8607 266.037 20.138C266.506 20.4153 266.879 20.794 267.157 21.274C267.434 21.7433 267.573 22.266 267.573 22.842C267.573 23.418 267.434 23.9407 267.157 24.41C266.879 24.8793 266.506 25.258 266.037 25.546C265.567 25.8233 265.034 25.962 264.437 25.962ZM264.437 24.346C264.757 24.346 265.023 24.2767 265.237 24.138C265.45 23.9887 265.61 23.802 265.717 23.578C265.834 23.3433 265.893 23.098 265.893 22.842C265.893 22.5753 265.834 22.33 265.717 22.106C265.61 21.882 265.45 21.6953 265.237 21.546C265.023 21.3967 264.757 21.322 264.437 21.322C264.138 21.322 263.877 21.3967 263.653 21.546C263.439 21.6953 263.274 21.8873 263.157 22.122C263.039 22.346 262.981 22.586 262.981 22.842C262.981 23.0873 263.039 23.3273 263.157 23.562C263.274 23.7967 263.439 23.9887 263.653 24.138C263.877 24.2767 264.138 24.346 264.437 24.346ZM272.565 32.026C271.978 32.026 271.445 31.8873 270.965 31.61C270.495 31.322 270.122 30.9433 269.845 30.474C269.567 30.0047 269.429 29.482 269.429 28.906C269.429 28.33 269.567 27.8073 269.845 27.338C270.122 26.858 270.495 26.4793 270.965 26.202C271.445 25.9247 271.978 25.786 272.565 25.786C273.162 25.786 273.695 25.9247 274.165 26.202C274.634 26.4793 275.007 26.858 275.285 27.338C275.562 27.8073 275.701 28.33 275.701 28.906C275.701 29.482 275.562 30.0047 275.285 30.474C275.007 30.9433 274.634 31.322 274.165 31.61C273.695 31.8873 273.162 32.026 272.565 32.026ZM272.565 30.41C272.874 30.41 273.135 30.3407 273.349 30.202C273.573 30.0527 273.738 29.866 273.845 29.642C273.962 29.4073 274.021 29.162 274.021 28.906C274.021 28.6393 273.962 28.394 273.845 28.17C273.738 27.946 273.573 27.7593 273.349 27.61C273.135 27.4607 272.874 27.386 272.565 27.386C272.266 27.386 272.005 27.4607 271.781 27.61C271.567 27.7593 271.402 27.9513 271.285 28.186C271.167 28.41 271.109 28.65 271.109 28.906C271.109 29.1513 271.167 29.3913 271.285 29.626C271.402 29.8607 271.567 30.0527 271.781 30.202C272.005 30.3407 272.266 30.41 272.565 30.41Z" fill="#EC008C"/>
</g>
</g>
<defs>
<filter id="filter0_b_743_10798" x="-2" y="-1.16602" width="347" height="52" filterUnits="userSpaceOnUse" color-interpolation-filters="sRGB">
<feFlood flood-opacity="0" result="BackgroundImageFix"/>
<feGaussianBlur in="BackgroundImageFix" stdDeviation="1"/>
<feComposite in2="SourceAlpha" operator="in" result="effect1_backgroundBlur_743_10798"/>
<feBlend mode="normal" in="SourceGraphic" in2="effect1_backgroundBlur_743_10798" result="shape"/>
</filter>
<filter id="filter1_b_743_10798" x="51.4009" y="3.54398" width="187.609" height="45.86" filterUnits="userSpaceOnUse" color-interpolation-filters="sRGB">
<feFlood flood-opacity="0" result="BackgroundImageFix"/>
<feGaussianBlur in="BackgroundImageFix" stdDeviation="8"/>
<feComposite in2="SourceAlpha" operator="in" result="effect1_backgroundBlur_743_10798"/>
<feBlend mode="normal" in="SourceGraphic" in2="effect1_backgroundBlur_743_10798" result="shape"/>
</filter>
<filter id="filter2_b_743_10798" x="228.597" y="3.72198" width="63.104" height="44.304" filterUnits="userSpaceOnUse" color-interpolation-filters="sRGB">
<feFlood flood-opacity="0" result="BackgroundImageFix"/>
<feGaussianBlur in="BackgroundImageFix" stdDeviation="8"/>
<feComposite in2="SourceAlpha" operator="in" result="effect1_backgroundBlur_743_10798"/>
<feBlend mode="normal" in="SourceGraphic" in2="effect1_backgroundBlur_743_10798" result="shape"/>
</filter>
<linearGradient id="paint0_linear_743_10798" x1="171.5" y1="0.833984" x2="171.5" y2="48.834" gradientUnits="userSpaceOnUse">
<stop stop-color="white"/>
<stop offset="1" stop-color="#DBDBDB"/>
</linearGradient>
</defs>
</svg>
