<svg width="168" height="49" viewBox="0 0 168 49" fill="none" xmlns="http://www.w3.org/2000/svg">
<g filter="url(#filter0_b_743_10793)">
<rect x="0.5" y="0.833984" width="167.5" height="48" rx="24" fill="#E1F3FD" fill-opacity="0.32"/>
<rect x="1.5" y="1.83398" width="165.5" height="46" rx="23" stroke="url(#paint0_linear_743_10793)" stroke-width="2"/>
<g filter="url(#filter1_b_743_10793)">
<path d="M36.8449 30.044C36.1216 30.044 35.4683 29.9203 34.8849 29.673C34.3063 29.421 33.8279 29.064 33.4499 28.602C33.0766 28.1353 32.8339 27.5823 32.7219 26.943L34.2479 26.712C34.4019 27.328 34.7239 27.8087 35.2139 28.154C35.7039 28.4947 36.2756 28.665 36.9289 28.665C37.3349 28.665 37.7083 28.602 38.0489 28.476C38.3896 28.3453 38.6626 28.161 38.8679 27.923C39.0779 27.6803 39.1829 27.391 39.1829 27.055C39.1829 26.873 39.1503 26.712 39.0849 26.572C39.0243 26.432 38.9379 26.3107 38.8259 26.208C38.7186 26.1007 38.5856 26.0097 38.4269 25.935C38.2729 25.8557 38.1026 25.788 37.9159 25.732L35.3329 24.969C35.0809 24.8943 34.8243 24.7987 34.5629 24.682C34.3016 24.5607 34.0613 24.4043 33.8419 24.213C33.6273 24.017 33.4523 23.7767 33.3169 23.492C33.1816 23.2027 33.1139 22.8527 33.1139 22.442C33.1139 21.8213 33.2726 21.2963 33.5899 20.867C33.9119 20.433 34.3459 20.1063 34.8919 19.887C35.4379 19.663 36.0493 19.551 36.7259 19.551C37.4073 19.5603 38.0163 19.6817 38.5529 19.915C39.0943 20.1483 39.5423 20.4843 39.8969 20.923C40.2563 21.357 40.5036 21.8843 40.6389 22.505L39.0709 22.771C39.0009 22.393 38.8516 22.0687 38.6229 21.798C38.3943 21.5227 38.1143 21.3127 37.7829 21.168C37.4516 21.0187 37.0923 20.9417 36.7049 20.937C36.3316 20.9277 35.9886 20.9837 35.6759 21.105C35.3679 21.2263 35.1206 21.3967 34.9339 21.616C34.7519 21.8353 34.6609 22.0873 34.6609 22.372C34.6609 22.652 34.7426 22.8783 34.9059 23.051C35.0693 23.2237 35.2699 23.3613 35.5079 23.464C35.7506 23.562 35.9909 23.6437 36.2289 23.709L38.0909 24.234C38.3243 24.2993 38.5879 24.388 38.8819 24.5C39.1806 24.6073 39.4676 24.759 39.7429 24.955C40.0229 25.151 40.2539 25.4123 40.4359 25.739C40.6179 26.061 40.7089 26.467 40.7089 26.957C40.7089 27.4657 40.6063 27.9137 40.4009 28.301C40.1956 28.6837 39.9133 29.0057 39.5539 29.267C39.1993 29.5237 38.7886 29.7173 38.3219 29.848C37.8553 29.9787 37.3629 30.044 36.8449 30.044ZM46.5267 29.834C46.0507 29.9273 45.584 29.967 45.1267 29.953C44.6694 29.939 44.261 29.8503 43.9017 29.687C43.5424 29.5237 43.2717 29.267 43.0897 28.917C42.9264 28.6043 42.8377 28.287 42.8237 27.965C42.8144 27.6383 42.8097 27.2697 42.8097 26.859V20.174H44.2797V26.789C44.2797 27.0923 44.282 27.356 44.2867 27.58C44.296 27.804 44.345 27.993 44.4337 28.147C44.6017 28.4363 44.8677 28.602 45.2317 28.644C45.6004 28.6813 46.032 28.665 46.5267 28.595V29.834ZM41.3607 23.45V22.274H46.5267V23.45H41.3607ZM50.2556 30.044C49.6956 30.044 49.2266 29.9413 48.8486 29.736C48.4706 29.526 48.1836 29.2507 47.9876 28.91C47.7963 28.5647 47.7006 28.1867 47.7006 27.776C47.7006 27.3933 47.7683 27.0573 47.9036 26.768C48.039 26.4787 48.2396 26.2337 48.5056 26.033C48.7716 25.8277 49.0983 25.662 49.4856 25.536C49.8216 25.438 50.202 25.3517 50.6266 25.277C51.0513 25.2023 51.497 25.1323 51.9636 25.067C52.435 25.0017 52.9016 24.9363 53.3636 24.871L52.8316 25.165C52.841 24.5723 52.715 24.1337 52.4536 23.849C52.197 23.5597 51.7536 23.415 51.1236 23.415C50.727 23.415 50.363 23.5083 50.0316 23.695C49.7003 23.877 49.4693 24.1803 49.3386 24.605L47.9736 24.185C48.1603 23.5363 48.515 23.0207 49.0376 22.638C49.565 22.2553 50.265 22.064 51.1376 22.064C51.8143 22.064 52.4023 22.1807 52.9016 22.414C53.4056 22.6427 53.7743 23.0067 54.0076 23.506C54.129 23.7533 54.2036 24.0147 54.2316 24.29C54.2596 24.5653 54.2736 24.8617 54.2736 25.179V29.834H52.9786V28.105L53.2306 28.329C52.918 28.9077 52.519 29.3393 52.0336 29.624C51.553 29.904 50.9603 30.044 50.2556 30.044ZM50.5146 28.847C50.93 28.847 51.287 28.7747 51.5856 28.63C51.8843 28.4807 52.1246 28.2917 52.3066 28.063C52.4886 27.8343 52.6076 27.5963 52.6636 27.349C52.743 27.125 52.7873 26.873 52.7966 26.593C52.8106 26.313 52.8176 26.089 52.8176 25.921L53.2936 26.096C52.8316 26.166 52.4116 26.229 52.0336 26.285C51.6556 26.341 51.3126 26.397 51.0046 26.453C50.7013 26.5043 50.4306 26.5673 50.1926 26.642C49.992 26.712 49.8123 26.796 49.6536 26.894C49.4996 26.992 49.376 27.111 49.2826 27.251C49.194 27.391 49.1496 27.5613 49.1496 27.762C49.1496 27.958 49.1986 28.14 49.2966 28.308C49.3946 28.4713 49.544 28.602 49.7446 28.7C49.9453 28.798 50.202 28.847 50.5146 28.847ZM56.0843 29.834L56.0913 19.754H57.5753V25.914L60.5433 22.274H62.4053L59.2693 26.054L62.7273 29.834H60.7393L57.5753 26.194V29.834H56.0843ZM63.5731 21.035V19.614H65.0361V21.035H63.5731ZM63.5731 29.834V22.274H65.0361V29.834H63.5731ZM72.4442 29.834V26.117C72.4442 25.823 72.4185 25.522 72.3672 25.214C72.3205 24.9013 72.2272 24.612 72.0872 24.346C71.9519 24.08 71.7582 23.8653 71.5062 23.702C71.2589 23.5387 70.9345 23.457 70.5332 23.457C70.2719 23.457 70.0245 23.5013 69.7912 23.59C69.5579 23.674 69.3525 23.8117 69.1752 24.003C69.0025 24.1943 68.8649 24.4463 68.7622 24.759C68.6642 25.0717 68.6152 25.452 68.6152 25.9L67.7052 25.557C67.7052 24.871 67.8335 24.2667 68.0902 23.744C68.3469 23.2167 68.7155 22.806 69.1962 22.512C69.6769 22.218 70.2579 22.071 70.9392 22.071C71.4619 22.071 71.9005 22.155 72.2552 22.323C72.6099 22.491 72.8969 22.7127 73.1162 22.988C73.3402 23.2587 73.5105 23.555 73.6272 23.877C73.7439 24.199 73.8232 24.514 73.8652 24.822C73.9072 25.13 73.9282 25.4007 73.9282 25.634V29.834H72.4442ZM67.1312 29.834V22.274H68.4402V24.458H68.6152V29.834H67.1312ZM78.8665 33.404C78.4605 33.404 78.0662 33.341 77.6835 33.215C77.3055 33.089 76.9602 32.9023 76.6475 32.655C76.3348 32.4123 76.0758 32.1113 75.8705 31.752L77.2215 31.066C77.3848 31.388 77.6182 31.6237 77.9215 31.773C78.2248 31.9223 78.5445 31.997 78.8805 31.997C79.2958 31.997 79.6505 31.9223 79.9445 31.773C80.2385 31.6283 80.4602 31.409 80.6095 31.115C80.7635 30.821 80.8382 30.457 80.8335 30.023V27.909H81.0085V22.274H82.3035V30.037C82.3035 30.2377 82.2965 30.429 82.2825 30.611C82.2685 30.793 82.2428 30.975 82.2055 31.157C82.0982 31.6657 81.8928 32.0857 81.5895 32.417C81.2908 32.7483 80.9082 32.9957 80.4415 33.159C79.9795 33.3223 79.4545 33.404 78.8665 33.404ZM78.7545 30.044C78.0498 30.044 77.4408 29.869 76.9275 29.519C76.4188 29.169 76.0245 28.693 75.7445 28.091C75.4692 27.4843 75.3315 26.803 75.3315 26.047C75.3315 25.2863 75.4715 24.6073 75.7515 24.01C76.0315 23.408 76.4282 22.9343 76.9415 22.589C77.4595 22.239 78.0732 22.064 78.7825 22.064C79.4965 22.064 80.0962 22.239 80.5815 22.589C81.0715 22.9343 81.4402 23.408 81.6875 24.01C81.9395 24.612 82.0655 25.291 82.0655 26.047C82.0655 26.803 81.9395 27.482 81.6875 28.084C81.4355 28.686 81.0645 29.1643 80.5745 29.519C80.0845 29.869 79.4778 30.044 78.7545 30.044ZM78.9575 28.721C79.4382 28.721 79.8302 28.6067 80.1335 28.378C80.4368 28.1493 80.6585 27.8343 80.7985 27.433C80.9385 27.0317 81.0085 26.5697 81.0085 26.047C81.0085 25.5243 80.9362 25.0623 80.7915 24.661C80.6515 24.2597 80.4322 23.947 80.1335 23.723C79.8395 23.499 79.4638 23.387 79.0065 23.387C78.5212 23.387 78.1222 23.506 77.8095 23.744C77.4968 23.982 77.2635 24.3017 77.1095 24.703C76.9602 25.1043 76.8855 25.5523 76.8855 26.047C76.8855 26.5463 76.9602 26.999 77.1095 27.405C77.2635 27.8063 77.4922 28.126 77.7955 28.364C78.1035 28.602 78.4908 28.721 78.9575 28.721Z" fill="#684D5D"/>
</g>
<circle cx="93.75" cy="24.834" r="2" fill="#AC0F65" fill-opacity="0.32"/>
<g filter="url(#filter2_b_743_10793)">
<path d="M106.69 31.834V21.77H104.386V19.914H108.866V31.834H106.69ZM115.051 32.026C114.24 32.026 113.52 31.8553 112.891 31.514C112.272 31.162 111.787 30.6927 111.435 30.106C111.083 29.5087 110.907 28.8313 110.907 28.074C110.907 27.69 110.944 27.306 111.019 26.922C111.104 26.538 111.253 26.1273 111.467 25.69C111.691 25.2527 112.011 24.7673 112.427 24.234L115.755 19.914H118.347L114.299 25.114L113.947 24.73C114.096 24.6127 114.251 24.522 114.411 24.458C114.571 24.3833 114.731 24.33 114.891 24.298C115.061 24.266 115.237 24.25 115.419 24.25C116.144 24.25 116.789 24.4153 117.355 24.746C117.92 25.0767 118.363 25.53 118.683 26.106C119.013 26.6713 119.179 27.3113 119.179 28.026C119.179 28.794 119.003 29.482 118.651 30.09C118.299 30.6873 117.808 31.162 117.179 31.514C116.56 31.8553 115.851 32.026 115.051 32.026ZM115.051 30.058C115.413 30.058 115.739 29.978 116.027 29.818C116.325 29.6473 116.56 29.4073 116.731 29.098C116.912 28.7887 117.003 28.442 117.003 28.058C117.003 27.6527 116.912 27.306 116.731 27.018C116.56 26.7193 116.331 26.4847 116.043 26.314C115.755 26.1433 115.424 26.058 115.051 26.058C114.688 26.058 114.357 26.1433 114.059 26.314C113.76 26.4847 113.52 26.7193 113.339 27.018C113.168 27.306 113.083 27.6527 113.083 28.058C113.083 28.442 113.168 28.7887 113.339 29.098C113.52 29.4073 113.76 29.6473 114.059 29.818C114.357 29.978 114.688 30.058 115.051 30.058ZM122.292 31.834L131.956 19.914H134.196L124.532 31.834H122.292ZM124.148 25.962C123.561 25.962 123.028 25.8233 122.548 25.546C122.078 25.258 121.705 24.8793 121.428 24.41C121.15 23.9407 121.012 23.418 121.012 22.842C121.012 22.266 121.15 21.7433 121.428 21.274C121.705 20.794 122.078 20.4153 122.548 20.138C123.028 19.8607 123.561 19.722 124.148 19.722C124.745 19.722 125.278 19.8607 125.748 20.138C126.217 20.4153 126.59 20.794 126.868 21.274C127.145 21.7433 127.284 22.266 127.284 22.842C127.284 23.418 127.145 23.9407 126.868 24.41C126.59 24.8793 126.217 25.258 125.748 25.546C125.278 25.8233 124.745 25.962 124.148 25.962ZM124.148 24.346C124.468 24.346 124.734 24.2767 124.948 24.138C125.161 23.9887 125.321 23.802 125.428 23.578C125.545 23.3433 125.604 23.098 125.604 22.842C125.604 22.5753 125.545 22.33 125.428 22.106C125.321 21.882 125.161 21.6953 124.948 21.546C124.734 21.3967 124.468 21.322 124.148 21.322C123.849 21.322 123.588 21.3967 123.364 21.546C123.15 21.6953 122.985 21.8873 122.868 22.122C122.75 22.346 122.692 22.586 122.692 22.842C122.692 23.0873 122.75 23.3273 122.868 23.562C122.985 23.7967 123.15 23.9887 123.364 24.138C123.588 24.2767 123.849 24.346 124.148 24.346ZM132.276 32.026C131.689 32.026 131.156 31.8873 130.676 31.61C130.206 31.322 129.833 30.9433 129.556 30.474C129.278 30.0047 129.14 29.482 129.14 28.906C129.14 28.33 129.278 27.8073 129.556 27.338C129.833 26.858 130.206 26.4793 130.676 26.202C131.156 25.9247 131.689 25.786 132.276 25.786C132.873 25.786 133.406 25.9247 133.876 26.202C134.345 26.4793 134.718 26.858 134.996 27.338C135.273 27.8073 135.412 28.33 135.412 28.906C135.412 29.482 135.273 30.0047 134.996 30.474C134.718 30.9433 134.345 31.322 133.876 31.61C133.406 31.8873 132.873 32.026 132.276 32.026ZM132.276 30.41C132.585 30.41 132.846 30.3407 133.06 30.202C133.284 30.0527 133.449 29.866 133.556 29.642C133.673 29.4073 133.732 29.162 133.732 28.906C133.732 28.6393 133.673 28.394 133.556 28.17C133.449 27.946 133.284 27.7593 133.06 27.61C132.846 27.4607 132.585 27.386 132.276 27.386C131.977 27.386 131.716 27.4607 131.492 27.61C131.278 27.7593 131.113 27.9513 130.996 28.186C130.878 28.41 130.82 28.65 130.82 28.906C130.82 29.1513 130.878 29.3913 130.996 29.626C131.113 29.8607 131.278 30.0527 131.492 30.202C131.716 30.3407 131.977 30.41 132.276 30.41Z" fill="#EC008C"/>
</g>
</g>
<defs>
<filter id="filter0_b_743_10793" x="-1.5" y="-1.16602" width="171.5" height="52" filterUnits="userSpaceOnUse" color-interpolation-filters="sRGB">
<feFlood flood-opacity="0" result="BackgroundImageFix"/>
<feGaussianBlur in="BackgroundImageFix" stdDeviation="1"/>
<feComposite in2="SourceAlpha" operator="in" result="effect1_backgroundBlur_743_10793"/>
<feBlend mode="normal" in="SourceGraphic" in2="effect1_backgroundBlur_743_10793" result="shape"/>
</filter>
<filter id="filter1_b_743_10793" x="16.7222" y="3.55098" width="81.5815" height="45.853" filterUnits="userSpaceOnUse" color-interpolation-filters="sRGB">
<feFlood flood-opacity="0" result="BackgroundImageFix"/>
<feGaussianBlur in="BackgroundImageFix" stdDeviation="8"/>
<feComposite in2="SourceAlpha" operator="in" result="effect1_backgroundBlur_743_10793"/>
<feBlend mode="normal" in="SourceGraphic" in2="effect1_backgroundBlur_743_10793" result="shape"/>
</filter>
<filter id="filter2_b_743_10793" x="88.3857" y="3.72198" width="63.0259" height="44.304" filterUnits="userSpaceOnUse" color-interpolation-filters="sRGB">
<feFlood flood-opacity="0" result="BackgroundImageFix"/>
<feGaussianBlur in="BackgroundImageFix" stdDeviation="8"/>
<feComposite in2="SourceAlpha" operator="in" result="effect1_backgroundBlur_743_10793"/>
<feBlend mode="normal" in="SourceGraphic" in2="effect1_backgroundBlur_743_10793" result="shape"/>
</filter>
<linearGradient id="paint0_linear_743_10793" x1="84.25" y1="0.833984" x2="84.25" y2="48.834" gradientUnits="userSpaceOnUse">
<stop stop-color="white"/>
<stop offset="1" stop-color="#DBDBDB"/>
</linearGradient>
</defs>
</svg>
