<svg width="168" height="49" viewBox="0 0 168 49" fill="none" xmlns="http://www.w3.org/2000/svg">
<g filter="url(#filter0_b_743_10768)">
<rect y="0.833984" width="167.5" height="48" rx="24" fill="#E1F3FD" fill-opacity="0.32"/>
<rect x="1" y="1.83398" width="165.5" height="46" rx="23" stroke="url(#paint0_linear_743_10768)" stroke-width="2"/>
<g filter="url(#filter1_b_743_10768)">
<path d="M35.3191 29.834L38.5951 19.754H40.7021L43.9781 29.834H42.4591L39.4421 20.636H39.8201L36.8381 29.834H35.3191ZM37.0201 27.559V26.187H42.2841V27.559H37.0201ZM48.2369 30.044C47.5322 30.044 46.9232 29.869 46.4099 29.519C45.9012 29.169 45.5069 28.693 45.2269 28.091C44.9516 27.4843 44.8139 26.803 44.8139 26.047C44.8139 25.2863 44.9539 24.6073 45.2339 24.01C45.5139 23.408 45.9106 22.9343 46.4239 22.589C46.9419 22.239 47.5556 22.064 48.2649 22.064C48.9789 22.064 49.5786 22.239 50.0639 22.589C50.5539 22.9343 50.9226 23.408 51.1699 24.01C51.4219 24.612 51.5479 25.291 51.5479 26.047C51.5479 26.803 51.4219 27.482 51.1699 28.084C50.9179 28.686 50.5469 29.1643 50.0569 29.519C49.5669 29.869 48.9602 30.044 48.2369 30.044ZM48.4399 28.721C48.9206 28.721 49.3126 28.6067 49.6159 28.378C49.9192 28.1493 50.1409 27.8343 50.2809 27.433C50.4209 27.0317 50.4909 26.5697 50.4909 26.047C50.4909 25.5243 50.4186 25.0623 50.2739 24.661C50.1339 24.2597 49.9146 23.947 49.6159 23.723C49.3219 23.499 48.9462 23.387 48.4889 23.387C48.0036 23.387 47.6046 23.506 47.2919 23.744C46.9792 23.982 46.7459 24.3017 46.5919 24.703C46.4426 25.1043 46.3679 25.5523 46.3679 26.047C46.3679 26.5463 46.4426 26.999 46.5919 27.405C46.7459 27.8063 46.9746 28.126 47.2779 28.364C47.5859 28.602 47.9732 28.721 48.4399 28.721ZM50.4909 29.834V24.395H50.3229V19.754H51.7929V29.834H50.4909ZM55.7955 29.834L53.0515 22.274H54.5285L56.5375 28L58.5465 22.274H60.0235L57.2795 29.834H55.7955ZM61.4247 21.035V19.614H62.8877V21.035H61.4247ZM61.4247 29.834V22.274H62.8877V29.834H61.4247ZM67.8808 30.037C66.9614 30.037 66.2124 29.834 65.6338 29.428C65.0551 29.022 64.7004 28.4503 64.5698 27.713L66.0678 27.482C66.1611 27.874 66.3758 28.1843 66.7118 28.413C67.0524 28.637 67.4748 28.749 67.9788 28.749C68.4361 28.749 68.7931 28.6557 69.0498 28.469C69.3111 28.2823 69.4418 28.0257 69.4418 27.699C69.4418 27.5077 69.3951 27.3537 69.3018 27.237C69.2131 27.1157 69.0241 27.0013 68.7348 26.894C68.4454 26.7867 68.0044 26.6537 67.4118 26.495C66.7631 26.327 66.2474 26.1473 65.8648 25.956C65.4868 25.76 65.2161 25.5337 65.0528 25.277C64.8941 25.0157 64.8148 24.7007 64.8148 24.332C64.8148 23.8747 64.9361 23.4757 65.1788 23.135C65.4214 22.7943 65.7621 22.5307 66.2008 22.344C66.6441 22.1573 67.1621 22.064 67.7548 22.064C68.3334 22.064 68.8491 22.155 69.3018 22.337C69.7544 22.519 70.1208 22.778 70.4008 23.114C70.6808 23.4453 70.8488 23.835 70.9048 24.283L69.4068 24.556C69.3554 24.192 69.1851 23.905 68.8958 23.695C68.6064 23.485 68.2308 23.3707 67.7688 23.352C67.3254 23.3333 66.9661 23.408 66.6908 23.576C66.4154 23.7393 66.2778 23.9657 66.2778 24.255C66.2778 24.423 66.3291 24.5653 66.4318 24.682C66.5391 24.7987 66.7444 24.9107 67.0478 25.018C67.3511 25.1253 67.7991 25.2537 68.3918 25.403C69.0264 25.5663 69.5304 25.7483 69.9038 25.949C70.2771 26.145 70.5431 26.3807 70.7018 26.656C70.8651 26.9267 70.9468 27.2557 70.9468 27.643C70.9468 28.3897 70.6738 28.9753 70.1278 29.4C69.5864 29.8247 68.8374 30.037 67.8808 30.037ZM75.7786 30.044C75.0226 30.044 74.367 29.8737 73.8116 29.533C73.2563 29.1923 72.827 28.7233 72.5236 28.126C72.225 27.524 72.0756 26.831 72.0756 26.047C72.0756 25.2583 72.2296 24.5653 72.5376 23.968C72.8456 23.366 73.2773 22.8993 73.8326 22.568C74.388 22.232 75.0366 22.064 75.7786 22.064C76.5346 22.064 77.1903 22.2343 77.7456 22.575C78.301 22.9157 78.7303 23.3847 79.0336 23.982C79.337 24.5793 79.4886 25.2677 79.4886 26.047C79.4886 26.8357 79.3346 27.531 79.0266 28.133C78.7233 28.7303 78.294 29.1993 77.7386 29.54C77.1833 29.876 76.53 30.044 75.7786 30.044ZM75.7786 28.665C76.502 28.665 77.041 28.4223 77.3956 27.937C77.755 27.447 77.9346 26.817 77.9346 26.047C77.9346 25.2583 77.7526 24.6283 77.3886 24.157C77.0293 23.681 76.4926 23.443 75.7786 23.443C75.2886 23.443 74.885 23.555 74.5676 23.779C74.2503 23.9983 74.0146 24.304 73.8606 24.696C73.7066 25.0833 73.6296 25.5337 73.6296 26.047C73.6296 26.8403 73.8116 27.475 74.1756 27.951C74.5396 28.427 75.074 28.665 75.7786 28.665ZM81.0269 29.834V22.274H82.3289V24.108L82.1469 23.87C82.2402 23.6273 82.3615 23.4057 82.5109 23.205C82.6602 22.9997 82.8329 22.8317 83.0289 22.701C83.2202 22.561 83.4325 22.4537 83.6659 22.379C83.9039 22.2997 84.1465 22.253 84.3939 22.239C84.6412 22.2203 84.8792 22.232 85.1079 22.274V23.646C84.8605 23.5807 84.5852 23.562 84.2819 23.59C83.9832 23.618 83.7079 23.7137 83.4559 23.877C83.2179 24.031 83.0289 24.2177 82.8889 24.437C82.7535 24.6563 82.6555 24.9013 82.5949 25.172C82.5342 25.438 82.5039 25.7203 82.5039 26.019V29.834H81.0269Z" fill="#684D5D"/>
</g>
<circle cx="95.75" cy="24.834" r="2" fill="#AC0F65" fill-opacity="0.32"/>
<g filter="url(#filter2_b_743_10768)">
<path d="M106.845 31.834V30.186L110.077 26.81C110.717 26.138 111.208 25.6047 111.549 25.21C111.901 24.8047 112.147 24.458 112.285 24.17C112.424 23.882 112.493 23.5887 112.493 23.29C112.493 22.7887 112.333 22.394 112.013 22.106C111.704 21.818 111.304 21.674 110.813 21.674C110.301 21.674 109.859 21.8233 109.485 22.122C109.112 22.41 108.84 22.8367 108.669 23.402L106.765 22.81C106.893 22.1807 107.155 21.6367 107.549 21.178C107.944 20.7087 108.424 20.3513 108.989 20.106C109.565 19.85 110.173 19.722 110.813 19.722C111.581 19.722 112.253 19.8607 112.829 20.138C113.416 20.4153 113.869 20.8047 114.189 21.306C114.52 21.8073 114.685 22.394 114.685 23.066C114.685 23.4927 114.605 23.914 114.445 24.33C114.285 24.746 114.045 25.1727 113.725 25.61C113.405 26.0367 112.989 26.5167 112.477 27.05L109.677 29.994H114.845V31.834H106.845ZM118.104 31.834L127.768 19.914H130.008L120.344 31.834H118.104ZM119.96 25.962C119.374 25.962 118.84 25.8233 118.36 25.546C117.891 25.258 117.518 24.8793 117.24 24.41C116.963 23.9407 116.824 23.418 116.824 22.842C116.824 22.266 116.963 21.7433 117.24 21.274C117.518 20.794 117.891 20.4153 118.36 20.138C118.84 19.8607 119.374 19.722 119.96 19.722C120.558 19.722 121.091 19.8607 121.56 20.138C122.03 20.4153 122.403 20.794 122.68 21.274C122.958 21.7433 123.096 22.266 123.096 22.842C123.096 23.418 122.958 23.9407 122.68 24.41C122.403 24.8793 122.03 25.258 121.56 25.546C121.091 25.8233 120.558 25.962 119.96 25.962ZM119.96 24.346C120.28 24.346 120.547 24.2767 120.76 24.138C120.974 23.9887 121.134 23.802 121.24 23.578C121.358 23.3433 121.416 23.098 121.416 22.842C121.416 22.5753 121.358 22.33 121.24 22.106C121.134 21.882 120.974 21.6953 120.76 21.546C120.547 21.3967 120.28 21.322 119.96 21.322C119.662 21.322 119.4 21.3967 119.176 21.546C118.963 21.6953 118.798 21.8873 118.68 22.122C118.563 22.346 118.504 22.586 118.504 22.842C118.504 23.0873 118.563 23.3273 118.68 23.562C118.798 23.7967 118.963 23.9887 119.176 24.138C119.4 24.2767 119.662 24.346 119.96 24.346ZM128.088 32.026C127.502 32.026 126.968 31.8873 126.488 31.61C126.019 31.322 125.646 30.9433 125.368 30.474C125.091 30.0047 124.952 29.482 124.952 28.906C124.952 28.33 125.091 27.8073 125.368 27.338C125.646 26.858 126.019 26.4793 126.488 26.202C126.968 25.9247 127.502 25.786 128.088 25.786C128.686 25.786 129.219 25.9247 129.688 26.202C130.158 26.4793 130.531 26.858 130.808 27.338C131.086 27.8073 131.224 28.33 131.224 28.906C131.224 29.482 131.086 30.0047 130.808 30.474C130.531 30.9433 130.158 31.322 129.688 31.61C129.219 31.8873 128.686 32.026 128.088 32.026ZM128.088 30.41C128.398 30.41 128.659 30.3407 128.872 30.202C129.096 30.0527 129.262 29.866 129.368 29.642C129.486 29.4073 129.544 29.162 129.544 28.906C129.544 28.6393 129.486 28.394 129.368 28.17C129.262 27.946 129.096 27.7593 128.872 27.61C128.659 27.4607 128.398 27.386 128.088 27.386C127.79 27.386 127.528 27.4607 127.304 27.61C127.091 27.7593 126.926 27.9513 126.808 28.186C126.691 28.41 126.632 28.65 126.632 28.906C126.632 29.1513 126.691 29.3913 126.808 29.626C126.926 29.8607 127.091 30.0527 127.304 30.202C127.528 30.3407 127.79 30.41 128.088 30.41Z" fill="#EC008C"/>
</g>
</g>
<defs>
<filter id="filter0_b_743_10768" x="-2" y="-1.16602" width="171.5" height="52" filterUnits="userSpaceOnUse" color-interpolation-filters="sRGB">
<feFlood flood-opacity="0" result="BackgroundImageFix"/>
<feGaussianBlur in="BackgroundImageFix" stdDeviation="1"/>
<feComposite in2="SourceAlpha" operator="in" result="effect1_backgroundBlur_743_10768"/>
<feBlend mode="normal" in="SourceGraphic" in2="effect1_backgroundBlur_743_10768" result="shape"/>
</filter>
<filter id="filter1_b_743_10768" x="19.3188" y="3.61398" width="81.7891" height="42.43" filterUnits="userSpaceOnUse" color-interpolation-filters="sRGB">
<feFlood flood-opacity="0" result="BackgroundImageFix"/>
<feGaussianBlur in="BackgroundImageFix" stdDeviation="8"/>
<feComposite in2="SourceAlpha" operator="in" result="effect1_backgroundBlur_743_10768"/>
<feBlend mode="normal" in="SourceGraphic" in2="effect1_backgroundBlur_743_10768" result="shape"/>
</filter>
<filter id="filter2_b_743_10768" x="90.7651" y="3.72198" width="56.459" height="44.304" filterUnits="userSpaceOnUse" color-interpolation-filters="sRGB">
<feFlood flood-opacity="0" result="BackgroundImageFix"/>
<feGaussianBlur in="BackgroundImageFix" stdDeviation="8"/>
<feComposite in2="SourceAlpha" operator="in" result="effect1_backgroundBlur_743_10768"/>
<feBlend mode="normal" in="SourceGraphic" in2="effect1_backgroundBlur_743_10768" result="shape"/>
</filter>
<linearGradient id="paint0_linear_743_10768" x1="83.75" y1="0.833984" x2="83.75" y2="48.834" gradientUnits="userSpaceOnUse">
<stop stop-color="white"/>
<stop offset="1" stop-color="#DBDBDB"/>
</linearGradient>
</defs>
</svg>
