<svg width="234" height="64" viewBox="0 0 234 64" fill="none" xmlns="http://www.w3.org/2000/svg">
<path d="M54.918 26.7353C54.7548 26.1562 54.0859 25.9074 53.5761 26.2255C49.3913 28.8318 43.8973 28.893 39.5575 25.9441C35.2341 23.0033 33.2722 17.8886 34.141 13.0553C34.247 12.468 33.7617 11.9418 33.1703 12.0071C32.2485 12.105 31.343 12.264 30.4579 12.4802C30.0949 12.5699 29.8216 12.8718 29.7768 13.247C29.0181 19.41 31.657 25.7646 37.1388 29.5007C42.6451 33.245 49.5504 33.351 55.0159 30.3613C55.3463 30.1819 55.5257 29.8148 55.4768 29.4436C55.3544 28.5177 55.1627 27.6163 54.918 26.7353Z" fill="#3C8476"/>
<path d="M32.0241 32.0458C32.5136 25.4057 29.1527 19.3732 23.83 16.1388C23.5078 15.943 23.104 15.9675 22.8062 16.2C22.0843 16.7629 21.3991 17.3747 20.7587 18.0313C20.3386 18.4596 20.4569 19.1652 20.9871 19.4507C25.3309 21.7715 28.133 26.5028 27.7456 31.7277C27.3581 36.9362 23.9156 41.1903 19.2985 42.8585C18.7357 43.0624 18.5154 43.7436 18.8703 44.229C19.4127 44.9713 20.0041 45.6769 20.6404 46.3377C20.9015 46.6068 21.2971 46.6884 21.6438 46.5457C27.3499 44.1147 31.5347 38.6574 32.0241 32.0458Z" fill="#3C8476"/>
<path d="M36.792 35.2028C30.7963 38.0946 27.2519 44.025 27.1091 50.2573C27.1009 50.6326 27.3253 50.9711 27.672 51.1139C28.5163 51.4565 29.3891 51.742 30.2905 51.9704C30.8697 52.1172 31.4244 51.6686 31.404 51.069C31.2368 46.1419 33.9287 41.3453 38.656 39.0653C43.3628 36.7935 48.7712 37.6541 52.5236 40.8192C52.9845 41.2066 53.682 41.0557 53.9267 40.5092C54.2978 39.6771 54.6119 38.8084 54.8689 37.9192C54.9708 37.5603 54.8444 37.1728 54.5466 36.9485C49.5869 33.2124 42.7673 32.3191 36.792 35.2028Z" fill="#3C8476"/>
<path d="M49.6521 24.8836C50.2028 17.8804 42.9671 12.9085 36.6288 15.9349L36.1149 16.1796C35.7192 16.3672 35.4867 16.7955 35.5602 17.2319C35.6377 17.6928 35.7437 18.1496 35.8783 18.5942C36.0496 19.1734 36.7104 19.4589 37.2569 19.1979L38.5091 18.6024C42.392 16.7506 46.8297 19.7974 46.4911 24.0923L46.3729 25.63C46.328 26.2255 46.8134 26.7353 47.4088 26.7027C47.8738 26.6782 48.3388 26.6211 48.7956 26.5396C49.2361 26.4621 49.5624 26.0868 49.595 25.6422L49.6521 24.8836ZM47.727 39.7954C47.2865 39.6526 46.8378 39.5384 46.381 39.4487C45.8018 39.3386 45.2553 39.7628 45.2104 40.3501L45.0962 41.7817C44.7577 46.0726 39.8999 48.3933 36.3514 45.9543L35.4256 45.318C34.928 44.9754 34.2305 45.1508 33.9695 45.6973C33.7655 46.1174 33.5901 46.5538 33.4433 46.9943C33.3046 47.4104 33.4637 47.8713 33.8267 48.1201L34.0755 48.2914C39.8673 52.2681 47.7882 48.4872 48.3388 41.4881L48.3918 40.8151C48.4367 40.3623 48.1593 39.9341 47.727 39.7954ZM22.4838 26.2418L23.8053 25.6096C24.3682 25.3404 24.5435 24.6307 24.1805 24.125C23.9073 23.7497 23.6136 23.3908 23.2995 23.0482C23.0099 22.7341 22.5409 22.6525 22.1534 22.8361L21.5946 23.1012C15.2563 26.1276 14.567 34.8846 20.3547 38.8573L21.1949 39.4324C21.5702 39.6934 22.0718 39.6567 22.4185 39.3549C22.7571 39.0612 23.0793 38.7472 23.3811 38.4127C23.789 37.9641 23.7156 37.2625 23.2139 36.9158L21.7252 35.8921C18.1767 33.4652 18.6009 28.0976 22.4838 26.2418Z" fill="#51ABA0"/>
<path d="M65.7293 41.4116C65.5662 41.2484 65.4846 40.967 65.4846 40.5673V23.4611C65.4846 23.0451 65.5662 22.7555 65.7293 22.5924C65.8925 22.4292 66.1739 22.3477 66.5777 22.3477H68.9107C69.3145 22.3477 69.5919 22.4292 69.7469 22.5924C69.9019 22.7555 69.9794 23.0451 69.9794 23.4611V29.9341H76.0852V23.4611C76.0852 23.0451 76.1627 22.7555 76.3177 22.5924C76.4727 22.4292 76.7582 22.3477 77.1824 22.3477H79.4869C79.8907 22.3477 80.1721 22.4292 80.3352 22.5924C80.4984 22.7555 80.58 23.0451 80.58 23.4611V40.5673C80.58 40.967 80.4984 41.2484 80.3352 41.4116C80.1721 41.5747 79.8866 41.6563 79.4869 41.6563H77.1824C76.7582 41.6563 76.4727 41.5788 76.3177 41.4238C76.1627 41.2688 76.0852 40.9833 76.0852 40.5673V33.8252H69.9794V40.5673C69.9794 40.9833 69.9019 41.2688 69.7469 41.4238C69.5919 41.5788 69.3145 41.6563 68.9107 41.6563H66.5777C66.178 41.6563 65.8925 41.5747 65.7293 41.4116Z" fill="#3C8476"/>
<path d="M90.5851 41.4116C90.4219 41.2484 90.3403 40.967 90.3403 40.5673V34.1229L84.1488 23.4367C84.0346 23.2205 83.9775 23.0288 83.9775 22.8657C83.9775 22.523 84.2182 22.3477 84.6995 22.3477H87.3792C88.0114 22.3477 88.4356 22.4088 88.6477 22.523C88.8598 22.6413 89.0719 22.9105 89.2799 23.3265L92.6489 30.0442L96.1321 23.3265C96.3442 22.8901 96.5482 22.6209 96.7521 22.5108C96.956 22.4007 97.3721 22.3477 98.0043 22.3477H100.566C101.047 22.3477 101.288 22.519 101.288 22.8657C101.288 23.0288 101.231 23.2205 101.116 23.4367L94.8392 34.1515V40.5673C94.8392 40.967 94.7576 41.2484 94.5944 41.4116C94.4313 41.5747 94.1499 41.6563 93.7461 41.6563H91.4416C91.0337 41.6563 90.7482 41.5747 90.5851 41.4116Z" fill="#3C8476"/>
<path d="M104.959 41.4116C104.795 41.2484 104.714 40.967 104.714 40.5673V23.4367C104.714 23.037 104.795 22.7555 104.959 22.5924C105.122 22.4292 105.403 22.3477 105.807 22.3477H112.892C114.87 22.3477 116.452 22.8983 117.643 23.9914C118.834 25.0886 119.43 26.6058 119.43 28.5473C119.43 31.1781 118.345 32.9075 116.175 33.7395C116.465 33.9924 116.758 34.4125 117.068 34.9917L119.777 40.5102C119.87 40.7468 119.919 40.9344 119.919 41.0812C119.919 41.4605 119.65 41.6522 119.112 41.6522H116.779C116.106 41.6522 115.645 41.5911 115.396 41.4605C115.147 41.3341 114.927 41.0608 114.735 40.6448L112.806 36.3744C112.459 35.632 112.162 35.1508 111.913 34.9346C111.664 34.7184 111.24 34.6083 110.644 34.6083H109.205V40.5632C109.205 40.9792 109.127 41.2648 108.972 41.4197C108.817 41.5747 108.54 41.6522 108.136 41.6522H105.803C105.403 41.6563 105.122 41.5747 104.959 41.4116ZM112.663 30.8885C113.336 30.8885 113.879 30.6846 114.291 30.2767C114.703 29.8688 114.911 29.3019 114.911 28.5759C114.911 27.8498 114.711 27.2829 114.307 26.875C113.903 26.4672 113.357 26.2632 112.667 26.2632H109.213V30.8844H112.663V30.8885Z" fill="#3C8476"/>
<path d="M122.224 41.1097C122.224 40.9302 122.26 40.7548 122.338 40.5917L128.586 23.2408C128.721 22.8778 128.88 22.6372 129.06 22.5189C129.243 22.4006 129.525 22.3435 129.908 22.3435H132.355C132.718 22.3435 133 22.4006 133.191 22.5189C133.383 22.6372 133.546 22.8574 133.681 23.1837L139.929 40.5876C140.007 40.8405 140.044 41.0036 140.044 41.0771C140.044 41.4564 139.754 41.6481 139.179 41.6481H136.903C136.271 41.6481 135.826 41.5787 135.577 41.4441C135.329 41.3095 135.145 41.0485 135.031 40.6692L134.28 38.0303H127.799L127.02 40.6692C126.906 41.0485 126.722 41.3095 126.474 41.4441C126.225 41.5787 125.801 41.6481 125.205 41.6481H123.043C122.501 41.6562 122.224 41.4727 122.224 41.1097ZM133.138 34.5022L131.927 30.1787C131.523 28.7267 131.266 27.4786 131.148 26.4263H130.948C130.793 27.7478 130.544 28.9918 130.198 30.1502L128.986 34.5022H133.138Z" fill="#3C8476"/>
<path d="M148.952 40.1309C147.577 38.842 146.892 37.0678 146.892 34.8V29.1999C146.892 26.9322 147.577 25.1579 148.952 23.8691C150.322 22.5843 152.251 21.9398 154.727 21.9398C158.569 21.9398 161.053 23.453 162.187 26.4794C162.265 26.6793 162.301 26.8588 162.301 27.0219C162.301 27.2381 162.236 27.4135 162.101 27.5399C161.967 27.6663 161.767 27.7765 161.498 27.8662L159.365 28.4902C159.152 28.5637 158.961 28.6004 158.789 28.6004C158.598 28.6004 158.439 28.5392 158.312 28.4087C158.186 28.2822 158.076 28.0742 157.982 27.7846C157.753 27.132 157.374 26.6467 156.844 26.3285C156.314 26.0104 155.62 25.8513 154.756 25.8513C153.605 25.8513 152.753 26.1246 152.206 26.6671C151.66 27.2095 151.387 28.0457 151.387 29.1673V34.8245C151.387 35.9502 151.664 36.7823 152.223 37.3247C152.777 37.8672 153.642 38.1405 154.817 38.1405C156.412 38.1405 157.448 37.4879 157.929 36.1827C158.027 35.8768 158.141 35.6566 158.276 35.5301C158.41 35.4037 158.573 35.3384 158.765 35.3384C158.863 35.3384 159.042 35.3751 159.312 35.4485L161.53 36.1297C162.048 36.2928 162.309 36.5661 162.309 36.9454C162.309 37.1249 162.273 37.3166 162.195 37.5164C161.677 38.9848 160.788 40.1105 159.532 40.8896C158.276 41.6686 156.677 42.0601 154.735 42.0601C152.251 42.0642 150.326 41.4198 148.952 40.1309Z" fill="#3C8476"/>
<path d="M164.292 41.1097C164.292 40.9302 164.328 40.7548 164.406 40.5917L170.654 23.2408C170.789 22.8778 170.948 22.6372 171.127 22.5189C171.311 22.4006 171.592 22.3435 171.976 22.3435H174.423C174.786 22.3435 175.067 22.4006 175.259 22.5189C175.451 22.6372 175.614 22.8574 175.749 23.1837L181.997 40.5876C182.075 40.8405 182.111 41.0036 182.111 41.0771C182.111 41.4564 181.822 41.6481 181.247 41.6481H178.971C178.339 41.6481 177.894 41.5787 177.645 41.4441C177.396 41.3095 177.213 41.0485 177.099 40.6692L176.348 38.0303H169.867L169.088 40.6692C168.974 41.0485 168.79 41.3095 168.542 41.4441C168.293 41.5787 167.869 41.6481 167.273 41.6481H165.111C164.569 41.6562 164.292 41.4727 164.292 41.1097ZM175.206 34.5022L173.995 30.1787C173.591 28.7267 173.334 27.4786 173.216 26.4263H173.016C172.861 27.7478 172.612 28.9918 172.265 30.1502L171.054 34.5022H175.206Z" fill="#3C8476"/>
<path d="M185.705 41.4116C185.542 41.2484 185.46 40.967 185.46 40.5673V23.4367C185.46 23.037 185.542 22.7555 185.705 22.5924C185.868 22.4292 186.15 22.3477 186.553 22.3477H193.638C195.616 22.3477 197.199 22.8983 198.39 23.9914C199.581 25.0886 200.176 26.6058 200.176 28.5473C200.176 31.1781 199.091 32.9075 196.921 33.7395C197.211 33.9924 197.505 34.4125 197.815 34.9917L200.523 40.5102C200.617 40.7468 200.666 40.9344 200.666 41.0812C200.666 41.4605 200.396 41.6522 199.858 41.6522H197.525C196.852 41.6522 196.391 41.5911 196.142 41.4605C195.894 41.3341 195.673 41.0608 195.482 40.6448L193.552 36.3744C193.206 35.632 192.908 35.1508 192.659 34.9346C192.41 34.7184 191.986 34.6083 191.391 34.6083H189.951V40.5632C189.951 40.9792 189.873 41.2648 189.718 41.4197C189.563 41.5747 189.286 41.6522 188.882 41.6522H186.549C186.15 41.6563 185.864 41.5747 185.705 41.4116ZM193.406 30.8885C194.079 30.8885 194.621 30.6846 195.033 30.2767C195.445 29.8688 195.653 29.3019 195.653 28.5759C195.653 27.8498 195.453 27.2829 195.049 26.875C194.645 26.4672 194.099 26.2632 193.41 26.2632H189.955V30.8844H193.406V30.8885Z" fill="#3C8476"/>
<path d="M204.883 41.4116C204.72 41.2484 204.638 40.967 204.638 40.5673V23.4367C204.638 23.037 204.72 22.7555 204.883 22.5924C205.046 22.4292 205.327 22.3477 205.731 22.3477H216.332C216.752 22.3477 217.042 22.4252 217.197 22.5801C217.352 22.7351 217.425 23.0206 217.425 23.4367V25.1497C217.425 25.5658 217.347 25.8554 217.197 26.0185C217.042 26.1817 216.756 26.2632 216.332 26.2632H209.133V29.9341H215.006C215.41 29.9341 215.687 30.0116 215.842 30.1666C215.997 30.3216 216.075 30.6071 216.075 31.0231V32.7362C216.075 33.1522 215.997 33.4418 215.842 33.6049C215.687 33.7681 215.41 33.8496 215.006 33.8496H209.133V37.7367H216.564C216.984 37.7367 217.274 37.8182 217.429 37.9814C217.584 38.1445 217.662 38.4341 217.662 38.8502V40.5632C217.662 40.9792 217.584 41.2648 217.429 41.4197C217.274 41.5747 216.989 41.6522 216.564 41.6522H205.735C205.332 41.6563 205.046 41.5747 204.883 41.4116Z" fill="#3C8476"/>
</svg>
