<svg width="24" height="25" viewBox="0 0 24 25" fill="none" xmlns="http://www.w3.org/2000/svg">
<path fill-rule="evenodd" clip-rule="evenodd" d="M9.87643 4.52647C9.18954 6.41544 8.75001 9.07471 8.75001 12.0483C8.75001 12.4279 8.75718 12.8023 8.7711 13.1707C9.79627 13.2537 10.8792 13.2983 12 13.2983C13.1208 13.2983 14.2038 13.2537 15.2289 13.1707C15.2429 12.8023 15.25 12.4279 15.25 12.0483C15.25 9.07471 14.8105 6.41544 14.1236 4.52647C13.779 3.57891 13.3865 2.86486 12.9883 2.40172C12.8696 2.26368 12.7565 2.15446 12.6496 2.0691C12.4349 2.05533 12.2183 2.04834 12 2.04834C11.7818 2.04834 11.5652 2.05533 11.3504 2.0691C11.2435 2.15446 11.1304 2.26368 11.0117 2.40172C10.6136 2.86486 10.221 3.57891 9.87643 4.52647ZM15.1315 14.6829C14.1291 14.7584 13.0797 14.7983 12 14.7983C10.9203 14.7983 9.87096 14.7584 8.86854 14.6829C9.04293 16.5809 9.40024 18.2607 9.87643 19.5702C10.221 20.5178 10.6136 21.2318 11.0117 21.695C11.1304 21.833 11.2435 21.9422 11.3504 22.0276C11.5652 22.0413 11.7818 22.0483 12 22.0483C12.2183 22.0483 12.4349 22.0413 12.6496 22.0276C12.7565 21.9422 12.8696 21.833 12.9883 21.695C13.3865 21.2318 13.779 20.5178 14.1236 19.5702C14.5998 18.2607 14.9571 16.5809 15.1315 14.6829ZM7.26493 13.0164C7.25504 12.6969 7.25001 12.3741 7.25001 12.0483C7.25001 8.94684 7.70592 6.10611 8.46674 4.01386C8.67341 3.44553 8.90681 2.9206 9.16688 2.45534C5.12245 3.64792 2.14458 7.3286 2.00513 11.7255C2.88207 12.1236 4.09222 12.4814 5.56698 12.7549C6.104 12.8546 6.67155 12.9422 7.26493 13.0164ZM2.08791 13.38C3.0045 13.7219 4.09274 14.0071 5.29339 14.2298C5.94235 14.3502 6.63038 14.4534 7.3503 14.5376C7.5238 16.6555 7.91514 18.5659 8.46674 20.0828C8.67341 20.6511 8.90681 21.1761 9.16688 21.6413C5.43599 20.5412 2.6127 17.3238 2.08791 13.38ZM16.6497 14.5376C17.3697 14.4534 18.0577 14.3502 18.7066 14.2298C19.9073 14.0071 20.9955 13.7219 21.9121 13.38C21.3873 17.3238 18.564 20.5412 14.8332 21.6413C15.0932 21.1761 15.3266 20.6511 15.5333 20.0828C16.0849 18.5659 16.4762 16.6555 16.6497 14.5376ZM21.9949 11.7255C21.118 12.1236 19.9078 12.4814 18.4331 12.7549C17.896 12.8546 17.3285 12.9422 16.7351 13.0164C16.745 12.6969 16.75 12.3741 16.75 12.0483C16.75 8.94684 16.2941 6.10611 15.5333 4.01386C15.3266 3.44553 15.0932 2.9206 14.8332 2.45534C18.8776 3.64792 21.8555 7.3286 21.9949 11.7255Z" fill="#270017"/>
</svg>
