<svg width="332" height="42" viewBox="0 0 332 42" fill="none" xmlns="http://www.w3.org/2000/svg">
<path fill-rule="evenodd" clip-rule="evenodd" d="M13.9763 2.91237L17.8554 0.721436L35.7105 10.8021L31.8314 12.9931L13.9763 2.91237Z" fill="#EC008C"/>
<path fill-rule="evenodd" clip-rule="evenodd" d="M10.0974 5.10328L13.9764 2.91235L26.013 9.70666L22.134 11.8976L10.0974 5.10328Z" fill="#C40075"/>
<path fill-rule="evenodd" clip-rule="evenodd" d="M6.21802 7.28993L10.0971 5.10303L13.9761 7.28993L10.0971 9.48086L6.21802 7.28993Z" fill="#9E005D"/>
<path fill-rule="evenodd" clip-rule="evenodd" d="M12.0369 12.7671L15.9159 10.5762L26.0129 16.279L22.1339 18.47L12.0369 12.7671Z" fill="#9E005D"/>
<path fill-rule="evenodd" clip-rule="evenodd" d="M22.1338 14.0884L26.0128 11.8975L29.8919 14.0884L35.7104 10.802V15.1839L29.8919 18.4703L22.1338 14.0884Z" fill="#C40075"/>
<path fill-rule="evenodd" clip-rule="evenodd" d="M35.7108 26.5857V30.9676L17.8557 41.0483V36.6704L35.7108 26.5857Z" fill="#EC008C"/>
<path fill-rule="evenodd" clip-rule="evenodd" d="M35.7105 22.2075V26.5854L23.674 33.3837V29.0018L35.7105 22.2075Z" fill="#C40075"/>
<path fill-rule="evenodd" clip-rule="evenodd" d="M35.7105 17.8259V22.2078L31.8314 24.3947V20.0169L35.7105 17.8259Z" fill="#9E005D"/>
<path fill-rule="evenodd" clip-rule="evenodd" d="M27.9527 20.0166V24.3944L17.8557 30.0973V25.7154L27.9527 20.0166Z" fill="#9E005D"/>
<path fill-rule="evenodd" clip-rule="evenodd" d="M21.7344 27.9065V32.2884L17.8554 34.4793V41.0481L13.9763 38.8571V32.2884L21.7344 27.9065Z" fill="#C40075"/>
<path fill-rule="evenodd" clip-rule="evenodd" d="M3.87904 33.1586L0 30.9677V10.8022L3.87904 12.9932V33.1586Z" fill="#EC008C"/>
<path fill-rule="evenodd" clip-rule="evenodd" d="M7.75795 35.3495L3.87891 33.1586V19.5659L7.75795 21.7528V35.3495Z" fill="#C40075"/>
<path fill-rule="evenodd" clip-rule="evenodd" d="M11.6373 37.5361L7.7583 35.3492V30.9673L11.6373 33.1582V37.5361Z" fill="#9E005D"/>
<path fill-rule="evenodd" clip-rule="evenodd" d="M13.5768 29.8722L9.69775 27.6812V16.2795L13.5768 18.4705V29.8722Z" fill="#9E005D"/>
<path fill-rule="evenodd" clip-rule="evenodd" d="M9.69759 20.6615L5.81856 18.4705V14.0887L0 10.8023L3.87904 8.61133L9.69759 11.8977V20.6615Z" fill="#C40075"/>
<path d="M45.8682 12.3384C47.2301 12.3384 48.592 12.3384 49.954 12.3384V18.8232H59.2334V12.3384C60.5813 12.3384 61.9361 12.3384 63.2839 12.3384V30.2788C61.9361 30.2788 60.5813 30.2788 59.2334 30.2788V22.2363H49.954V30.2788C48.592 30.2788 47.2301 30.2788 45.8682 30.2788V12.3384Z" fill="#EC008C"/>
<path d="M77.8768 21.6222L68.3856 12.3821H73.6216L79.9232 18.4946L86.1895 12.3821H91.4608L81.9344 21.6533V30.3225H77.8768V21.6222Z" fill="#EC008C"/>
<path d="M100.607 19.6672H108.538C109.759 19.6672 110.754 18.7984 110.754 17.7186C110.754 16.6451 109.766 15.7701 108.538 15.7701H100.607V19.6672ZM96.5632 12.3694H108.814C112.187 12.3694 114.918 14.771 114.918 17.7372C114.918 20.7035 112.187 23.1051 108.814 23.1051H100.607V30.3098H96.5632C96.5632 24.3276 96.5632 18.3454 96.5632 12.3694Z" fill="#EC008C"/>
<path d="M120.012 12.3821H137.188C137.188 13.5177 137.188 14.6533 137.188 15.7952H124.062V19.0841H133.307C133.307 20.2198 133.307 21.3554 133.307 22.4972H124.062V26.9156H137.188C137.188 28.0512 137.188 29.1868 137.188 30.3287H120.012V12.3821Z" fill="#EC008C"/>
<path d="M146.333 19.6672H154.265C155.486 19.6672 156.481 18.7984 156.481 17.7186C156.481 16.6451 155.493 15.7701 154.265 15.7701H146.333V19.6672ZM142.29 12.3694H154.54C157.913 12.3694 160.644 14.771 160.644 17.7372C160.644 20.0767 158.944 22.0625 156.573 22.801L161.406 30.2788H156.869L152.204 23.1051H146.333V30.3098H142.29C142.29 24.3276 142.29 18.3454 142.29 12.3694Z" fill="#EC008C"/>
<path d="M180.473 23.5025C179.669 22.0628 178.893 20.6728 177.185 17.663C175.576 20.5238 174.75 21.9946 173.904 23.5025H180.473ZM170.093 30.3225H165.683L175.682 12.3821H178.681L188.793 30.3225H184.347C183.55 28.9386 182.929 27.8464 182.414 26.9466H171.977C171.469 27.8589 170.862 28.951 170.093 30.3225Z" fill="#EC008C"/>
<path d="M195.687 24.2156C198.178 25.9904 200.902 27.337 204.296 27.337C206.209 27.337 209.278 26.8468 209.278 24.6376C209.278 23.6075 208.34 23.0427 207.324 22.7511C205.736 22.2919 201.904 22.2422 200.295 22.0002C198.757 21.7644 197.522 21.4913 196.315 20.6226C195.144 19.7848 194.481 18.6182 194.481 17.2715C194.481 16.4772 194.685 15.7512 195.095 15.0934C196.534 12.7663 199.808 11.9409 202.631 11.9409C206.632 11.9409 209.645 13.1758 212.814 15.2299C212.023 16.229 211.233 17.2281 210.443 18.2272C208.248 16.5951 205.863 15.4036 202.673 15.4036C202.031 15.4036 201.453 15.4595 200.937 15.565C200.084 15.745 198.665 16.2538 198.665 17.1909C198.665 18.0907 199.942 18.3885 200.719 18.5375C202.236 18.8291 203.795 18.854 205.341 18.9595C206.71 19.0525 208.043 19.2015 209.328 19.6607C210.901 20.2192 212.306 21.2307 213.011 22.6084C213.738 24.0356 213.661 25.798 212.835 27.1757C211.854 28.8077 209.913 29.8813 207.938 30.3716C206.858 30.6384 205.658 30.7749 204.346 30.7749C203.379 30.7749 202.433 30.7129 201.509 30.5826C199.667 30.3281 198.002 29.8379 196.365 29.056C195.264 28.5285 194.354 27.9266 193.373 27.2564C194.135 26.2386 194.911 25.2271 195.687 24.2156Z" fill="#EC008C"/>
<path fill-rule="evenodd" clip-rule="evenodd" d="M239.46 11.8916C243.249 11.8916 246.58 13.623 248.485 16.2355L245.169 18.0972C243.962 16.4465 241.859 15.3481 239.46 15.3481C235.72 15.3481 232.686 18.0165 232.686 21.3055C232.686 24.5945 235.72 27.2629 239.46 27.2629C241.859 27.2629 243.962 26.1707 245.169 24.5138L248.485 26.3755C246.58 28.988 243.249 30.7194 239.46 30.7194C233.547 30.7194 228.748 26.5058 228.748 21.2993C228.748 16.0928 233.547 11.8916 239.46 11.8916Z" fill="#0094B0"/>
<path d="M253.58 12.3384C254.942 12.3384 256.304 12.3384 257.666 12.3384V18.8232H266.945V12.3384C268.293 12.3384 269.648 12.3384 270.996 12.3384V30.2788C269.648 30.2788 268.293 30.2788 266.945 30.2788V22.2363H257.666V30.2788C256.304 30.2788 254.942 30.2788 253.58 30.2788V12.3384Z" fill="#0094B0"/>
<path d="M308.368 12.3384H304.303V30.2788H308.368V12.3384Z" fill="#0094B0"/>
<path d="M314.084 12.3384H316.525L327.393 23.3471V12.3384H331.436V30.2726H329.002L318.127 19.2949V30.2726H314.084V12.3384Z" fill="#0094B0"/>
<path d="M290.889 23.4587C290.084 22.019 289.308 20.6289 287.6 17.6192C285.991 20.48 285.166 21.9507 284.319 23.4587H290.889ZM280.508 30.2724H276.098L286.097 12.332H289.096L299.208 30.2724H294.763C293.965 28.8886 293.344 27.7964 292.829 26.8966H282.392C281.884 27.815 281.277 28.9072 280.508 30.2724Z" fill="#0094B0"/>
</svg>
