<svg width="144" height="40" viewBox="0 0 144 40" fill="none" xmlns="http://www.w3.org/2000/svg">
<path d="M4.5837 14.0129C3.74676 14.4967 3.74676 15.708 4.5837 16.1918L10.866 19.8185C11.2651 20.048 11.5123 20.4753 11.5123 20.9379V29.099C11.5123 29.7911 12.0738 30.3526 12.7659 30.3526C13.4581 30.3526 14.0196 29.7911 14.0196 29.099V19.6172C14.0196 19.0698 13.7265 18.5648 13.2532 18.2894L5.84087 14.0129C5.45242 13.7869 4.97215 13.7869 4.5837 14.0129Z" fill="#E52F92"/>
<path d="M21.1883 16.2165V37.4401C21.1883 38.1464 20.9022 38.7891 20.4396 39.2517C19.977 39.7143 19.3343 40.0004 18.628 40.0004C17.2119 40.0004 16.0642 38.8527 16.0642 37.4366V18.9074C16.0642 17.9645 15.5628 17.0923 14.7435 16.6226L1.89984 9.20669C0.187115 8.2179 0.187115 5.7424 1.89984 4.75361C2.6944 4.29453 3.67612 4.29453 4.47069 4.75361L19.0165 13.1512L19.6203 13.5009C20.5915 14.0623 21.1883 15.097 21.1883 16.2165Z" fill="#28225C"/>
<path d="M21.1883 16.2165V35.5614C20.6374 35.4767 20.143 35.2189 19.7651 34.841C19.3025 34.3784 19.0165 33.7357 19.0165 33.0294V13.1512L19.6203 13.5009C20.5915 14.0623 21.1883 15.097 21.1883 16.2165Z" fill="#993192"/>
<path d="M39.3714 0.34647C41.0841 1.33526 41.0841 3.81076 39.3714 4.79955L26.5277 12.2155C25.712 12.6887 25.207 13.5574 25.207 14.5003V33.033C25.207 34.4491 24.0593 35.5968 22.6432 35.5968C21.2271 35.5968 20.0794 34.4491 20.0794 33.033V11.8093C20.0794 10.6899 20.6762 9.6552 21.6473 9.09371L36.797 0.34647C37.5951 -0.116141 38.5733 -0.116141 39.3714 0.34647Z" fill="#E52F92"/>
<path d="M37.1784 9.92357C38.0153 10.4074 38.0153 11.6186 37.1784 12.1024L30.896 15.7292C30.497 15.9587 30.2498 16.386 30.2498 16.8486V25.0096C30.2498 25.7018 29.6883 26.2633 28.9961 26.2633C28.304 26.2633 27.7425 25.7018 27.7425 25.0096V15.5314C27.7425 14.984 28.0356 14.4791 28.5088 14.2036L35.9177 9.92357C36.3096 9.70109 36.7864 9.70109 37.1784 9.92357Z" fill="#28225C"/>
<path d="M50.9614 29.8265V10.1284H54.348V17.8162H62.0994V10.1284H65.4859V29.8265H62.0994V21.2382H54.348V29.8265H50.9614Z" fill="#281A57"/>
<path d="M67.3576 14.412H71.0338L75.1019 23.696L78.4285 14.412H82.0234L75.893 31.3874C74.8406 34.3502 72.238 36.2395 69.3034 36.469H69.261V33.0259C70.8325 32.7964 72.1744 31.8288 72.7324 30.2326L73.4316 28.3362L67.3576 14.412Z" fill="#281A57"/>
<path d="M81.7126 22.0998C81.7126 17.8162 85.1204 14.412 89.3157 14.412V17.8339C87.0027 17.8339 85.1028 19.7444 85.1028 22.0963V29.823H81.7162V22.0998H81.7126Z" fill="#281A57"/>
<path d="M97.8617 14.412C102.036 14.412 105.422 17.8551 105.422 22.121V29.8265H102.053V22.121C102.053 19.7479 100.154 17.8162 97.8581 17.8162C95.5239 17.8162 93.624 19.7479 93.624 22.121C93.624 24.4517 95.5239 26.4046 97.8581 26.4046C98.7657 26.4046 99.6344 26.0903 100.316 25.5641V29.3851C99.5532 29.657 98.7057 29.8265 97.8581 29.8265C93.6452 29.8265 90.2551 26.3622 90.2551 22.121C90.2586 17.8586 93.6452 14.412 97.8617 14.412Z" fill="#281A57"/>
<path d="M107.28 10.1284H110.649V14.4544H115.13C113.809 15.2736 112.715 16.4708 111.991 17.8763H110.649V29.8265H107.28V10.1284Z" fill="#E52F92"/>
<path d="M120.544 14.412C122.857 14.412 124.944 15.482 126.349 17.1629C127.734 18.8439 128.126 20.712 128.126 22.0786C128.126 22.5624 128.066 23.0639 127.981 23.5689H118.375V20.1258H124.283C123.56 18.7591 122.175 17.8162 120.544 17.8162C118.146 17.8162 116.331 19.7903 116.331 22.121C116.331 24.3882 118.128 26.4046 120.544 26.4046C121.536 26.4046 122.401 26.0479 123.125 25.4793V29.3639C122.278 29.6782 121.43 29.8265 120.544 29.8265C116.348 29.8265 112.941 26.3622 112.941 22.121C112.941 17.8586 116.352 14.412 120.544 14.412Z" fill="#E52F92"/>
<path d="M133.179 10.1284V21.3229L138.137 14.412H142.311L137.272 21.4465L143.159 29.8265H139.027L133.179 21.5101V29.8265H129.792V10.1284H133.179Z" fill="#E52F92"/>
</svg>
