<svg width="135" height="40" viewBox="0 0 135 40" fill="none" xmlns="http://www.w3.org/2000/svg">
<path d="M36.7498 20.0624C36.7498 19.8548 36.6783 19.756 36.5115 19.6539C34.8025 18.619 33.1004 17.5773 31.3983 16.5322C30.5064 15.9875 29.6213 15.4394 28.6374 14.8335C31.3745 13.2437 34.0502 11.688 36.743 10.122C36.6272 10.0301 36.5591 9.962 36.4808 9.91774C34.394 8.75008 32.3038 7.58583 30.2136 6.42498C28.0417 5.21647 25.863 4.01817 23.6911 2.80966C22.0434 1.89391 20.4025 0.961148 18.7447 0.0556158C18.5983 -0.022682 18.343 -0.009065 18.1864 0.0658286C17.7813 0.253063 17.4034 0.498169 17.0119 0.716041C15.0442 1.81562 13.0732 2.90838 11.1089 4.01136C9.25021 5.05647 7.39489 6.10838 5.53957 7.15689C4.02467 8.00455 2.50297 8.85221 0.984673 9.70328C0.800843 9.8054 0.685098 9.92455 0.685098 10.1799C0.698715 13.4309 0.688503 16.682 0.705524 19.9331C0.705524 20.0965 0.834886 20.3314 0.97446 20.4165C2.93531 21.6148 4.90637 22.7892 6.87403 23.9739C7.4868 24.3416 8.09616 24.7194 8.7702 25.128C6.0434 26.7007 3.37786 28.2428 0.664673 29.8122C1.26723 30.1492 1.80169 30.4454 2.33276 30.745C3.9634 31.6709 5.59403 32.6037 7.22808 33.5229C8.96765 34.4999 10.7174 35.4633 12.457 36.4403C14.5268 37.6046 16.5932 38.7824 18.6664 39.9399C18.7957 40.0114 19.034 40.0182 19.1634 39.9467C20.3685 39.2897 21.56 38.6088 22.7549 37.9382C24.9098 36.7297 27.0647 35.5177 29.2264 34.3126C30.874 33.3935 32.5319 32.488 34.183 31.5722C34.7923 31.2352 35.4187 30.9288 35.9974 30.5441C36.297 30.3467 36.7464 30.2616 36.743 29.7237C36.7294 26.5067 36.7362 23.2863 36.7498 20.0624ZM34.6391 19.7322C34.7106 19.7765 34.7685 19.8446 34.874 19.9365C33.897 20.4948 32.9677 21.0258 32.0383 21.5569C30.8945 22.2071 29.7472 22.8573 28.6034 23.5041C28.2562 23.1331 27.7659 22.9016 27.2213 22.9016C26.6357 22.9016 26.1115 23.1671 25.7642 23.5858C24.1506 22.6667 22.537 21.7407 20.9268 20.8114C20.7906 20.7331 20.6579 20.6548 20.5183 20.5731C20.5762 20.3926 20.6068 20.1986 20.6068 20.0011C20.6068 19.8446 20.5864 19.6914 20.5489 19.545C20.7021 19.4531 20.8519 19.3611 21.0051 19.276C23.1191 18.0539 25.24 16.842 27.354 15.6165C27.5685 15.4939 27.7421 15.4837 27.9566 15.6165C30.1762 16.9918 32.4094 18.3603 34.6391 19.7322ZM18.52 27.4633C17.8528 27.4633 17.2706 27.8071 16.9336 28.328C16.4366 28.059 15.943 27.7901 15.4459 27.5246L18.1966 25.9348C18.2102 25.945 18.2238 25.9552 18.2374 25.962C18.663 26.2207 19.2213 26.088 19.48 25.6624C19.7387 25.2369 19.6059 24.6786 19.1804 24.4199C18.7549 24.1611 18.1966 24.2939 17.9379 24.7194C17.8357 24.8897 17.7949 25.0803 17.8085 25.2641L14.6459 27.0922C13.5906 26.5237 12.5387 25.9586 11.4834 25.3901C11.3404 25.3118 11.2042 25.2199 10.9864 25.0871C11.3574 24.8658 11.6877 24.6684 12.0179 24.4777C13.8085 23.4394 15.5991 22.4046 17.3864 21.3629C17.7268 21.6965 18.1932 21.9007 18.7072 21.9007C19.1804 21.9007 19.6162 21.7237 19.9464 21.4377C21.6894 22.442 23.4357 23.4429 25.1821 24.4437C25.2366 24.4743 25.2911 24.505 25.3455 24.539C25.3319 24.6241 25.3251 24.7126 25.3251 24.8011C25.3251 24.9884 25.3523 25.1722 25.4034 25.3424C24.7736 25.7067 24.1813 26.0539 23.5821 26.3943C22.4315 27.0514 21.2774 27.705 20.1268 28.362C19.7932 27.8207 19.1974 27.4633 18.52 27.4633ZM12.6579 14.3263C12.9438 14.1629 13.223 13.9994 13.5055 13.836C14.6459 13.179 15.7864 12.5254 16.9302 11.8684C17.2774 12.2803 17.7949 12.539 18.377 12.539C19.1532 12.539 19.8204 12.0692 20.1132 11.402C22.1081 12.4709 24.1064 13.5365 26.1013 14.602C26.2306 14.6735 26.3532 14.762 26.5302 14.8709C25.9991 15.1841 25.5021 15.4837 25.0017 15.7765C23.3472 16.7365 21.6962 17.6965 20.0383 18.6463C19.6979 18.3126 19.2315 18.105 18.714 18.105C18.2715 18.105 17.863 18.2582 17.543 18.5135C15.9089 17.5943 14.2817 16.6684 12.6545 15.739C12.7464 15.5143 12.7974 15.2726 12.7974 15.0139C12.7906 14.7722 12.743 14.5407 12.6579 14.3263ZM19.3745 1.52625C24.5183 4.40285 29.5838 7.23859 34.7345 10.1186C34.0332 10.5271 33.4272 10.8846 32.8179 11.2352C32.1711 11.6097 31.5208 11.9841 30.874 12.3586L26.2 9.81562C26.2 9.79859 26.2034 9.78157 26.2034 9.76455C26.2034 9.26413 25.7983 8.85902 25.2979 8.85902C24.7974 8.85902 24.3923 9.26413 24.3923 9.76455C24.3923 10.265 24.7974 10.6701 25.2979 10.6701C25.4987 10.6701 25.6791 10.6054 25.8289 10.4965L30.0877 12.8148C29.3523 13.2403 28.617 13.6658 27.8817 14.0982C27.6604 14.2275 27.5174 14.2207 27.2928 14.0982C25.3251 13.0292 23.3438 11.9773 21.3694 10.922C20.9949 10.7211 20.617 10.5237 20.2391 10.3297C20.1438 9.77136 19.8034 9.29476 19.3336 9.01562C19.3438 6.69391 19.3404 4.37221 19.3404 2.05051C19.337 1.91434 19.354 1.78157 19.3745 1.52625ZM18.3328 1.17221C18.3464 1.36966 18.3634 1.50923 18.3634 1.65221C18.3634 4.01817 18.3634 6.38413 18.3702 8.75349C17.3251 8.75349 16.4774 9.60115 16.4774 10.6463C16.4774 10.7518 16.4877 10.8539 16.5047 10.9526C15.017 11.8037 13.5294 12.6582 12.0417 13.5126C11.7217 13.2709 11.3268 13.1246 10.8945 13.1246C10.2681 13.1246 9.71318 13.4309 9.36935 13.9007C8.54893 13.4037 7.72169 12.9237 6.88765 12.4471L11.4153 9.82923C11.4289 9.83945 11.4425 9.84966 11.4562 9.85647C11.8817 10.1152 12.44 9.98242 12.6987 9.55689C12.9574 9.13136 12.8247 8.57306 12.3991 8.31434C11.9736 8.05562 11.4153 8.18838 11.1566 8.61391C11.0545 8.78413 11.0136 8.97476 11.0272 9.15859L6.10808 12.0046C5.09701 11.436 4.08595 10.8709 3.07829 10.299C2.94893 10.2275 2.82638 10.1424 2.63233 10.0199C7.8851 7.05817 13.0766 4.13391 18.3328 1.17221ZM1.71318 10.7586C4.14723 12.1441 6.5268 13.4956 9.0085 14.9084C9.0051 14.9458 9.00169 14.9799 9.00169 15.0173C9.00169 15.0718 9.0051 15.1229 9.0085 15.1773C6.54042 16.5969 4.15744 17.9654 1.71318 19.368C1.71318 16.4607 1.71318 13.6658 1.71318 10.7586ZM3.09531 20.4403C2.95914 20.3552 2.82297 20.2633 2.60169 20.1203C3.12255 19.8105 3.57872 19.5314 4.04169 19.2658C4.69191 18.8948 5.34212 18.5237 5.99233 18.1526L9.0902 19.8411C9.0902 19.8582 9.0868 19.8752 9.0868 19.8922C9.0868 20.3926 9.49191 20.7977 9.99233 20.7977C10.4928 20.7977 10.8979 20.3926 10.8979 19.8922C10.8979 19.3918 10.4928 18.9867 9.99233 18.9867C9.79148 18.9867 9.61106 19.0514 9.46127 19.1603L6.78212 17.7033C7.66042 17.2029 8.53531 16.699 9.4102 16.1884C9.75744 16.6275 10.2953 16.9135 10.8979 16.9135C11.3166 16.9135 11.7047 16.7773 12.0179 16.5458C13.6519 17.4888 15.2962 18.4182 16.937 19.3509C16.8621 19.5552 16.8179 19.7765 16.8179 20.0046C16.8179 20.1714 16.8417 20.3314 16.8825 20.4846C16.6068 20.648 16.3345 20.808 16.0621 20.9646C14.1251 22.088 12.1847 23.2046 10.2511 24.3314C9.97191 24.4948 9.74723 24.5016 9.46467 24.3246C7.34382 23.0207 5.21616 21.7305 3.09531 20.4403ZM18.1149 37.8463C18.1149 38.0063 18.1149 38.1663 18.1149 38.4624C12.9438 35.5484 7.8851 32.6956 2.75489 29.8054C3.28935 29.4922 3.76255 29.2097 4.23914 28.9339C6.02637 27.9024 7.82042 26.8811 9.60425 25.8428C9.82212 25.7169 9.97871 25.7203 10.2 25.8394C12.3379 27.0071 14.4587 28.2088 16.6306 29.3084C16.6306 29.3254 16.6272 29.339 16.6272 29.356C16.6272 30.2752 17.2808 31.0377 18.1489 31.2114C18.1489 31.242 18.1489 31.2726 18.1489 31.3033C18.0706 33.482 18.1149 35.6675 18.1149 37.8463ZM28.0008 33.8326L25.063 32.2326C25.063 32.2156 25.0664 32.1986 25.0664 32.1816C25.0664 31.6811 24.6613 31.276 24.1608 31.276C23.6604 31.276 23.2553 31.6811 23.2553 32.1816C23.2553 32.682 23.6604 33.0871 24.1608 33.0871C24.3617 33.0871 24.5421 33.0224 24.6919 32.9135L27.2008 34.2786C24.5115 35.7833 21.8221 37.288 19.1089 38.8028C19.0987 38.5884 19.0817 38.4352 19.0817 38.282C19.0851 35.9092 19.0953 33.5331 19.0953 31.1603C19.8579 30.9152 20.4094 30.2003 20.4094 29.356C20.4094 29.3526 20.4094 29.3492 20.4094 29.3458C22.2545 28.2973 24.0962 27.2454 25.9345 26.1867C26.2715 26.4965 26.7174 26.6871 27.2111 26.6871C27.657 26.6871 28.0655 26.5339 28.3889 26.2752C30.4757 27.4769 32.5659 28.6718 34.6562 29.8701C34.697 29.8939 34.7242 29.9416 34.7991 30.0267C32.5285 31.2999 30.2647 32.5663 28.0008 33.8326ZM35.7149 29.1177C35.6774 29.1518 35.64 29.1858 35.6059 29.2165C33.4306 27.9705 31.2519 26.7246 29.0017 25.4343C29.0732 25.2335 29.114 25.019 29.114 24.7943C29.114 24.6718 29.1004 24.556 29.08 24.4403C31.303 23.1705 33.4817 21.928 35.7149 20.6514C35.7149 23.545 35.7149 26.3331 35.7149 29.1177Z" fill="#26CEC4"/>
<path d="M61.5464 14.3228C62.04 14.3228 62.4451 14.4931 62.7583 14.8301C63.0715 15.1739 63.2281 15.6165 63.2281 16.1577V16.9203H61.703V15.8446H52.0826C51.7047 15.8446 51.3813 15.9637 51.1157 16.2054C50.8434 16.4471 50.7072 16.7365 50.7072 17.0735V19.3577C50.7072 19.6982 50.8434 19.9875 51.1157 20.2258C51.3813 20.4607 51.7047 20.5765 52.0826 20.5765H60.4843C61.2672 20.5765 61.9209 20.8386 62.4485 21.3663C62.9694 21.8939 63.2315 22.5475 63.2315 23.3305V25.625C63.2315 26.408 62.9694 27.0582 62.4485 27.579C61.9209 28.1067 61.2672 28.3688 60.4843 28.3688H51.0204C50.5336 28.3688 50.1557 28.3007 49.897 28.1646C49.4204 27.9024 49.1855 27.4122 49.1855 26.6905V25.928H50.7106V26.8471H60.4877C60.8791 26.8471 61.1889 26.7177 61.417 26.4556C61.6111 26.2275 61.7098 25.9518 61.7098 25.625V23.3305C61.7098 23.0037 61.6111 22.728 61.417 22.4999C61.1889 22.2377 60.8791 22.1084 60.4877 22.1084H52.086C51.286 22.1084 50.6017 21.8394 50.0332 21.2982C49.4681 20.7637 49.1821 20.1169 49.1821 19.3543V17.0701C49.1821 16.3075 49.4647 15.6607 50.0332 15.1263C50.5983 14.585 51.2826 14.316 52.086 14.316H61.5464V14.3228Z" fill="#26CEC4"/>
<path d="M79.8681 18.5986C80.3106 18.5986 80.7021 18.7688 81.0391 19.1059C81.3796 19.4497 81.5464 19.8412 81.5464 20.2769V26.8505C81.5464 27.2352 81.3728 27.5825 81.0289 27.8957C80.6783 28.2157 80.2902 28.3757 79.8681 28.3757H70.7072C70.2783 28.3757 69.914 28.2122 69.6145 27.8888C69.3285 27.5757 69.1855 27.2318 69.1855 26.854V24.2565C69.1855 23.8718 69.3285 23.528 69.6145 23.2216C69.914 22.888 70.2783 22.7246 70.7072 22.7246H78.6493C79.143 22.7246 79.6025 22.8369 80.0281 23.0582V20.1271H70.7106V21.0463H69.1855V20.2837C69.1855 19.8208 69.3353 19.4259 69.6349 19.0923C69.9345 18.7654 70.2919 18.6054 70.7106 18.6054H79.8681V18.5986ZM80.0247 25.6318C80.0247 25.2267 79.8953 24.8999 79.6332 24.6446C79.371 24.3825 79.0442 24.2531 78.6459 24.2531H70.7038V26.8505H80.0213V25.6318H80.0247Z" fill="#26CEC4"/>
<path d="M89.3183 26.8539H90.2477L90.2375 28.379H89.4749C89.0528 28.379 88.6647 28.219 88.314 27.899C87.9668 27.5859 87.7966 27.2386 87.7966 26.8539V14.3229H89.3217V26.8539H89.3183Z" fill="#26CEC4"/>
<path d="M106.595 18.5986C107.037 18.5986 107.429 18.7688 107.766 19.1059C108.106 19.4497 108.273 19.8412 108.273 20.2769V26.8505C108.273 27.2352 108.1 27.5825 107.756 27.8957C107.405 28.2157 107.017 28.3757 106.595 28.3757H97.4341C97.0051 28.3757 96.6409 28.2122 96.3413 27.8888C96.0553 27.5757 95.9124 27.2318 95.9124 26.854V24.2565C95.9124 23.8718 96.0553 23.528 96.3413 23.2216C96.6409 22.888 97.0051 22.7246 97.4341 22.7246H105.376C105.87 22.7246 106.329 22.8369 106.755 23.0582V20.1271H97.4375V21.0463H95.9124V20.2837C95.9124 19.8208 96.0621 19.4259 96.3617 19.0923C96.6613 18.7654 97.0187 18.6054 97.4375 18.6054H106.595V18.5986ZM106.752 25.6318C106.752 25.2267 106.622 24.8999 106.36 24.6446C106.098 24.3825 105.771 24.2531 105.373 24.2531H97.4306V26.8505H106.748V25.6318H106.752Z" fill="#26CEC4"/>
<path d="M116.045 26.8539H116.974L116.964 28.379H116.202C115.78 28.379 115.391 28.219 115.041 27.899C114.694 27.5859 114.523 27.2386 114.523 26.8539V14.3229H116.049V26.8539H116.045Z" fill="#26CEC4"/>
<path d="M133.322 18.5986C133.764 18.5986 134.156 18.7688 134.493 19.1059C134.833 19.4497 135 19.8412 135 20.2769V26.8505C135 27.2352 134.826 27.5825 134.483 27.8957C134.132 28.2157 133.744 28.3757 133.322 28.3757H124.161C123.732 28.3757 123.368 28.2122 123.068 27.8888C122.782 27.5757 122.639 27.2318 122.639 26.854V24.2565C122.639 23.8718 122.782 23.528 123.068 23.2216C123.368 22.888 123.732 22.7246 124.161 22.7246H132.103C132.597 22.7246 133.056 22.8369 133.482 23.0582V20.1271H124.164V21.0463H122.639V20.2837C122.639 19.8208 122.789 19.4259 123.089 19.0923C123.388 18.7654 123.746 18.6054 124.164 18.6054H133.322V18.5986ZM133.478 25.6318C133.478 25.2267 133.349 24.8999 133.087 24.6446C132.825 24.3825 132.498 24.2531 132.1 24.2531H124.157V26.8505H133.475V25.6318H133.478Z" fill="#26CEC4"/>
</svg>
